<?xml version="1.0" encoding="UTF-8" standalone="no"?>
<svg
   xmlns:dc="http://purl.org/dc/elements/1.1/"
   xmlns:cc="http://creativecommons.org/ns#"
   xmlns:rdf="http://www.w3.org/1999/02/22-rdf-syntax-ns#"
   xmlns:svg="http://www.w3.org/2000/svg"
   xmlns="http://www.w3.org/2000/svg"
   xmlns:sodipodi="http://sodipodi.sourceforge.net/DTD/sodipodi-0.dtd"
   xmlns:inkscape="http://www.inkscape.org/namespaces/inkscape"
   version="1.1"
   width="703.69312"
   height="519.11865"
   viewBox="0 0 198.59784 146.50682"
   id="svg12546"
   inkscape:version="0.48.5 r10040"
   sodipodi:docname="battery_compartment.svg">
  <metadata
     id="metadata12982">
    <rdf:RDF>
      <cc:Work
         rdf:about="">
        <dc:format>image/svg+xml</dc:format>
        <dc:type
           rdf:resource="http://purl.org/dc/dcmitype/StillImage" />
        <dc:title></dc:title>
      </cc:Work>
    </rdf:RDF>
  </metadata>
  <sodipodi:namedview
     pagecolor="#ffffff"
     bordercolor="#666666"
     borderopacity="1"
     objecttolerance="10"
     gridtolerance="10"
     guidetolerance="10"
     inkscape:pageopacity="0"
     inkscape:pageshadow="2"
     inkscape:window-width="1366"
     inkscape:window-height="702"
     id="namedview12980"
     showgrid="false"
     fit-margin-top="20"
     fit-margin-left="20"
     fit-margin-right="20"
     fit-margin-bottom="20"
     inkscape:zoom="0.31716402"
     inkscape:cx="570.08105"
     inkscape:cy="115.23681"
     inkscape:window-x="0"
     inkscape:window-y="27"
     inkscape:window-maximized="1"
     inkscape:current-layer="svg12546" />
  <!-- Working space 0 0 297 210 -->
  <defs
     id="defs12548">
    <radialGradient
       id="radialGradient3661"
       gradientUnits="userSpaceOnUse"
       cy="29.149"
       cx="282.64999"
       gradientTransform="matrix(0.14777,0.23089,-0.2468,0.15795,-26.318,-62.617)"
       r="19.570999">
      <stop
         stop-color="#71b2f8"
         offset="0"
         id="stop12551" />
      <stop
         stop-color="#002795"
         offset="1"
         id="stop12553" />
    </radialGradient>
    <radialGradient
       id="radialGradient3817"
       gradientUnits="userSpaceOnUse"
       cy="33.900002"
       cx="270.57999"
       gradientTransform="matrix(0.26631,0.065024,-0.17931,0.73438,-60.668,-36.938)"
       r="19.570999">
      <stop
         stop-color="#ff6d0f"
         offset="0"
         id="stop12556" />
      <stop
         stop-color="#ff1000"
         offset="1"
         id="stop12558" />
    </radialGradient>
  </defs>
  <!-- Set display:none to hide FreeCAD Logo -->
  <g
     id="Ortho_-1_1"
     transform="matrix(-1,1.7320508,-1.7320508,-1,115.7038,29.07222)">
    <g
       transform="scale(1,-1)"
       id="g12566"
       style="fill:none;stroke:#000000;stroke-width:0.175;stroke-linecap:butt;stroke-linejoin:miter">
      <path
         id="1"
         d="m -7.75894,-8.58432 0,-1.20253"
         inkscape:connector-curvature="0" />
      <path
         id="2"
         d="M -7.75894,-9.78685 42.2143,-38.6389"
         inkscape:connector-curvature="0" />
      <path
         d="M -4.92093,4.64477 C -5.4791,3.85366 -6.02789,2.94209 -6.5278,1.84098 -6.91033,0.992764 -7.27158,0.0167084 -7.52147,-1.10332 -7.62412,-1.56508 -7.70478,-2.05487 -7.74987,-2.52158 -7.7958,-2.98853 -7.80616,-3.43239 -7.7908,-3.80905 c 0.04569,-1.00982 0.22747,-1.60277 0.40281,-2.05193 0.19538,-0.47875 0.4046,-0.78336 0.61383,-1.02614 0.21941,-0.25005 0.44187,-0.42563 0.68066,-0.56445"
         id="path12570"
         inkscape:connector-curvature="0" />
      <path
         id="4"
         d="m -5.95711,-8.68502 -2.82842,1.63299"
         inkscape:connector-curvature="0" />
      <path
         id="5"
         d="m 38.732,-34.4863 2.8285,-1.633"
         inkscape:connector-curvature="0" />
      <path
         id="6"
         d="M -5.95711,6.82842 -8.78553,8.46141"
         inkscape:connector-curvature="0" />
      <path
         d="m -6.0935,8.06187 c -0.23151,0.13449 -0.44758,0.30382 -0.66052,0.54162 -0.20877,0.2371 -0.41711,0.53429 -0.61306,0.99805 -0.17837,0.44116 -0.36376,1.02026 -0.41972,2.01386 -0.01901,0.3697 -0.01389,0.8073 0.02738,1.2733 0.04039,0.4653 0.11693,0.959 0.21711,1.4256 0.24036,1.1171 0.59521,2.0959 0.97193,2.9452 0.51098,1.1441 1.07545,2.0849 1.64945,2.8987"
         id="path12575"
         inkscape:connector-curvature="0" />
      <path
         id="8"
         d="m -7.75894,38.3864 0,1.2026"
         inkscape:connector-curvature="0" />
      <path
         id="9"
         d="M 42.2143,9.5344 -7.75894,38.3864"
         inkscape:connector-curvature="0" />
      <path
         id="10"
         d="m 38.732,-3.45944 2.8285,-1.63299"
         inkscape:connector-curvature="0" />
      <path
         id="11"
         d="m -5.95711,22.3419 -2.82842,1.6329"
         inkscape:connector-curvature="0" />
      <path
         d="M -4.92093,35.6716 C -5.4791,34.8805 -6.02789,33.969 -6.5278,32.8678 -6.91033,32.0196 -7.27158,31.0436 -7.52147,29.9235 -7.62412,29.4618 -7.70478,28.972 -7.74987,28.5053 -7.7958,28.0383 -7.80616,27.5945 -7.7908,27.2178 c 0.04569,-1.0098 0.22747,-1.6028 0.40281,-2.0519 0.19538,-0.4788 0.4046,-0.7834 0.61383,-1.0261 0.21941,-0.2501 0.44187,-0.4257 0.68066,-0.5645"
         id="path12581"
         inkscape:connector-curvature="0" />
      <path
         id="13"
         d="m 38.732,-18.9729 2.8285,-1.633"
         inkscape:connector-curvature="0" />
    </g>
    <g
       transform="scale(1,-1)"
       id="g12584"
       style="fill:none;stroke:#000000;stroke-width:0.175;stroke-linecap:butt;stroke-linejoin:miter">
      <path
         d="m 26.0757,0.36177 a 2.75,1.58771 120 0 1 2.0951,-3.75784"
         id="path12586"
         inkscape:connector-curvature="0" />
      <path
         d="m 28.1782,-3.20475 a 2.75,1.58771 120 0 1 -1.2559,2.824979"
         id="path12588"
         inkscape:connector-curvature="0" />
      <path
         d="m 26.3644,0.238773 c 0.1519,-0.087828 0.263,-0.1929973 0.3414,-0.284193 0.1021,-0.119643 0.1659,-0.229824 0.2165,-0.334351"
         id="path12590"
         inkscape:connector-curvature="0" />
      <path
         d="m 26.3644,0.238773 c -0.152,0.087608 -0.2988,0.131397 -0.4175,0.153941 -0.1553,0.029032 -0.284,0.029935 -0.4018,0.022651"
         id="path12592"
         inkscape:connector-curvature="0" />
      <path
         d="M 25.5451,0.415365 A 2.75,1.58771 120 0 1 24.8587,0.299504"
         id="path12594"
         inkscape:connector-curvature="0" />
      <path
         d="M 24.8587,0.299504 A 2.75,1.58771 120 0 1 24.2891,-0.959383"
         id="path12596"
         inkscape:connector-curvature="0" />
      <path
         d="m 24.2891,-0.959383 a 2.75,1.58771 120 0 1 1.256,-2.824977"
         id="path12598"
         inkscape:connector-curvature="0" />
      <path
         d="m 26.3644,-4.25196 c -0.1752,0.10112 -0.3395,0.19579 -0.4689,0.26966 -0.1309,0.07477 -0.2477,0.14075 -0.3504,0.19794"
         id="path12600"
         inkscape:connector-curvature="0" />
      <path
         d="m 26.3644,-4.25196 c 0.1747,-0.10088 0.2932,-0.1695 0.3745,-0.21728 0.0803,-0.04715 0.1414,-0.0839 0.1834,-0.11026"
         id="path12602"
         inkscape:connector-curvature="0" />
      <path
         d="m 26.9223,-4.5795 a 2.75,1.58771 120 0 1 0.6864,0.11586"
         id="path12604"
         inkscape:connector-curvature="0" />
      <path
         d="m 27.6087,-4.46364 a 2.75,1.58771 120 0 1 0.5695,1.25889"
         id="path12606"
         inkscape:connector-curvature="0" />
      <path
         d="m 26.9417,-0.399574 a 1.5,0.866025 120 0 1 1.103,-1.910596"
         id="path12608"
         inkscape:connector-curvature="0" />
      <path
         id="path12610"
         d="M 25.5451,0.415365 3.88909,12.9184"
         inkscape:connector-curvature="0" />
      <path
         id="14"
         d="m 3.88909,12.0433 0,0.8751"
         inkscape:connector-curvature="0" />
      <path
         id="15"
         d="M 1.06066,11.2268 3.88909,9.59383"
         inkscape:connector-curvature="0" />
      <path
         id="16"
         d="m 3.88909,9.59383 0,-0.87511"
         inkscape:connector-curvature="0" />
      <path
         id="17"
         d="M 25.5451,-3.78436 3.88909,8.71872"
         inkscape:connector-curvature="0" />
      <path
         id="18"
         d="M -7.31802,-7.8993 -7.49533,-8.00167"
         inkscape:connector-curvature="0" />
      <path
         id="19"
         d="m 51.4067,-32.1291 -1.0607,0.6123"
         inkscape:connector-curvature="0" />
      <path
         id="20"
         d="M 37.7796,-24.2616 2.12132,-3.67423"
         inkscape:connector-curvature="0" />
      <path
         id="21"
         d="m 51.4067,-32.1291 -8.556,-4.9398"
         inkscape:connector-curvature="0" />
      <path
         d="m 41.5779,-37.8038 0.0752,0.0435 0.0823,0.0475 0.0884,0.051 0.0932,0.0538 0.097,0.056 0.0995,0.0575 0.1008,0.0581 0.1007,0.0582 0.0995,0.0575 0.097,0.0559 0.0933,0.0539 0.0883,0.051 0.0823,0.0475 0.0753,0.0435"
         id="path12620"
         inkscape:connector-curvature="0" />
      <path
         d="M -7.49533,-8.00167 -7.53001,-8.024 -7.56258,-8.04974 -7.59294,-8.07879 -7.62099,-8.11106 -7.64664,-8.14646 -7.66981,-8.18487 -7.69043,-8.22618 -7.70843,-8.27024 -7.72376,-8.31693 -7.73637,-8.3661 -7.74622,-8.41759 -7.75328,-8.47123 -7.75752,-8.52687 -7.75894,-8.58432"
         id="path12622"
         inkscape:connector-curvature="0" />
      <path
         d="m -7.75894,-8.58432 0.00142,-0.05909 0.00424,-0.06054 0.00706,-0.06179 0.00985,-0.06286 0.01261,-0.06373 0.01533,-0.06439 0.018,-0.06485 0.02062,-0.06511 0.02317,-0.06517 0.02565,-0.06502 0.02805,-0.06466 0.03036,-0.0641 0.03257,-0.06335 0.03468,-0.06238"
         id="path12624"
         inkscape:connector-curvature="0" />
      <path
         id="25"
         d="m 3.88909,-2.59499 0,-0.87512"
         inkscape:connector-curvature="0" />
      <path
         id="26"
         d="M 38.5828,-22.6254 3.88909,-2.59499"
         inkscape:connector-curvature="0" />
      <path
         id="27"
         d="m 51.4067,-32.1291 0,1.2247"
         inkscape:connector-curvature="0" />
      <path
         d="m -7.49533,-9.63466 -0.03468,-0.02002 -0.03257,-0.01881 -0.03036,-0.01752 -0.02805,-0.0162 -0.02565,-0.01481 -0.02317,-0.01337 -0.02062,-0.01191 -0.018,-0.01039 -0.01533,-0.00885 -0.01261,-0.00728 -0.00985,-0.00569 -0.00706,-0.00407 -0.00424,-0.00245 -0.00142,-8.2e-4"
         id="path12629"
         inkscape:connector-curvature="0" />
      <path
         d="m -7.75894,-9.78685 0.00142,8.2e-4 0.00424,0.00245 0.00706,0.00407 0.00985,0.00569 0.01261,0.00728 0.01533,0.00885 0.018,0.01039 0.02062,0.01191 0.02317,0.01337 0.02565,0.01481 0.02805,0.0162 0.03036,0.01752 0.03257,0.01881 0.03468,0.02002"
         id="path12631"
         inkscape:connector-curvature="0" />
      <path
         d="m 41.5779,-37.9671 0.0367,-0.0612 0.0385,-0.0599 0.0404,-0.0583 0.0419,-0.0567 0.0435,-0.0547 0.0449,-0.0526 0.0461,-0.0504 0.0471,-0.0481 0.0481,-0.0454 0.0489,-0.0428 0.0495,-0.04 0.05,-0.037 0.0503,-0.0339 0.0505,-0.0308"
         id="path12633"
         inkscape:connector-curvature="0" />
      <path
         d="m 42.2143,-38.6389 0.0504,-0.0275 0.0503,-0.0241 0.05,-0.0208 0.0495,-0.0172 0.0489,-0.0136 0.0481,-0.0101 0.0472,-0.0064 0.0461,-0.0028 0.0448,8e-4 0.0435,0.0045 0.042,0.0082 0.0403,0.0118 0.0386,0.0153 0.0367,0.0189"
         id="path12635"
         inkscape:connector-curvature="0" />
      <path
         id="32"
         d="m 42.8507,-38.7019 0,1.633"
         inkscape:connector-curvature="0" />
      <path
         id="33"
         d="M -5.40604,-8.83666 -5.51595,-8.90011"
         inkscape:connector-curvature="0" />
      <path
         d="m -5.40604,-8.83666 c 0.24394,0.14142 0.42508,0.30977 0.52502,0.47919 0.05245,0.08729 0.07815,0.17377 0.07708,0.25943 -0.00385,0.09058 -0.04452,0.18123 -0.16241,0.25009"
         id="path12639"
         inkscape:connector-curvature="0" />
      <path
         id="35"
         d="m -5.03706,-7.80713 0.07071,-0.04082"
         inkscape:connector-curvature="0" />
      <path
         id="36"
         d="m 2.20863,-3.62383 -7.24569,-4.1833"
         inkscape:connector-curvature="0" />
      <path
         id="37"
         d="M 2.20863,-3.62383 2.91574,-4.03207"
         inkscape:connector-curvature="0" />
      <path
         id="38"
         d="M 3.88909,-3.47011 2.91574,-4.03207"
         inkscape:connector-curvature="0" />
      <path
         d="m 2.91574,-4.03207 a 9.5,5.48483 -120 0 1 0.97335,1.43708"
         id="path12645"
         inkscape:connector-curvature="0" />
      <path
         id="40"
         d="m 51.4067,-30.9044 -9.4051,-5.43"
         inkscape:connector-curvature="0" />
      <path
         id="41"
         d="M -5.40604,4.22729 -5.51595,4.16383"
         inkscape:connector-curvature="0" />
      <path
         d="m -5.51595,-8.90011 a 10.5,6.06218 60 0 0 -0.44116,0.21509"
         id="path12649"
         inkscape:connector-curvature="0" />
      <path
         d="M -5.95711,-8.68502 A 10.5,6.06218 60 0 0 -5.51595,4.16383"
         id="path12651"
         inkscape:connector-curvature="0" />
      <path
         d="m -5.40604,4.22729 c 0.21443,0.12412 0.37996,0.26944 0.48511,0.41748"
         id="path12653"
         inkscape:connector-curvature="0" />
      <path
         d="m -4.92093,4.64477 c 0.07019,0.09719 0.1091,0.19412 0.11674,0.29078 0.00475,0.10123 -0.03142,0.2037 -0.16216,0.28044"
         id="path12655"
         inkscape:connector-curvature="0" />
      <path
         id="46"
         d="m -8.34438,5.79683 2.82843,-1.633"
         inkscape:connector-curvature="0" />
      <path
         d="M -8.78553,-7.05203 A 10.5,6.06218 60 0 0 -8.34438,5.79683"
         id="path12658"
         inkscape:connector-curvature="0" />
      <path
         id="48"
         d="M -5.03706,5.25682 -4.96635,5.21599"
         inkscape:connector-curvature="0" />
      <path
         d="m -6.12702,-7.43188 a 9.5,5.48483 -120 0 1 1.08996,-0.37525"
         id="path12661"
         inkscape:connector-curvature="0" />
      <path
         id="50"
         d="m 39.2831,-21.574 -0.1099,-0.0635"
         inkscape:connector-curvature="0" />
      <path
         d="m 38.732,-34.4863 a 10.5,6.06218 60 0 0 0.4412,12.8488"
         id="path12664"
         inkscape:connector-curvature="0" />
      <path
         d="m 39.2831,-21.574 c 0.2449,0.1408 0.5365,0.2454 0.83,0.3031 0.1512,0.0303 0.301,0.0451 0.4493,0.0445 0.1569,-0.0022 0.3139,-0.0257 0.4332,-0.0937"
         id="path12666"
         inkscape:connector-curvature="0" />
      <path
         id="53"
         d="m 42.0016,-23.2705 -2.8284,1.633"
         inkscape:connector-curvature="0" />
      <path
         d="m 42.0016,-36.3344 a 10.5,6.06218 60 0 0 -0.4411,0.2151"
         id="path12669"
         inkscape:connector-curvature="0" />
      <path
         d="m 41.5605,-36.1193 a 10.5,6.06218 60 0 0 0.4411,12.8488"
         id="path12671"
         inkscape:connector-curvature="0" />
      <path
         id="56"
         d="m 41.0663,-21.361 -0.0707,0.0409"
         inkscape:connector-curvature="0" />
      <path
         id="57"
         d="M -6.25736,7.00177 -8.34438,5.79683"
         inkscape:connector-curvature="0" />
      <path
         id="58"
         d="M 2.20863,9.44012 -5.03706,5.25682"
         inkscape:connector-curvature="0" />
      <path
         id="59"
         d="M 2.20863,9.44012 2.91574,9.03187"
         inkscape:connector-curvature="0" />
      <path
         id="60"
         d="M 3.88909,9.59383 2.91574,9.03187"
         inkscape:connector-curvature="0" />
      <path
         id="61"
         d="m 51.4067,-17.8405 -9.4051,-5.43"
         inkscape:connector-curvature="0" />
      <path
         id="62"
         d="m 42.0016,-20.821 -0.9353,-0.54"
         inkscape:connector-curvature="0" />
      <path
         id="63"
         d="m 51.4067,-17.8405 -2.1214,1.2248"
         inkscape:connector-curvature="0" />
      <path
         d="M 3.88909,8.71872 A 9.5,5.48483 -120 0 1 2.91574,9.03187"
         id="path12681"
         inkscape:connector-curvature="0" />
      <path
         d="M -8.34438,21.3103 A 10.5,6.06218 -120 0 1 -8.78553,8.46141"
         id="path12683"
         inkscape:connector-curvature="0" />
      <path
         id="66"
         d="M -6.25736,22.5152 -8.34438,21.3103"
         inkscape:connector-curvature="0" />
      <path
         d="m -8.78553,23.9748 a 10.5,6.06218 60 0 0 0.44115,12.8489"
         id="path12686"
         inkscape:connector-curvature="0" />
      <path
         id="68"
         d="m -6.69828,37.7741 -1.6461,-0.9504"
         inkscape:connector-curvature="0" />
      <path
         id="69"
         d="M 3.88909,46.7444 -7.49533,40.1716"
         inkscape:connector-curvature="0" />
      <path
         id="70"
         d="m -8.34438,21.3103 2.82843,-1.633"
         inkscape:connector-curvature="0" />
      <path
         d="M -5.51595,19.6773 A 10.5,6.06218 -120 0 1 -5.95711,6.82842"
         id="path12691"
         inkscape:connector-curvature="0" />
      <path
         d="m -5.95711,6.82842 a 10.5,6.06218 -120 0 1 0.44116,-0.2151"
         id="path12693"
         inkscape:connector-curvature="0" />
      <path
         id="73"
         d="M -5.40604,19.7407 -5.51595,19.6773"
         inkscape:connector-curvature="0" />
      <path
         d="m -5.40604,19.7407 c 0.21443,0.1241 0.37996,0.2695 0.48511,0.4175"
         id="path12696"
         inkscape:connector-curvature="0" />
      <path
         d="m -4.92093,20.1582 c 0.07019,0.0972 0.1091,0.1941 0.11674,0.2908 0.00475,0.1012 -0.03142,0.2037 -0.16216,0.2804"
         id="path12698"
         inkscape:connector-curvature="0" />
      <path
         id="76"
         d="m -5.03706,20.7703 0.07071,-0.0409"
         inkscape:connector-curvature="0" />
      <path
         id="77"
         d="M 2.20863,24.9536 -5.03706,20.7703"
         inkscape:connector-curvature="0" />
      <path
         id="78"
         d="m 1.06066,26.7403 2.82843,-1.633"
         inkscape:connector-curvature="0" />
      <path
         id="79"
         d="M 2.20863,24.9536 2.91574,24.5453"
         inkscape:connector-curvature="0" />
      <path
         id="80"
         d="M 3.88909,25.1073 2.91574,24.5453"
         inkscape:connector-curvature="0" />
      <path
         id="81"
         d="M -5.40604,6.67678 -5.51595,6.61332"
         inkscape:connector-curvature="0" />
      <path
         d="m -5.40604,6.67678 c 0.24394,0.14141 0.42508,0.30976 0.52502,0.47918 0.05245,0.08729 0.07815,0.17377 0.07708,0.25943 -0.00385,0.09058 -0.04452,0.18124 -0.16241,0.25009"
         id="path12706"
         inkscape:connector-curvature="0" />
      <path
         id="83"
         d="M -5.03706,7.70631 -4.96635,7.66548"
         inkscape:connector-curvature="0" />
      <path
         id="84"
         d="M 2.20863,11.8896 -5.03706,7.70631"
         inkscape:connector-curvature="0" />
      <path
         id="85"
         d="M 2.20863,11.8896 2.91574,11.4814"
         inkscape:connector-curvature="0" />
      <path
         id="86"
         d="M 3.88909,12.0433 2.91574,11.4814"
         inkscape:connector-curvature="0" />
      <path
         d="M 3.88909,12.9184 A 9.5,5.48483 60 0 0 2.91574,11.4814"
         id="path12712"
         inkscape:connector-curvature="0" />
      <path
         d="M 2.91574,24.5453 A 9.5,5.48483 60 0 0 3.88909,24.2322"
         id="path12714"
         inkscape:connector-curvature="0" />
      <path
         id="89"
         d="m 3.88909,24.2322 0,0.8751"
         inkscape:connector-curvature="0" />
      <path
         d="M -5.03706,7.70631 A 9.5,5.48483 60 0 0 -6.127,8.08154"
         id="path12717"
         inkscape:connector-curvature="0" />
      <path
         d="m -7.49533,38.5386 -0.03468,-0.02 -0.03257,-0.0188 -0.03036,-0.0175 -0.02805,-0.0162 -0.02565,-0.0148 -0.02317,-0.0134 -0.02062,-0.0119 -0.018,-0.0104 -0.01533,-0.0088 -0.01261,-0.0073 -0.00985,-0.0057 -0.00706,-0.0041 -0.00424,-0.0024 -0.00142,-9e-4"
         id="path12719"
         inkscape:connector-curvature="0" />
      <path
         d="m -7.75894,38.3864 0.00142,9e-4 0.00424,0.0024 0.00706,0.0041 0.00985,0.0057 0.01261,0.0073 0.01533,0.0088 0.018,0.0104 0.02062,0.0119 0.02317,0.0134 0.02565,0.0148 0.02805,0.0162 0.03036,0.0175 0.03257,0.0188 0.03468,0.02"
         id="path12721"
         inkscape:connector-curvature="0" />
      <path
         d="m -7.49533,40.1716 -0.03468,-0.0223 -0.03257,-0.0257 -0.03036,-0.0291 -0.02805,-0.0323 -0.02565,-0.0354 -0.02317,-0.0384 -0.02062,-0.0413 -0.018,-0.044 -0.01533,-0.0467 -0.01261,-0.0492 -0.00985,-0.0515 -0.00706,-0.0536 -0.00424,-0.0557 -0.00142,-0.0574"
         id="path12723"
         inkscape:connector-curvature="0" />
      <path
         d="m -7.75894,39.589 0.00142,-0.0591 0.00424,-0.0605 0.00706,-0.0618 0.00985,-0.0629 0.01261,-0.0637 0.01533,-0.0644 0.018,-0.0649 0.02062,-0.0651 0.02317,-0.0652 0.02565,-0.065 0.02805,-0.0646 0.03036,-0.0641 0.03257,-0.0634 0.03468,-0.0624"
         id="path12725"
         inkscape:connector-curvature="0" />
      <path
         id="95"
         d="M -7.49533,40.1716 42.8507,11.1044"
         inkscape:connector-curvature="0" />
      <path
         d="m 42.8507,11.1044 -0.0753,-0.0435 -0.0823,-0.0475 -0.0883,-0.051 -0.0933,-0.0539 -0.097,-0.0559 -0.0995,-0.0575 -0.1007,-0.0582 -0.1008,-0.0581 -0.0995,-0.0575 -0.097,-0.056 -0.0932,-0.0538 -0.0884,-0.051 -0.0823,-0.0475 -0.0752,-0.0435"
         id="path12728"
         inkscape:connector-curvature="0" />
      <path
         id="97"
         d="m 42.8507,11.1044 0,-1.63304"
         inkscape:connector-curvature="0" />
      <path
         d="m 41.5779,10.2062 0.0367,-0.0612 0.0385,-0.0599 0.0404,-0.0583 0.0419,-0.05666 0.0435,-0.05472 0.0449,-0.05265 0.0461,-0.05041 0.0471,-0.04802 0.0481,-0.04548 0.0489,-0.04278 0.0495,-0.03996 0.05,-0.03701 0.0503,-0.03394 0.0505,-0.03077"
         id="path12731"
         inkscape:connector-curvature="0" />
      <path
         d="m 42.2143,9.5344 0.0504,-0.0275 0.0503,-0.02414 0.05,-0.02072 0.0495,-0.01721 0.0489,-0.01366 0.0481,-0.01007 0.0472,-0.00644 0.0461,-0.0028 0.0448,8.6e-4 0.0435,0.00452 0.042,0.00815 0.0403,0.01176 0.0386,0.01534 0.0367,0.01887"
         id="path12733"
         inkscape:connector-curvature="0" />
      <path
         id="100"
         d="M 51.4067,0.122474 42.0016,-5.30753"
         inkscape:connector-curvature="0" />
      <path
         id="101"
         d="M 42.0016,7.75642 39.1732,9.38941"
         inkscape:connector-curvature="0" />
      <path
         d="m 42.0016,-5.30753 a 10.5,6.06218 60 0 0 -0.4411,0.2151"
         id="path12737"
         inkscape:connector-curvature="0" />
      <path
         d="M 41.5605,-5.09243 A 10.5,6.06218 60 0 0 42.0016,7.75642"
         id="path12739"
         inkscape:connector-curvature="0" />
      <path
         d="M 38.732,-3.45944 A 10.5,6.06218 60 0 0 39.1732,9.38941"
         id="path12741"
         inkscape:connector-curvature="0" />
      <path
         id="105"
         d="M 39.2831,9.45287 39.1732,9.38941"
         inkscape:connector-curvature="0" />
      <path
         d="m 39.2831,9.45287 c 0.2449,0.14084 0.5365,0.24542 0.83,0.30312 0.1512,0.03028 0.301,0.04512 0.4493,0.0445 0.1569,-0.00222 0.3139,-0.0257 0.4332,-0.09376"
         id="path12744"
         inkscape:connector-curvature="0" />
      <path
         id="107"
         d="M 41.0663,9.6659 40.9956,9.70673"
         inkscape:connector-curvature="0" />
      <path
         id="108"
         d="M 51.4067,13.1864 42.0016,7.75642"
         inkscape:connector-curvature="0" />
      <path
         id="109"
         d="M 41.5264,9.93154 41.0663,9.6659"
         inkscape:connector-curvature="0" />
      <path
         id="110"
         d="M 51.4067,13.1864 50.346,13.7988"
         inkscape:connector-curvature="0" />
      <path
         id="111"
         d="M -5.40604,22.1902 -5.51595,22.1268"
         inkscape:connector-curvature="0" />
      <path
         d="m -5.40604,22.1902 c 0.24394,0.1414 0.42508,0.3098 0.52502,0.4792 0.05245,0.0873 0.07815,0.1738 0.07708,0.2594 -0.00385,0.0906 -0.04452,0.1813 -0.16241,0.2501"
         id="path12751"
         inkscape:connector-curvature="0" />
      <path
         id="113"
         d="m -5.03706,23.2197 0.07071,-0.0408"
         inkscape:connector-curvature="0" />
      <path
         id="114"
         d="M 2.20863,27.403 -5.03706,23.2197"
         inkscape:connector-curvature="0" />
      <path
         id="115"
         d="M 2.20863,27.403 2.91574,26.9948"
         inkscape:connector-curvature="0" />
      <path
         id="116"
         d="M 3.88909,27.5568 2.91574,26.9948"
         inkscape:connector-curvature="0" />
      <path
         d="m 2.91574,26.9948 a 9.5,5.48483 -120 0 1 0.97335,1.4371"
         id="path12757"
         inkscape:connector-curvature="0" />
      <path
         id="118"
         d="m 3.88909,28.4319 0,-0.8751"
         inkscape:connector-curvature="0" />
      <path
         id="119"
         d="m -8.34438,36.8237 2.82843,-1.633"
         inkscape:connector-curvature="0" />
      <path
         d="m -5.51595,22.1268 a 10.5,6.06218 60 0 0 -0.44116,0.2151"
         id="path12761"
         inkscape:connector-curvature="0" />
      <path
         d="m -5.95711,22.3419 a 10.5,6.06218 60 0 0 0.44116,12.8488"
         id="path12763"
         inkscape:connector-curvature="0" />
      <path
         id="122"
         d="M -5.40604,35.2542 -5.51595,35.1907"
         inkscape:connector-curvature="0" />
      <path
         d="m -5.40604,35.2542 c 0.21443,0.1241 0.37996,0.2694 0.48511,0.4174"
         id="path12766"
         inkscape:connector-curvature="0" />
      <path
         d="m -4.92093,35.6716 c 0.07019,0.0972 0.1091,0.1942 0.11674,0.2908 0.00475,0.1012 -0.03142,0.2037 -0.16216,0.2805"
         id="path12768"
         inkscape:connector-curvature="0" />
      <path
         id="125"
         d="m -5.03706,36.2837 0.07071,-0.0408"
         inkscape:connector-curvature="0" />
      <path
         id="126"
         d="m -4.57696,36.5493 -0.4601,-0.2656"
         inkscape:connector-curvature="0" />
      <path
         id="127"
         d="m 51.4067,13.1864 0,1.2248"
         inkscape:connector-curvature="0" />
      <path
         id="128"
         d="M 51.4067,14.4112 42.8507,9.47136"
         inkscape:connector-curvature="0" />
      <path
         d="m -6.12702,23.595 a 9.5,5.48483 -120 0 1 1.08996,-0.3753"
         id="path12774"
         inkscape:connector-curvature="0" />
      <path
         id="130"
         d="M 0,16.3299 1.06066,15.7176"
         inkscape:connector-curvature="0" />
      <path
         id="131"
         d="m 1.06066,15.7176 0,4.0824"
         inkscape:connector-curvature="0" />
      <path
         id="132"
         d="M 1.06066,19.8 0,19.1877"
         inkscape:connector-curvature="0" />
      <path
         id="133"
         d="m 0,15.1052 1.06066,0.6124"
         inkscape:connector-curvature="0" />
      <path
         id="134"
         d="M 0,19.1877 0,15.1052"
         inkscape:connector-curvature="0" />
      <path
         id="135"
         d="m -3.88909,16.9423 0,-4.0825"
         inkscape:connector-curvature="0" />
      <path
         id="136"
         d="m -3.88909,12.8598 1.06066,0.6124"
         inkscape:connector-curvature="0" />
      <path
         id="137"
         d="m -3.88909,14.0846 1.06066,-0.6124"
         inkscape:connector-curvature="0" />
      <path
         id="138"
         d="M -2.82843,17.5547 -3.88909,16.9423"
         inkscape:connector-curvature="0" />
      <path
         id="139"
         d="m -2.82843,13.4722 0,4.0825"
         inkscape:connector-curvature="0" />
      <path
         id="140"
         d="m 1.06066,4.28661 0,-4.082486"
         inkscape:connector-curvature="0" />
      <path
         id="141"
         d="M 0,0.816497 1.06066,0.204124"
         inkscape:connector-curvature="0" />
      <path
         id="142"
         d="M 1.06066,0.204124 0,-0.408248"
         inkscape:connector-curvature="0" />
      <path
         id="143"
         d="M 0,3.67423 1.06066,4.28661"
         inkscape:connector-curvature="0" />
      <path
         id="144"
         d="M 0,-0.408248 0,3.67423"
         inkscape:connector-curvature="0" />
      <path
         id="145"
         d="m -3.88909,-2.65361 0,4.08248"
         inkscape:connector-curvature="0" />
      <path
         id="146"
         d="m -3.88909,1.42887 1.06066,0.61237"
         inkscape:connector-curvature="0" />
      <path
         id="147"
         d="m -3.88909,-1.42887 1.06066,-0.61237"
         inkscape:connector-curvature="0" />
      <path
         id="148"
         d="M -2.82843,-2.04124 -3.88909,-2.65361"
         inkscape:connector-curvature="0" />
      <path
         id="149"
         d="m -2.82843,2.04124 0,-4.08248"
         inkscape:connector-curvature="0" />
      <path
         id="150"
         d="m 1.06066,33.2945 0,-2.0635"
         inkscape:connector-curvature="0" />
      <path
         id="151"
         d="M 0,31.8434 1.06066,31.231"
         inkscape:connector-curvature="0" />
      <path
         id="152"
         d="M 1.06066,31.231 0,30.6186"
         inkscape:connector-curvature="0" />
      <path
         id="153"
         d="m 0,30.6186 0,3.2882"
         inkscape:connector-curvature="0" />
      <path
         id="154"
         d="m -3.88909,28.3733 0,4.0824"
         inkscape:connector-curvature="0" />
      <path
         id="155"
         d="m -3.88909,32.4557 1.06066,0.6124"
         inkscape:connector-curvature="0" />
      <path
         id="156"
         d="m -3.88909,29.598 1.06066,-0.6124"
         inkscape:connector-curvature="0" />
      <path
         id="157"
         d="M -2.82843,28.9856 -3.88909,28.3733"
         inkscape:connector-curvature="0" />
      <path
         id="158"
         d="m -2.82843,33.0681 0,-4.0825"
         inkscape:connector-curvature="0" />
      <path
         id="159"
         d="m 51.4067,-17.8405 0,2.4495"
         inkscape:connector-curvature="0" />
      <path
         id="160"
         d="M 38.5828,-7.112 26.9223,-0.379771"
         inkscape:connector-curvature="0" />
      <path
         id="161"
         d="M 37.1457,-10.482 26.9223,-4.5795"
         inkscape:connector-curvature="0" />
      <path
         id="162"
         d="m 51.4067,-15.391 -9.4051,-5.43"
         inkscape:connector-curvature="0" />
      <path
         id="163"
         d="m 42.0016,-7.75702 -2.8284,1.633"
         inkscape:connector-curvature="0" />
      <path
         d="M 42.0016,-7.75702 A 10.5,6.06218 -120 0 1 41.5605,-20.6059"
         id="path12810"
         inkscape:connector-curvature="0" />
      <path
         d="m 41.5605,-20.6059 a 10.5,6.06218 -120 0 1 0.4411,-0.2151"
         id="path12812"
         inkscape:connector-curvature="0" />
      <path
         d="M 39.1732,-6.12402 A 10.5,6.06218 -120 0 1 38.732,-18.9729"
         id="path12814"
         inkscape:connector-curvature="0" />
      <path
         id="167"
         d="M 39.2831,-6.06057 39.1732,-6.12402"
         inkscape:connector-curvature="0" />
      <path
         d="m 39.2831,-6.06057 c 0.2449,0.14084 0.5365,0.24542 0.83,0.30312 0.1512,0.03029 0.301,0.04512 0.4493,0.04451 0.1569,-0.00223 0.3139,-0.02571 0.4332,-0.09377"
         id="path12817"
         inkscape:connector-curvature="0" />
      <path
         id="169"
         d="m 41.0663,-5.84753 -0.0707,0.04082"
         inkscape:connector-curvature="0" />
      <path
         id="170"
         d="m 51.4067,-2.32702 -9.4051,-5.43"
         inkscape:connector-curvature="0" />
      <path
         id="171"
         d="m 42.0016,-5.30753 -0.9353,-0.54"
         inkscape:connector-curvature="0" />
      <path
         id="172"
         d="m 51.4067,-2.32702 -2.1214,1.22475"
         inkscape:connector-curvature="0" />
      <path
         id="173"
         d="M 25.5451,11.7291 3.88909,24.2322"
         inkscape:connector-curvature="0" />
      <path
         d="m 24.2891,14.5541 a 2.75,1.58771 120 0 1 1.256,-2.825"
         id="path12824"
         inkscape:connector-curvature="0" />
      <path
         d="M 25.5451,15.9288 A 2.75,1.58771 120 0 1 24.8587,15.8129"
         id="path12826"
         inkscape:connector-curvature="0" />
      <path
         d="M 24.8587,15.8129 A 2.75,1.58771 120 0 1 24.2891,14.5541"
         id="path12828"
         inkscape:connector-curvature="0" />
      <path
         id="177"
         d="M 25.5451,15.9288 3.88909,28.4319"
         inkscape:connector-curvature="0" />
      <path
         d="m 26.0757,15.8752 a 2.75,1.58771 120 0 1 2.0951,-3.7578"
         id="path12831"
         inkscape:connector-curvature="0" />
      <path
         d="m 28.1782,12.3087 a 2.75,1.58771 120 0 1 -1.2559,2.825"
         id="path12833"
         inkscape:connector-curvature="0" />
      <path
         d="m 26.9223,15.1337 c -0.0367,0.0794 -0.0867,0.163 -0.15,0.2508 -0.0837,0.1126 -0.2079,0.2511 -0.4079,0.3677"
         id="path12835"
         inkscape:connector-curvature="0" />
      <path
         d="m 25.5451,15.9288 c 0.0887,0.007 0.1872,0.0049 0.2956,-0.0064 0.1403,-0.0168 0.3227,-0.0553 0.5237,-0.1702"
         id="path12837"
         inkscape:connector-curvature="0" />
      <path
         d="m 25.5451,11.7291 c 0.0887,-0.0494 0.1872,-0.105 0.2956,-0.1667 0.038,-0.0217 0.0779,-0.0445 0.1197,-0.0684 0.1165,-0.0667 0.2576,-0.148 0.404,-0.2325"
         id="path12839"
         inkscape:connector-curvature="0" />
      <path
         d="m 26.9223,10.9339 c -0.0367,0.0231 -0.0867,0.0533 -0.15,0.0906 -0.0837,0.0495 -0.2079,0.1215 -0.4079,0.237"
         id="path12841"
         inkscape:connector-curvature="0" />
      <path
         d="m 26.9223,10.9339 a 2.75,1.58771 120 0 1 0.6864,0.1159"
         id="path12843"
         inkscape:connector-curvature="0" />
      <path
         d="m 27.6087,11.0498 a 2.75,1.58771 120 0 1 0.5695,1.2589"
         id="path12845"
         inkscape:connector-curvature="0" />
      <path
         d="m 26.9417,15.1139 a 1.5,0.866025 120 0 1 1.103,-1.9106"
         id="path12847"
         inkscape:connector-curvature="0" />
      <path
         id="187"
         d="M 37.1457,5.03143 26.9223,10.9339"
         inkscape:connector-curvature="0" />
      <path
         id="188"
         d="m 51.4067,0.122474 0,-2.449494"
         inkscape:connector-curvature="0" />
      <path
         id="189"
         d="M 38.5828,8.40143 26.9223,15.1337"
         inkscape:connector-curvature="0" />
      <path
         id="190"
         d="M 54.2351,-32.1291 42.8507,-38.7019"
         inkscape:connector-curvature="0" />
      <path
         id="191"
         d="m 54.2351,-32.1291 0,49.8063"
         inkscape:connector-curvature="0" />
      <path
         id="192"
         d="M 54.2351,17.6772 42.8507,11.1044"
         inkscape:connector-curvature="0" />
      <path
         id="193"
         d="m 49.2853,-8.04249 0,-4.08251"
         inkscape:connector-curvature="0" />
      <path
         id="194"
         d="m 49.2853,-12.125 -1.0606,-0.6123"
         inkscape:connector-curvature="0" />
      <path
         id="195"
         d="m 48.2247,-12.7373 0,4.08244"
         inkscape:connector-curvature="0" />
      <path
         id="196"
         d="m 48.2247,-8.65486 1.0606,0.61237"
         inkscape:connector-curvature="0" />
      <path
         id="197"
         d="m 44.3356,-14.9827 0,4.0825"
         inkscape:connector-curvature="0" />
      <path
         id="198"
         d="m 44.3356,-10.9002 1.0607,0.6123"
         inkscape:connector-curvature="0" />
      <path
         id="199"
         d="m 45.3963,-10.2879 0,-4.0824"
         inkscape:connector-curvature="0" />
      <path
         id="200"
         d="m 45.3963,-14.3703 -1.0607,-0.6124"
         inkscape:connector-curvature="0" />
      <path
         id="201"
         d="m 49.2853,-27.6384 0,4.0825"
         inkscape:connector-curvature="0" />
      <path
         id="202"
         d="m 48.2247,-28.2508 1.0606,0.6124"
         inkscape:connector-curvature="0" />
      <path
         id="203"
         d="m 48.2247,-24.1683 0,-4.0825"
         inkscape:connector-curvature="0" />
      <path
         id="204"
         d="m 49.2853,-23.5559 -1.0606,-0.6124"
         inkscape:connector-curvature="0" />
      <path
         id="205"
         d="m 44.3356,-26.4137 0,-4.0824"
         inkscape:connector-curvature="0" />
      <path
         id="206"
         d="m 45.3963,-25.8013 -1.0607,-0.6124"
         inkscape:connector-curvature="0" />
      <path
         id="207"
         d="m 45.3963,-29.8838 0,4.0825"
         inkscape:connector-curvature="0" />
      <path
         id="208"
         d="m 44.3356,-30.4961 1.0607,0.6123"
         inkscape:connector-curvature="0" />
      <path
         id="209"
         d="m 49.2853,3.38846 0,4.08248"
         inkscape:connector-curvature="0" />
      <path
         id="210"
         d="m 48.2247,2.77609 1.0606,0.61237"
         inkscape:connector-curvature="0" />
      <path
         id="211"
         d="m 48.2247,6.85857 0,-4.08248"
         inkscape:connector-curvature="0" />
      <path
         id="212"
         d="M 49.2853,7.47094 48.2247,6.85857"
         inkscape:connector-curvature="0" />
      <path
         id="213"
         d="m 44.3356,4.61321 0,-4.082487"
         inkscape:connector-curvature="0" />
      <path
         id="214"
         d="M 45.3963,5.22558 44.3356,4.61321"
         inkscape:connector-curvature="0" />
      <path
         id="215"
         d="m 45.3963,1.1431 0,4.08248"
         inkscape:connector-curvature="0" />
      <path
         id="216"
         d="M 44.3356,0.530723 45.3963,1.1431"
         inkscape:connector-curvature="0" />
      <path
         id="217"
         d="m 49.2853,-12.125 -1.0606,0.6124"
         inkscape:connector-curvature="0" />
      <path
         id="218"
         d="m 45.3963,-14.3703 -1.0607,0.6123"
         inkscape:connector-curvature="0" />
      <path
         id="219"
         d="m 49.2853,-27.6384 -1.0606,0.6124"
         inkscape:connector-curvature="0" />
      <path
         id="220"
         d="m 45.3963,-29.8838 -1.0607,0.6124"
         inkscape:connector-curvature="0" />
      <path
         id="221"
         d="M 49.2853,3.38846 48.2247,4.00083"
         inkscape:connector-curvature="0" />
      <path
         id="222"
         d="M 45.3963,1.1431 44.3356,1.75547"
         inkscape:connector-curvature="0" />
      <path
         id="223"
         d="M 54.2351,17.6772 29.4156,32.0067"
         inkscape:connector-curvature="0" />
      <path
         id="224"
         d="M 25.8801,34.0479 3.88909,46.7444"
         inkscape:connector-curvature="0" />
      <path
         id="225"
         d="m 12.3744,18.167 0,0.7076"
         inkscape:connector-curvature="0" />
      <path
         id="226"
         d="m 15.9011,13.6814 -1.4054,0.8114"
         inkscape:connector-curvature="0" />
      <path
         id="227"
         d="m 13.4424,12.6514 -1.068,0.6167"
         inkscape:connector-curvature="0" />
      <path
         id="228"
         d="m 12.3744,13.2681 0,2.4495"
         inkscape:connector-curvature="0" />
      <path
         id="229"
         d="M 12.3744,15.7176 10.253,16.9423"
         inkscape:connector-curvature="0" />
      <path
         id="230"
         d="m 10.253,16.9423 0,1.5357"
         inkscape:connector-curvature="0" />
      <path
         id="231"
         d="m 12.3744,3.36119 0,-0.70758"
         inkscape:connector-curvature="0" />
      <path
         id="232"
         d="m 14.4957,-1.02062 1.4054,-0.81139"
         inkscape:connector-curvature="0" />
      <path
         id="233"
         d="m 12.3744,-2.24537 1.068,-0.61662"
         inkscape:connector-curvature="0" />
      <path
         id="234"
         d="m 12.3744,0.204124 0,-2.449494"
         inkscape:connector-curvature="0" />
      <path
         id="235"
         d="M 10.253,1.42887 12.3744,0.204124"
         inkscape:connector-curvature="0" />
      <path
         id="236"
         d="m 10.253,2.96456 0,-1.53569"
         inkscape:connector-curvature="0" />
      <path
         d="M 9.46168,18.9349 A 9.5,5.48483 60 0 0 9.54594,17.7588"
         id="path12899"
         inkscape:connector-curvature="0" />
      <path
         d="M 9.54594,17.7588 A 9.5,5.48483 60 0 0 9.46168,16.4854"
         id="path12901"
         inkscape:connector-curvature="0" />
      <path
         id="239"
         d="M 10.253,16.9423 9.46168,16.4854"
         inkscape:connector-curvature="0" />
      <path
         id="240"
         d="M 9.46168,16.4854 11.583,15.2607"
         inkscape:connector-curvature="0" />
      <path
         id="241"
         d="M 12.3744,15.7176 11.583,15.2607"
         inkscape:connector-curvature="0" />
      <path
         id="242"
         d="M 12.3744,18.167 11.583,17.7102"
         inkscape:connector-curvature="0" />
      <path
         id="243"
         d="M 9.46168,18.9349 11.583,17.7102"
         inkscape:connector-curvature="0" />
      <path
         d="M 11.583,15.2607 A 9.5,5.48483 60 0 0 10.8658,12.3971"
         id="path12908"
         inkscape:connector-curvature="0" />
      <path
         id="245"
         d="m 12.3744,13.2681 -1.5086,-0.871"
         inkscape:connector-curvature="0" />
      <path
         d="M 10.8658,19.7456 A 9.5,5.48483 60 0 0 11.583,17.7102"
         id="path12911"
         inkscape:connector-curvature="0" />
      <path
         id="247"
         d="m 10.8658,12.3971 2.1213,-1.2247"
         inkscape:connector-curvature="0" />
      <path
         id="248"
         d="m 10.8658,19.7456 2.1213,-1.2248"
         inkscape:connector-curvature="0" />
      <path
         d="M 13.7043,14.0359 A 9.5,5.48483 60 0 0 12.9871,11.1724"
         id="path12915"
         inkscape:connector-curvature="0" />
      <path
         id="250"
         d="M 14.4957,14.4928 13.7043,14.0359"
         inkscape:connector-curvature="0" />
      <path
         d="m 12.9871,18.5208 a 9.5,5.48483 60 0 0 0.7172,-2.0354"
         id="path12918"
         inkscape:connector-curvature="0" />
      <path
         id="252"
         d="m 13.7043,14.0359 2.1213,-1.2247"
         inkscape:connector-curvature="0" />
      <path
         id="253"
         d="m 13.7043,16.4854 2.1213,-1.2247"
         inkscape:connector-curvature="0" />
      <path
         d="M 15.9099,14.0846 A 9.5,5.48483 60 0 0 15.8256,12.8112"
         id="path12922"
         inkscape:connector-curvature="0" />
      <path
         d="m 15.8256,15.2607 a 9.5,5.48483 60 0 0 0.0843,-1.1761"
         id="path12924"
         inkscape:connector-curvature="0" />
      <path
         d="m 15.9099,-1.42887 a 9.5,5.48483 -120 0 1 -0.0843,1.176096"
         id="path12926"
         inkscape:connector-curvature="0" />
      <path
         d="m 15.8256,-2.70226 a 9.5,5.48483 -120 0 1 0.0843,1.27339"
         id="path12928"
         inkscape:connector-curvature="0" />
      <path
         id="258"
         d="m 13.7043,-1.47752 2.1213,-1.22474"
         inkscape:connector-curvature="0" />
      <path
         id="259"
         d="m 14.4957,-1.02062 -0.7914,-0.4569"
         inkscape:connector-curvature="0" />
      <path
         d="m 12.9871,-4.34107 a 9.5,5.48483 -120 0 1 0.7172,2.86355"
         id="path12932"
         inkscape:connector-curvature="0" />
      <path
         id="261"
         d="m 10.8658,-3.11632 2.1213,-1.22475"
         inkscape:connector-curvature="0" />
      <path
         id="262"
         d="M 12.3744,-2.24537 10.8658,-3.11632"
         inkscape:connector-curvature="0" />
      <path
         d="m 10.8658,-3.11632 a 9.5,5.48483 -120 0 1 0.7172,2.863546"
         id="path12936"
         inkscape:connector-curvature="0" />
      <path
         id="264"
         d="M 12.3744,0.204124 11.583,-0.252774"
         inkscape:connector-curvature="0" />
      <path
         id="265"
         d="M 9.46168,0.97197 11.583,-0.252774"
         inkscape:connector-curvature="0" />
      <path
         id="266"
         d="M 10.253,1.42887 9.46168,0.97197"
         inkscape:connector-curvature="0" />
      <path
         d="m 9.46168,0.97197 a 9.5,5.48483 -120 0 1 0.08426,1.2734"
         id="path12941"
         inkscape:connector-curvature="0" />
      <path
         d="M 9.54594,2.24537 A 9.5,5.48483 -120 0 1 9.46168,3.42146"
         id="path12943"
         inkscape:connector-curvature="0" />
      <path
         id="269"
         d="M 9.46168,3.42146 11.583,2.19672"
         inkscape:connector-curvature="0" />
      <path
         id="270"
         d="M 12.3744,2.65361 11.583,2.19672"
         inkscape:connector-curvature="0" />
      <path
         d="M 11.583,2.19672 A 9.5,5.48483 -120 0 1 10.8658,4.23215"
         id="path12947"
         inkscape:connector-curvature="0" />
      <path
         id="272"
         d="M 10.8658,4.23215 12.9871,3.0074"
         inkscape:connector-curvature="0" />
      <path
         d="M 13.7043,0.97197 A 9.5,5.48483 -120 0 1 12.9871,3.0074"
         id="path12950"
         inkscape:connector-curvature="0" />
      <path
         id="274"
         d="m 13.7043,0.97197 2.1213,-1.224744"
         inkscape:connector-curvature="0" />
      <path
         d="m 2.20863,-3.62383 a 9.5,5.48483 -120 0 1 0.97335,1.43709"
         id="path12953"
         inkscape:connector-curvature="0" />
      <path
         d="M 3.18198,-2.18674 A 9.5,5.48483 -120 0 1 5.3033,4.69486"
         id="path12955"
         inkscape:connector-curvature="0" />
      <path
         d="M 5.3033,4.69486 A 9.5,5.48483 -120 0 1 3.67616,8.81679"
         id="path12957"
         inkscape:connector-curvature="0" />
      <path
         d="M 3.67616,24.3302 A 9.5,5.48483 60 0 0 5.3033,20.2083"
         id="path12959"
         inkscape:connector-curvature="0" />
      <path
         d="M 3.18198,13.3267 A 9.5,5.48483 60 0 0 2.20863,11.8896"
         id="path12961"
         inkscape:connector-curvature="0" />
      <path
         d="M 5.3033,20.2083 A 9.5,5.48483 60 0 0 3.18198,13.3267"
         id="path12963"
         inkscape:connector-curvature="0" />
      <path
         d="m 2.20863,27.403 a 9.5,5.48483 -120 0 1 0.97335,1.4371"
         id="path12965"
         inkscape:connector-curvature="0" />
      <path
         d="m 3.18198,28.8401 a 9.5,5.48483 -120 0 1 1.23424,2.517"
         id="path12967"
         inkscape:connector-curvature="0" />
      <path
         id="283"
         d="m 25.8801,31.5984 2.1213,-1.2247"
         inkscape:connector-curvature="0" />
      <path
         id="284"
         d="m 28.0014,30.3737 1.4142,0.8165"
         inkscape:connector-curvature="0" />
      <path
         id="285"
         d="m 29.4156,32.8232 0,-1.633"
         inkscape:connector-curvature="0" />
      <path
         id="286"
         d="m 25.8801,31.5984 0,2.4495"
         inkscape:connector-curvature="0" />
      <path
         id="287"
         d="M 28.0014,35.2727 25.8801,34.0479"
         inkscape:connector-curvature="0" />
      <path
         id="288"
         d="m 25.8801,34.0479 2.1213,-1.2247"
         inkscape:connector-curvature="0" />
      <path
         id="289"
         d="m 28.0014,30.3737 0,2.4495"
         inkscape:connector-curvature="0" />
      <path
         id="290"
         d="M 30.1227,33.2314 29.4156,32.8232"
         inkscape:connector-curvature="0" />
      <path
         id="291"
         d="m 30.1227,33.2314 0,0.8165"
         inkscape:connector-curvature="0" />
      <path
         id="292"
         d="m 28.0014,32.8232 2.1213,1.2247"
         inkscape:connector-curvature="0" />
      <path
         id="293"
         d="m 30.1227,34.0479 -2.1213,1.2248"
         inkscape:connector-curvature="0" />
    </g>
  </g>
</svg>
