<?xml version="1.0" encoding="UTF-8" standalone="no"?>
<svg
   xmlns:dc="http://purl.org/dc/elements/1.1/"
   xmlns:cc="http://creativecommons.org/ns#"
   xmlns:rdf="http://www.w3.org/1999/02/22-rdf-syntax-ns#"
   xmlns:svg="http://www.w3.org/2000/svg"
   xmlns="http://www.w3.org/2000/svg"
   xmlns:sodipodi="http://sodipodi.sourceforge.net/DTD/sodipodi-0.dtd"
   xmlns:inkscape="http://www.inkscape.org/namespaces/inkscape"
   version="1.1"
   width="361.94366"
   height="412.35397"
   viewBox="0 0 102.14855 116.37546"
   id="svg10465"
   inkscape:version="0.48.5 r10040"
   sodipodi:docname="Coupling.svg">
  <metadata
     id="metadata10555">
    <rdf:RDF>
      <cc:Work
         rdf:about="">
        <dc:format>image/svg+xml</dc:format>
        <dc:type
           rdf:resource="http://purl.org/dc/dcmitype/StillImage" />
        <dc:title></dc:title>
      </cc:Work>
    </rdf:RDF>
  </metadata>
  <sodipodi:namedview
     pagecolor="#ffffff"
     bordercolor="#666666"
     borderopacity="1"
     objecttolerance="10"
     gridtolerance="10"
     guidetolerance="10"
     inkscape:pageopacity="0"
     inkscape:pageshadow="2"
     inkscape:window-width="1366"
     inkscape:window-height="702"
     id="namedview10553"
     showgrid="false"
     fit-margin-top="20"
     fit-margin-left="20"
     fit-margin-right="20"
     fit-margin-bottom="20"
     inkscape:zoom="0.44853766"
     inkscape:cx="214.0811"
     inkscape:cy="269.76616"
     inkscape:window-x="0"
     inkscape:window-y="27"
     inkscape:window-maximized="1"
     inkscape:current-layer="svg10465" />
  <!-- Working space 0 0 297 210 -->
  <defs
     id="defs10467">
    <radialGradient
       id="radialGradient3661"
       gradientUnits="userSpaceOnUse"
       cy="29.149"
       cx="282.64999"
       gradientTransform="matrix(0.14777,0.23089,-0.2468,0.15795,-26.318,-62.617)"
       r="19.570999">
      <stop
         stop-color="#71b2f8"
         offset="0"
         id="stop10470" />
      <stop
         stop-color="#002795"
         offset="1"
         id="stop10472" />
    </radialGradient>
    <radialGradient
       id="radialGradient3817"
       gradientUnits="userSpaceOnUse"
       cy="33.900002"
       cx="270.57999"
       gradientTransform="matrix(0.26631,0.065024,-0.17931,0.73438,-60.668,-36.938)"
       r="19.570999">
      <stop
         stop-color="#ff6d0f"
         offset="0"
         id="stop10475" />
      <stop
         stop-color="#ff1000"
         offset="1"
         id="stop10477" />
    </radialGradient>
  </defs>
  <!-- Set display:none to hide FreeCAD Logo -->
  <g
     id="Ortho_1_1"
     transform="matrix(2,-3.4641016,3.4641016,2,124.61329,15.7298)">
    <g
       transform="scale(1,-1)"
       id="g10485"
       style="fill:none;stroke:#000000;stroke-width:0.0875;stroke-linecap:butt;stroke-linejoin:miter">
      <path
         id="1"
         d="m -24.5539,17.5777 0,-3.3115"
         inkscape:connector-curvature="0" />
      <path
         d="m -27.1949,12.4681 c 0.0549,-0.031 0.1225,-0.0538 0.2028,-0.0684 0.0833,-0.0131 0.184,-0.0192 0.3361,0.0075 0.122,0.0236 0.2759,0.0629 0.5129,0.1862 0.1674,0.0864 0.3871,0.2362 0.5707,0.397 0.2267,0.1967 0.4052,0.3952 0.5539,0.5814 0.1985,0.2499 0.3479,0.4846 0.4717,0.7074"
         id="path10488"
         inkscape:connector-curvature="0" />
      <path
         id="3"
         d="m -28.413,11.2081 4.5962,-2.65364"
         inkscape:connector-curvature="0" />
      <path
         id="4"
         d="m -23.913,19.0023 4.5962,-2.6536"
         inkscape:connector-curvature="0" />
      <path
         id="5"
         d="m -27.0061,0.58087 4.2426,-2.44949"
         inkscape:connector-curvature="0" />
      <path
         id="6"
         d="M -14.0061,23.0975 -9.76346,20.648"
         inkscape:connector-curvature="0" />
    </g>
    <g
       transform="scale(1,-1)"
       id="g10494"
       style="fill:none;stroke:#000000;stroke-width:0.0875;stroke-linecap:butt;stroke-linejoin:miter">
      <path
         d="m -22.981,16.9423 a 4.5,2.59808 60 0 1 -0.932,2.06"
         id="path10496"
         inkscape:connector-curvature="0" />
      <path
         d="m -23.913,19.0023 a 4.5,2.59808 60 0 1 -4.5,-7.7942"
         id="path10498"
         inkscape:connector-curvature="0" />
      <path
         d="m -28.413,11.2081 a 4.5,2.59808 60 0 1 5.432,5.7342"
         id="path10500"
         inkscape:connector-curvature="0" />
      <path
         d="m -24.4075,17.8939 c -0.0222,-0.0224 -0.0461,-0.0506 -0.0645,-0.0773 -0.0171,-0.0246 -0.0318,-0.05 -0.044,-0.0764 -0.0244,-0.0514 -0.037,-0.1056 -0.0379,-0.1625"
         id="path10502"
         inkscape:connector-curvature="0" />
      <path
         d="m -27.894,15.9126 c 0.0784,0.0108 0.1781,0.0047 0.299,-0.0183 0.0574,-0.0111 0.1197,-0.0276 0.1868,-0.0495 0.0716,-0.0238 0.1528,-0.0573 0.2213,-0.0968"
         id="path10504"
         inkscape:connector-curvature="0" />
      <path
         d="m -24.4075,14.3436 q -0.1088,-0.0152 -0.1393,-0.0644"
         id="path10506"
         inkscape:connector-curvature="0" />
      <path
         d="m -27.894,12.2989 c 0.0784,0.0811 0.1781,0.1424 0.299,0.184 0.0574,0.0195 0.1197,0.0303 0.1868,0.0325 0.0689,0.0013 0.1462,-0.011 0.2133,-0.0473"
         id="path10508"
         inkscape:connector-curvature="0" />
      <path
         id="8"
         d="m -24.5702,14.2372 -2.6167,1.5108"
         inkscape:connector-curvature="0" />
      <path
         d="m -11.3137,17.1464 a 13,7.50555 60 0 1 -2.6924,5.9511"
         id="path10511"
         inkscape:connector-curvature="0" />
      <path
         d="M -14.0061,23.0975 A 13,7.50555 60 0 1 -24.4187,19.1852"
         id="path10513"
         inkscape:connector-curvature="0" />
      <path
         d="M -28.8243,11.5546 A 13,7.50555 60 0 1 -27.0061,0.58087"
         id="path10515"
         inkscape:connector-curvature="0" />
      <path
         d="M -27.0061,0.58087 A 13,7.50555 60 0 1 -11.3137,17.1464"
         id="path10517"
         inkscape:connector-curvature="0" />
      <path
         d="m -18.5616,20.3104 a 2.75,1.58771 60 0 1 -0.5695,1.2588"
         id="path10519"
         inkscape:connector-curvature="0" />
      <path
         d="M -19.1311,21.5692 A 2.75,1.58771 60 0 1 -22.449,18.1571"
         id="path10521"
         inkscape:connector-curvature="0" />
      <path
         d="m -20.4271,16.9898 a 2.75,1.58771 60 0 1 1.8655,3.3206"
         id="path10523"
         inkscape:connector-curvature="0" />
      <path
         d="m -13.1144,12.4326 a 2.65926,1.53533 60 0 1 -0.5507,1.2173"
         id="path10525"
         inkscape:connector-curvature="0" />
      <path
         d="M -13.6651,13.6499 A 2.65926,1.53533 60 0 1 -16.3244,9.04396"
         id="path10527"
         inkscape:connector-curvature="0" />
      <path
         d="m -16.3244,9.04396 a 2.65926,1.53533 60 0 1 3.21,3.38864"
         id="path10529"
         inkscape:connector-curvature="0" />
      <path
         d="m -24.0025,6.1463 a 2.84952,1.64517 60 0 1 -0.5902,1.30444"
         id="path10531"
         inkscape:connector-curvature="0" />
      <path
         d="M -24.5927,7.45074 A 2.84952,1.64517 60 0 1 -27.4422,2.51523"
         id="path10533"
         inkscape:connector-curvature="0" />
      <path
         d="m -27.4422,2.51523 a 2.84952,1.64517 60 0 1 3.4397,3.63107"
         id="path10535"
         inkscape:connector-curvature="0" />
      <path
         d="M -7.07107,14.6969 A 13,7.50555 60 0 1 -9.76346,20.648"
         id="path10537"
         inkscape:connector-curvature="0" />
      <path
         d="M -22.7635,-1.86862 A 13,7.50555 60 0 1 -7.07107,14.6969"
         id="path10539"
         inkscape:connector-curvature="0" />
      <path
         d="m -18.5689,20.5017 a 2.75,1.58771 60 0 1 -2.1124,-3.3652"
         id="path10541"
         inkscape:connector-curvature="0" />
      <path
         d="M -13.1175,12.5571 A 2.65926,1.53533 60 0 1 -15.1042,9.11617"
         id="path10543"
         inkscape:connector-curvature="0" />
      <path
         d="M -24.0161,6.40816 A 2.84952,1.64517 60 0 1 -26.251,2.53719"
         id="path10545"
         inkscape:connector-curvature="0" />
      <path
         d="m -19.7981,17.5052 a 1.5,0.866025 -120 0 0 1.1031,1.9106"
         id="path10547"
         inkscape:connector-curvature="0" />
      <path
         d="m -14.2873,9.7436 a 1.5,0.866025 -120 0 0 1.0348,1.7924"
         id="path10549"
         inkscape:connector-curvature="0" />
      <path
         d="M -25.3039,3.21909 A 1.5,0.866025 -120 0 0 -24.1331,5.247"
         id="path10551"
         inkscape:connector-curvature="0" />
    </g>
  </g>
</svg>
