<?xml version="1.0" encoding="UTF-8" standalone="no"?>
<!-- Created with Inkscape (http://www.inkscape.org/) -->

<svg
   xmlns:dc="http://purl.org/dc/elements/1.1/"
   xmlns:cc="http://creativecommons.org/ns#"
   xmlns:rdf="http://www.w3.org/1999/02/22-rdf-syntax-ns#"
   xmlns:svg="http://www.w3.org/2000/svg"
   xmlns="http://www.w3.org/2000/svg"
   xmlns:sodipodi="http://sodipodi.sourceforge.net/DTD/sodipodi-0.dtd"
   xmlns:inkscape="http://www.inkscape.org/namespaces/inkscape"
   width="1959.7103"
   height="1245.2633"
   id="svg2"
   sodipodi:version="0.32"
   inkscape:version="0.48.5 r10040"
   version="1.0"
   sodipodi:docname="H_bridge.svg">
  <defs
     id="defs4">
    <marker
       inkscape:stockid="Arrow1Lend"
       orient="auto"
       refY="0.0"
       refX="0.0"
       id="Arrow1Lend"
       style="overflow:visible;">
      <path
         id="path4261"
         d="M 0.0,0.0 L 5.0,-5.0 L -12.5,0.0 L 5.0,5.0 L 0.0,0.0 z "
         style="fill-rule:evenodd;stroke:#000000;stroke-width:1.0pt;"
         transform="scale(0.8) rotate(180) translate(12.5,0)" />
    </marker>
    <marker
       inkscape:stockid="Arrow1Lstart"
       orient="auto"
       refY="0"
       refX="0"
       id="Arrow1Lstart"
       style="overflow:visible">
      <path
         id="path4636"
         d="M 0,0 5,-5 -12.5,0 5,5 0,0 z"
         style="fill-rule:evenodd;stroke:#000000;stroke-width:1pt;marker-start:none"
         transform="scale(0.8,0.8)"
         inkscape:connector-curvature="0" />
    </marker>
    <marker
       inkscape:stockid="Arrow2Lstart"
       orient="auto"
       refY="0"
       refX="0"
       id="Arrow2Lstart"
       style="overflow:visible">
      <path
         id="path4618"
         style="font-size:12px;fill-rule:evenodd;stroke-width:0.625;stroke-linejoin:round"
         d="M 8.7185878,4.0337352 -2.2072895,0.01601326 8.7185884,-4.0017078 c -1.7454984,2.3720609 -1.7354408,5.6174519 -6e-7,8.035443 z"
         transform="matrix(1.1,0,0,1.1,-5.5,0)"
         inkscape:connector-curvature="0" />
    </marker>
    <marker
       inkscape:stockid="Torso"
       orient="auto"
       refY="0"
       refX="0"
       id="Torso"
       style="overflow:visible">
      <g
         id="g4469"
         transform="scale(0.7,0.7)">
        <path
           id="path4471"
           d="m -4.7792281,-3.239542 c 2.350374,0.3659393 5.30026732,1.9375477 5.03715532,3.62748546 C -0.00518779,2.0778819 -2.2126741,2.6176539 -4.5630471,2.2517169 -6.9134221,1.8857769 -8.521035,0.75201414 -8.257922,-0.93792336 -7.994809,-2.6278615 -7.1296041,-3.6054813 -4.7792281,-3.239542 z"
           style="fill:none;stroke:#000000;stroke-width:1.25;marker-start:none;marker-mid:none;marker-end:none"
           inkscape:connector-curvature="0" />
        <path
           id="path4473"
           d="M 4.4598789,0.08866574 C -2.5564571,-4.378332 5.2248769,-3.9061806 -0.84829578,-8.7197331"
           style="fill:none;stroke:#000000;stroke-width:1pt;marker-end:none"
           inkscape:connector-curvature="0" />
        <path
           id="path4475"
           d="M 4.9298719,0.05752074 C -1.3872731,1.7494689 1.8027579,5.4782079 -4.9448731,7.5462725"
           style="fill:none;stroke:#000000;stroke-width:1pt;marker-start:none;marker-end:none"
           inkscape:connector-curvature="0" />
        <rect
           id="rect4477"
           transform="matrix(0.527536,-0.849533,0.887668,0.460484,0,0)"
           y="-1.7408575"
           x="-10.391706"
           height="2.7608147"
           width="2.6366582"
           style="fill-rule:evenodd;stroke-width:1pt;marker-end:none" />
        <rect
           id="rect4479"
           transform="matrix(0.671205,-0.741272,0.790802,0.612072,0,0)"
           y="-7.9629307"
           x="4.9587269"
           height="2.8614161"
           width="2.7327356"
           style="fill-rule:evenodd;stroke-width:1pt;marker-end:none" />
        <path
           id="path4481"
           transform="matrix(0,-1.109517,1.109517,0,25.96648,19.71619)"
           d="m 16.779951,-28.685045 c 0,0.335412 -0.271905,0.607317 -0.607317,0.607317 -0.335412,0 -0.607317,-0.271905 -0.607317,-0.607317 0,-0.335412 0.271905,-0.607318 0.607317,-0.607318 0.335412,0 0.607317,0.271906 0.607317,0.607318 z"
           sodipodi:ry="0.60731727"
           sodipodi:rx="0.60731727"
           sodipodi:cy="-28.685045"
           sodipodi:cx="16.172634"
           style="fill:#ff0000;fill-opacity:0.75;fill-rule:evenodd;stroke:#000000;stroke-width:1pt;marker-start:none;marker-end:none"
           sodipodi:type="arc" />
        <path
           id="path4483"
           transform="matrix(0,-1.109517,1.109517,0,26.8245,16.99126)"
           d="m 16.779951,-28.685045 c 0,0.335412 -0.271905,0.607317 -0.607317,0.607317 -0.335412,0 -0.607317,-0.271905 -0.607317,-0.607317 0,-0.335412 0.271905,-0.607318 0.607317,-0.607318 0.335412,0 0.607317,0.271906 0.607317,0.607318 z"
           sodipodi:ry="0.60731727"
           sodipodi:rx="0.60731727"
           sodipodi:cy="-28.685045"
           sodipodi:cx="16.172634"
           style="fill:#ff0000;fill-opacity:0.75;fill-rule:evenodd;stroke:#000000;stroke-width:1pt;marker-start:none;marker-end:none"
           sodipodi:type="arc" />
      </g>
    </marker>
  </defs>
  <sodipodi:namedview
     id="base"
     pagecolor="#ffffff"
     bordercolor="#666666"
     borderopacity="1.0"
     inkscape:pageopacity="0.0"
     inkscape:pageshadow="2"
     inkscape:zoom="0.35000001"
     inkscape:cx="1042.0163"
     inkscape:cy="635.47686"
     inkscape:document-units="mm"
     inkscape:current-layer="layer1"
     showgrid="true"
     inkscape:window-width="1366"
     inkscape:window-height="702"
     inkscape:window-x="0"
     inkscape:window-y="27"
     showguides="true"
     inkscape:guide-bbox="true"
     inkscape:grid-points="true"
     gridtolerance="0.5cm"
     inkscape:snap-page="false"
     units="mm"
     fit-margin-top="20"
     fit-margin-left="20"
     fit-margin-right="20"
     fit-margin-bottom="20"
     inkscape:window-maximized="1">
    <inkscape:grid
       id="GridFromPre046Settings"
       type="xygrid"
       originx="15.05282cm"
       originy="25.558444cm"
       spacingx="0.1cm"
       spacingy="0.1cm"
       color="#3f3fff"
       empcolor="#3f3fff"
       opacity="0.15"
       empopacity="0.38"
       empspacing="5"
       units="cm"
       visible="true"
       enabled="true"
       snapvisiblegridlinesonly="true" />
  </sodipodi:namedview>
  <metadata
     id="metadata7">
    <rdf:RDF>
      <cc:Work
         rdf:about="">
        <dc:format>image/svg+xml</dc:format>
        <dc:type
           rdf:resource="http://purl.org/dc/dcmitype/StillImage" />
        <cc:license
           rdf:resource="http://creativecommons.org/licenses/by-sa/2.0/" />
        <dc:title />
      </cc:Work>
      <cc:License
         rdf:about="http://creativecommons.org/licenses/by-sa/2.0/">
        <cc:permits
           rdf:resource="http://web.resource.org/cc/Reproduction" />
        <cc:permits
           rdf:resource="http://web.resource.org/cc/Distribution" />
        <cc:requires
           rdf:resource="http://web.resource.org/cc/Notice" />
        <cc:requires
           rdf:resource="http://web.resource.org/cc/Attribution" />
        <cc:permits
           rdf:resource="http://web.resource.org/cc/DerivativeWorks" />
        <cc:requires
           rdf:resource="http://web.resource.org/cc/ShareAlike" />
      </cc:License>
    </rdf:RDF>
  </metadata>
  <g
     inkscape:label="Layer 1"
     inkscape:groupmode="layer"
     id="layer1"
     transform="translate(533.36765,56.184611)">
    <path
       inkscape:connector-curvature="0"
       id="text4425-2-3"
       d="m 1077.1964,835.37867 12.0085,0 15.2002,40.53379 15.2799,-40.53379 12.0086,0 0,59.56393 -7.8594,0 0,-52.30295 -15.3598,40.85295 -8.0988,0 -15.3597,-40.85295 0,52.30295 -7.8195,0 0,-59.56393"
       style="font-size:12px;font-style:normal;font-variant:normal;font-weight:normal;font-stretch:normal;text-align:start;line-height:100%;writing-mode:lr-tb;text-anchor:start;fill:#000000;fill-opacity:1;stroke:none;font-family:Bitstream Vera Sans" />
    <g
       id="g12181"
       transform="translate(-14.749021,0)">
      <path
         inkscape:connector-curvature="0"
         style="fill:none;stroke:#b30000;stroke-width:3.61886382;stroke-linecap:butt;stroke-linejoin:round;stroke-miterlimit:4;stroke-opacity:1;stroke-dasharray:none"
         d="m 877.11002,88.86824 0,-72.377277 -434.51842,0 0,72.377277"
         id="path1313"
         sodipodi:nodetypes="cccc" />
      <path
         inkscape:connector-curvature="0"
         sodipodi:nodetypes="cccccccccc"
         id="path3536"
         d="m 479.03519,88.86824 -36.18862,108.56592 0,72.37728 144.75455,0 m 144.75455,0 144.75455,0 0,-72.37728 36.18865,-108.56592 0,0 0,0"
         style="fill:none;stroke:#b30000;stroke-width:3.61886382;stroke-linecap:butt;stroke-linejoin:round;stroke-miterlimit:4;stroke-opacity:1;stroke-dasharray:none" />
      <path
         inkscape:connector-curvature="0"
         style="fill:none;stroke:#b30000;stroke-width:3.61886382;stroke-linecap:butt;stroke-linejoin:round;stroke-miterlimit:4;stroke-opacity:1;stroke-dasharray:none"
         d="m 913.29887,342.18871 -36.18865,108.56593 1.02133,72.37727 -435.28498,0 0,-72.37727 35.1673,-108.56593"
         id="path3538"
         sodipodi:nodetypes="cccccc" />
      <path
         inkscape:connector-curvature="0"
         id="path3540"
         d="m 442.84657,342.18871 0,-72.37727 0,0"
         style="fill:none;stroke:#b30000;stroke-width:3.61886382;stroke-linecap:butt;stroke-linejoin:round;stroke-miterlimit:4;stroke-opacity:1;stroke-dasharray:none" />
      <path
         inkscape:connector-curvature="0"
         sodipodi:nodetypes="cc"
         id="path3542"
         d="m 877.11022,269.81144 0,72.37727"
         style="fill:none;stroke:#b30000;stroke-width:3.61886382;stroke-linecap:butt;stroke-linejoin:round;stroke-miterlimit:4;stroke-opacity:1;stroke-dasharray:none" />
      <path
         transform="matrix(1.6367715,0,0,1.6367715,-77.819537,-307.95596)"
         d="m 141.73229,352.55902 c 0,24.46143 -19.82991,44.29134 -44.291342,44.29134 -24.461431,0 -44.291339,-19.82991 -44.291339,-44.29134 0,-24.46143 19.829908,-44.29134 44.291339,-44.29134 24.461432,0 44.291342,19.82991 44.291342,44.29134 z"
         sodipodi:ry="44.29134"
         sodipodi:rx="44.29134"
         sodipodi:cy="352.55902"
         sodipodi:cx="97.440948"
         id="path3544"
         style="fill:none;stroke:#000000;stroke-width:2.21097684;stroke-linecap:round;stroke-linejoin:round;stroke-miterlimit:4;stroke-opacity:1;stroke-dasharray:none;stroke-dashoffset:0"
         sodipodi:type="arc" />
      <path
         inkscape:connector-curvature="0"
         sodipodi:nodetypes="ccccccccc"
         id="path4421"
         d="m 442.84657,16.490963 -361.886402,0 0,506.640947 361.886402,0 0,0 0,0 0,0 0,0 0,0"
         style="fill:none;stroke:#000000;stroke-width:3.61886382;stroke-linecap:butt;stroke-linejoin:round;stroke-miterlimit:4;stroke-opacity:1;stroke-dasharray:none" />
      <path
         transform="matrix(1.6367715,0,0,1.6367715,501.19876,-306.53816)"
         d="m 141.73229,352.55902 c 0,24.46143 -19.82991,44.29134 -44.291342,44.29134 -24.461431,0 -44.291339,-19.82991 -44.291339,-44.29134 0,-24.46143 19.829908,-44.29134 44.291339,-44.29134 24.461432,0 44.291342,19.82991 44.291342,44.29134 z"
         sodipodi:ry="44.29134"
         sodipodi:rx="44.29134"
         sodipodi:cy="352.55902"
         sodipodi:cx="97.440948"
         id="path4423"
         style="fill:none;stroke:#000000;stroke-width:2.21097684;stroke-linecap:round;stroke-linejoin:round;stroke-miterlimit:4;stroke-opacity:1;stroke-dasharray:none;stroke-dashoffset:0"
         sodipodi:type="arc" />
      <path
         inkscape:connector-curvature="0"
         id="text4425"
         d="m 633.43858,240.73837 12.00854,0 15.20016,40.53379 15.27996,-40.53379 12.00855,0 0,59.56393 -7.85942,0 0,-52.30295 -15.35975,40.85295 -8.09877,0 -15.35975,-40.85295 0,52.30295 -7.81952,0 0,-59.56393"
         style="font-size:12px;font-style:normal;font-variant:normal;font-weight:normal;font-stretch:normal;text-align:start;line-height:100%;writing-mode:lr-tb;text-anchor:start;fill:#000000;fill-opacity:1;stroke:none;font-family:Bitstream Vera Sans" />
      <path
         inkscape:connector-curvature="0"
         id="flowRoot4429"
         d="m 388.36278,133.28028 0,3.9297 c -1.52935,-0.73139 -2.97224,-1.27663 -4.32868,-1.63571 -1.35646,-0.35904 -2.66635,-0.53856 -3.92968,-0.53858 -2.19428,2e-5 -3.88984,0.42556 -5.08669,1.27665 -1.18357,0.85111 -1.77534,2.06128 -1.77534,3.63048 0,1.31657 0.39231,2.31395 1.17691,2.99215 0.7979,0.66494 2.30063,1.20353 4.50818,1.61578 l 2.43363,0.49869 c 3.00545,0.57186 5.21964,1.58254 6.64259,3.03204 1.43623,1.43627 2.15434,3.36455 2.15436,5.78486 -2e-5,2.88577 -0.97081,5.07337 -2.91236,6.56281 -1.9283,1.48941 -4.76088,2.23414 -8.49774,2.23414 -1.40966,0 -2.91237,-0.15959 -4.50819,-0.47875 -1.58252,-0.31917 -3.22489,-0.79126 -4.92709,-1.41629 l 0,-4.14913 c 1.63571,0.9176 3.23819,1.60911 4.80741,2.07457 1.56921,0.46544 3.11183,0.69818 4.62787,0.69816 2.30063,2e-5 4.07598,-0.45214 5.32606,-1.35644 1.25004,-0.90428 1.87504,-2.19423 1.87507,-3.86986 -3e-5,-1.46282 -0.45217,-2.6065 -1.35645,-3.43101 -0.891,-0.8245 -2.36048,-1.44287 -4.40844,-1.85514 l -2.45356,-0.47875 c -3.00547,-0.59842 -5.17977,-1.53595 -6.52291,-2.81263 -1.34317,-1.27663 -2.01473,-3.05198 -2.01473,-5.32604 0,-2.63307 0.92424,-4.70765 2.77273,-6.22369 1.86179,-1.516 4.42174,-2.27401 7.67989,-2.27404 1.39631,3e-5 2.81926,0.12636 4.2688,0.37901 1.44953,0.2527 2.93231,0.6317 4.44836,1.13702 m 9.13605,25.41341 6.58276,0 0,-22.72047 -7.16124,1.43625 0,-3.6704 7.12134,-1.43623 4.02943,0 0,26.39085 6.58276,0 0,3.3911 -17.15505,0 0,-3.3911" />
      <path
         inkscape:connector-curvature="0"
         id="flowRoot4437"
         d="m 388.36278,388.54879 0,3.9297 c -1.52935,-0.73139 -2.97224,-1.27663 -4.32868,-1.63571 -1.35646,-0.35904 -2.66635,-0.53856 -3.92968,-0.53858 -2.19428,2e-5 -3.88984,0.42556 -5.08669,1.27665 -1.18357,0.85111 -1.77534,2.06128 -1.77534,3.63048 0,1.31657 0.39231,2.31395 1.17691,2.99215 0.7979,0.66494 2.30063,1.20353 4.50818,1.61578 l 2.43363,0.49869 c 3.00545,0.57186 5.21964,1.58254 6.64259,3.03204 1.43623,1.43627 2.15434,3.36455 2.15436,5.78486 -2e-5,2.88577 -0.97081,5.07337 -2.91236,6.56281 -1.9283,1.48941 -4.76088,2.23414 -8.49774,2.23414 -1.40966,0 -2.91237,-0.15959 -4.50819,-0.47875 -1.58252,-0.31917 -3.22489,-0.79126 -4.92709,-1.41629 l 0,-4.14913 c 1.63571,0.9176 3.23819,1.60911 4.80741,2.07457 1.56921,0.46544 3.11183,0.69818 4.62787,0.69816 2.30063,2e-5 4.07598,-0.45214 5.32606,-1.35644 1.25004,-0.90428 1.87504,-2.19423 1.87507,-3.86986 -3e-5,-1.46282 -0.45217,-2.6065 -1.35645,-3.43101 -0.891,-0.8245 -2.36048,-1.44287 -4.40844,-1.85514 l -2.45356,-0.47875 c -3.00547,-0.59842 -5.17977,-1.53595 -6.52291,-2.81263 -1.34317,-1.27663 -2.01473,-3.05198 -2.01473,-5.32604 0,-2.63307 0.92424,-4.70765 2.77273,-6.22369 1.86179,-1.516 4.42174,-2.27401 7.67989,-2.27404 1.39631,3e-5 2.81926,0.12637 4.2688,0.37901 1.44953,0.2527 2.93231,0.6317 4.44836,1.13702 m 11.90878,25.41341 14.06316,0 0,3.3911 -18.91045,0 0,-3.3911 c 1.52931,-1.58252 3.61053,-3.70362 6.24364,-6.36334 2.64637,-2.67298 4.3087,-4.39512 4.98692,-5.16644 1.28995,-1.44953 2.1876,-2.67299 2.69295,-3.6704 0.51863,-1.01066 0.77794,-2.0014 0.77796,-2.97221 -2e-5,-1.5825 -0.55854,-2.87246 -1.6756,-3.86986 -1.10379,-0.99736 -2.54668,-1.49606 -4.32866,-1.49608 -1.26338,2e-5 -2.59986,0.21945 -4.00949,0.65829 -1.39636,0.43886 -2.89243,1.10378 -4.48825,1.99477 l 0,-4.06935 c 1.62241,-0.65159 3.13844,-1.14364 4.54808,-1.47613 1.40963,-0.33243 2.69958,-0.49866 3.86987,-0.49869 3.08524,3e-5 5.54544,0.77134 7.38066,2.31394 1.83516,1.54265 2.75276,3.60391 2.75278,6.18379 -2e-5,1.22349 -0.23274,2.3871 -0.69816,3.49085 -0.45218,1.09051 -1.28334,2.38046 -2.49348,3.86988 -0.33248,0.38565 -1.3897,1.50273 -3.17168,3.3512 -1.78201,1.8352 -4.29542,4.40847 -7.54025,7.71978" />
      <path
         inkscape:connector-curvature="0"
         id="flowRoot4445"
         d="m 822.62648,133.28028 0,3.9297 c -1.52935,-0.73139 -2.97224,-1.27663 -4.32868,-1.63571 -1.35646,-0.35904 -2.66635,-0.53856 -3.92968,-0.53858 -2.19428,2e-5 -3.88984,0.42556 -5.08669,1.27665 -1.18357,0.85111 -1.77534,2.06128 -1.77534,3.63048 0,1.31657 0.39231,2.31395 1.17691,2.99215 0.7979,0.66494 2.30063,1.20353 4.50818,1.61578 l 2.43363,0.49869 c 3.00545,0.57186 5.21964,1.58254 6.64259,3.03204 1.43623,1.43627 2.15434,3.36455 2.15436,5.78486 -2e-5,2.88577 -0.97081,5.07337 -2.91236,6.56281 -1.9283,1.48941 -4.76088,2.23414 -8.49774,2.23414 -1.40966,0 -2.91237,-0.15959 -4.50819,-0.47875 -1.58252,-0.31917 -3.22489,-0.79126 -4.92709,-1.41629 l 0,-4.14913 c 1.63571,0.9176 3.23819,1.60911 4.80741,2.07457 1.56921,0.46544 3.11183,0.69818 4.62787,0.69816 2.30063,2e-5 4.07598,-0.45214 5.32606,-1.35644 1.25004,-0.90428 1.87504,-2.19423 1.87507,-3.86986 -3e-5,-1.46282 -0.45217,-2.6065 -1.35645,-3.43101 -0.891,-0.8245 -2.36048,-1.44287 -4.40844,-1.85514 l -2.45356,-0.47875 c -3.00547,-0.59842 -5.17977,-1.53595 -6.52291,-2.81263 -1.34317,-1.27663 -2.01473,-3.05198 -2.01473,-5.32604 0,-2.63307 0.92424,-4.70765 2.77273,-6.22369 1.86179,-1.516 4.42174,-2.27401 7.67989,-2.27404 1.39631,3e-5 2.81926,0.12636 4.2688,0.37901 1.44953,0.2527 2.93231,0.6317 4.44836,1.13702 m 20.6459,12.74661 c 1.92826,0.41226 3.43097,1.27001 4.50818,2.57324 1.09045,1.30327 1.63569,2.91239 1.63571,4.82735 -2e-5,2.93898 -1.0107,5.21302 -3.03206,6.82214 -2.02139,1.60911 -4.89386,2.41367 -8.61742,2.41367 -1.25006,0 -2.54001,-0.12634 -3.86986,-0.37901 -1.31655,-0.23938 -2.67965,-0.60508 -4.08928,-1.09713 l 0,-3.88981 c 1.11707,0.65164 2.34053,1.14368 3.6704,1.47614 1.32982,0.33246 2.71952,0.49869 4.16906,0.49869 2.52669,0 4.44833,-0.49869 5.7649,-1.49608 1.32983,-0.99738 1.99475,-2.44693 1.99477,-4.34861 -2e-5,-1.75539 -0.61839,-3.12513 -1.85513,-4.10923 -1.22349,-0.99737 -2.93234,-1.49606 -5.12658,-1.49608 l -3.47091,0 0,-3.31132 3.6305,0 c 1.98145,2e-5 3.49749,-0.39229 4.54808,-1.17691 1.05056,-0.7979 1.57584,-1.94156 1.57586,-3.43101 -2e-5,-1.52931 -0.54524,-2.69957 -1.63571,-3.5108 -1.07719,-0.82448 -2.62645,-1.23675 -4.64782,-1.23677 -1.10378,2e-5 -2.28735,0.11972 -3.55069,0.35906 -1.26336,0.2394 -2.65305,0.61175 -4.16909,1.11708 l 0,-3.5906 c 1.52933,-0.42552 2.95892,-0.74468 4.28877,-0.95749 1.34314,-0.21274 2.6065,-0.31913 3.79007,-0.31916 3.05864,3e-5 5.47895,0.6982 7.26098,2.09451 1.78196,1.38307 2.67297,3.25816 2.67299,5.62526 -2e-5,1.64903 -0.47212,3.04538 -1.41629,4.18902 -0.94422,1.1304 -2.28736,1.915 -4.02943,2.35385" />
      <path
         inkscape:connector-curvature="0"
         id="flowRoot4453"
         d="m 822.62648,386.60071 0,3.92971 c -1.52935,-0.73139 -2.97224,-1.27664 -4.32868,-1.63571 -1.35646,-0.35904 -2.66635,-0.53857 -3.92968,-0.53859 -2.19428,2e-5 -3.88984,0.42557 -5.08669,1.27666 -1.18357,0.85111 -1.77534,2.06127 -1.77534,3.63048 0,1.31656 0.39231,2.31395 1.17691,2.99215 0.7979,0.66494 2.30063,1.20353 4.50818,1.61577 l 2.43363,0.4987 c 3.00545,0.57186 5.21964,1.58254 6.64259,3.03204 1.43623,1.43627 2.15434,3.36455 2.15436,5.78486 -2e-5,2.88577 -0.97081,5.07337 -2.91236,6.5628 -1.9283,1.48942 -4.76088,2.23415 -8.49774,2.23415 -1.40966,0 -2.91237,-0.15959 -4.50819,-0.47876 -1.58252,-0.31916 -3.22489,-0.79126 -4.92709,-1.41629 l 0,-4.14913 c 1.63571,0.9176 3.23819,1.60912 4.80741,2.07458 1.56921,0.46544 3.11183,0.69818 4.62787,0.69816 2.30063,2e-5 4.07598,-0.45214 5.32606,-1.35645 1.25004,-0.90428 1.87504,-2.19423 1.87507,-3.86985 -3e-5,-1.46282 -0.45217,-2.6065 -1.35645,-3.43102 -0.891,-0.82449 -2.36048,-1.44286 -4.40844,-1.85513 l -2.45356,-0.47876 c -3.00547,-0.59841 -5.17977,-1.53594 -6.52291,-2.81262 -1.34317,-1.27663 -2.01473,-3.05198 -2.01473,-5.32604 0,-2.63307 0.92424,-4.70765 2.77273,-6.22369 1.86179,-1.516 4.42174,-2.27401 7.67989,-2.27404 1.39631,3e-5 2.81926,0.12636 4.2688,0.379 1.44953,0.2527 2.93231,0.63171 4.44836,1.13702 m 19.50888,2.53338 -10.17335,15.89833 10.17335,0 0,-15.89833 m -1.05724,-3.51082 5.06673,0 0,19.40915 4.24885,0 0,3.35121 -4.24885,0 0,7.0216 -4.00949,0 0,-7.0216 -13.44479,0 0,-3.88979 12.38755,-18.87057" />
      <path
         inkscape:connector-curvature="0"
         id="path4461"
         d="m 185.85316,418.15506 0,-296.74683"
         style="fill:none;stroke:#000000;stroke-width:2.17131829;stroke-linecap:butt;stroke-linejoin:miter;stroke-miterlimit:4;stroke-opacity:1;marker-end:url(#Arrow1Lend)"
         sodipodi:nodetypes="cc" />
      <path
         inkscape:connector-curvature="0"
         id="flowRoot4652"
         d="m 209.68722,285.12617 -11.37021,-29.78196 4.20898,0 9.43527,25.07431 9.45521,-25.07431 4.18905,0 -11.35028,29.78196 -4.56802,0" />
      <path
         inkscape:connector-curvature="0"
         id="flowRoot4660"
         d="m 224.43845,279.5375 2.20222,0 0,13.40488 -2.20222,0 0,-13.40488 m 0,-5.21833 2.20222,0 0,2.7887 -2.20222,0 0,-2.7887 m 17.94098,10.5324 0,8.09081 -2.20222,0 0,-8.01899 c -2e-5,-1.26867 -0.24736,-2.21817 -0.74205,-2.84853 -0.49473,-0.63034 -1.23678,-0.94552 -2.22618,-0.94552 -1.18888,0 -2.12644,0.37901 -2.81262,1.13702 -0.68621,0.75802 -1.02931,1.7913 -1.02931,3.09988 l 0,7.57614 -2.21419,0 0,-13.40488 2.21419,0 0,2.08254 c 0.52661,-0.80586 1.145,-1.4083 1.85515,-1.80725 0.71811,-0.39895 1.54393,-0.59844 2.4775,-0.59844 1.53996,0 2.7049,0.47876 3.49483,1.43623 0.78993,0.94953 1.1849,2.34986 1.1849,4.20099" />
      <path
         inkscape:connector-curvature="0"
         id="text4425-2"
         d="m 171.85147,835.03777 12.00854,0 15.20016,40.53379 15.27996,-40.53379 12.00855,0 0,59.56393 -7.85942,0 0,-52.30295 -15.35975,40.85295 -8.09877,0 -15.35975,-40.85295 0,52.30295 -7.81952,0 0,-59.56393"
         style="font-size:12px;font-style:normal;font-variant:normal;font-weight:normal;font-stretch:normal;text-align:start;line-height:100%;writing-mode:lr-tb;text-anchor:start;fill:#000000;fill-opacity:1;stroke:none;font-family:Bitstream Vera Sans" />
    </g>
    <g
       transform="matrix(2.0247329,0,0,2.0247329,-497.27361,576.55668)"
       id="g12354">
      <path
         inkscape:connector-curvature="0"
         id="path4733"
         d="m 914.17323,177.16534 -17.71654,53.1496 0,35.43307 -212.02613,0.60556"
         style="fill:none;stroke:#000000;stroke-width:1.77165353;stroke-linecap:butt;stroke-linejoin:miter;stroke-miterlimit:4;stroke-opacity:1;stroke-dasharray:none"
         sodipodi:nodetypes="cccc" />
      <path
         inkscape:connector-curvature="0"
         style="fill:none;stroke:#da0000;stroke-width:1.77165353;stroke-linecap:butt;stroke-linejoin:round;stroke-miterlimit:4;stroke-opacity:1;stroke-dasharray:none"
         d="m 230.31496,17.716538 -0.0534,35.43307 7.08661,0"
         id="path1313-9"
         sodipodi:nodetypes="ccc" />
      <path
         inkscape:connector-curvature="0"
         sodipodi:nodetypes="cccccc"
         id="path3536-3"
         d="m 233.85827,53.149608 -3.48984,54.035432 0,35.43307 70.86614,0 m 70.86614,0 70.86614,0"
         style="fill:none;stroke:#da0000;stroke-width:1.77165353;stroke-linecap:butt;stroke-linejoin:round;stroke-miterlimit:4;stroke-opacity:1;stroke-dasharray:none" />
      <path
         inkscape:connector-curvature="0"
         style="fill:none;stroke:#da0000;stroke-width:1.77165353;stroke-linecap:butt;stroke-linejoin:round;stroke-miterlimit:4;stroke-opacity:1;stroke-dasharray:none"
         d="m 446.45669,177.16536 -3.48984,54.03543 0.5,35.43307 -213.09842,0"
         id="path3538-6"
         sodipodi:nodetypes="cccc" />
      <path
         inkscape:connector-curvature="0"
         id="path3540-0"
         d="m 230.36843,178.05118 0,-35.43307 0,0"
         style="fill:none;stroke:#000000;stroke-width:1.77165353;stroke-linecap:butt;stroke-linejoin:round;stroke-miterlimit:4;stroke-opacity:1;stroke-dasharray:none" />
      <path
         inkscape:connector-curvature="0"
         sodipodi:nodetypes="ccc"
         id="path3542-6"
         d="m 442.96685,142.61811 -0.0535,34.54725 7.08661,0"
         style="fill:none;stroke:#da0000;stroke-width:1.77165353;stroke-linecap:butt;stroke-linejoin:round;stroke-miterlimit:4;stroke-opacity:1;stroke-dasharray:none" />
      <path
         transform="matrix(0.801299,0,0,0.801299,-24.52923,-140.2341)"
         d="m 141.73229,352.55902 c 0,24.46143 -19.82991,44.29134 -44.291342,44.29134 -24.461431,0 -44.291339,-19.82991 -44.291339,-44.29134 0,-24.46143 19.829908,-44.29134 44.291339,-44.29134 24.461432,0 44.291342,19.82991 44.291342,44.29134 z"
         sodipodi:ry="44.29134"
         sodipodi:rx="44.29134"
         sodipodi:cy="352.55902"
         sodipodi:cx="97.440948"
         id="path3544-2"
         style="fill:none;stroke:#000000;stroke-width:2.21097684;stroke-linecap:round;stroke-linejoin:round;stroke-miterlimit:4;stroke-opacity:1;stroke-dasharray:none;stroke-dashoffset:0"
         sodipodi:type="arc" />
      <path
         inkscape:connector-curvature="0"
         sodipodi:nodetypes="ccccccccc"
         id="path4421-6"
         d="m 230.31496,17.716538 -177.165354,0 0.05347,248.917322 177.165354,0 0,0 0,0 0,0 0,0 0,0"
         style="fill:none;stroke:#da0000;stroke-width:1.77165353;stroke-linecap:butt;stroke-linejoin:round;stroke-miterlimit:4;stroke-opacity:1;stroke-dasharray:none" />
      <path
         transform="matrix(0.801299,0,0,0.801299,258.9354,-139.54)"
         d="m 141.73229,352.55902 c 0,24.46143 -19.82991,44.29134 -44.291342,44.29134 -24.461431,0 -44.291339,-19.82991 -44.291339,-44.29134 0,-24.46143 19.829908,-44.29134 44.291339,-44.29134 24.461432,0 44.291342,19.82991 44.291342,44.29134 z"
         sodipodi:ry="44.29134"
         sodipodi:rx="44.29134"
         sodipodi:cy="352.55902"
         sodipodi:cx="97.440948"
         id="path4423-1"
         style="fill:none;stroke:#000000;stroke-width:2.21097684;stroke-linecap:round;stroke-linejoin:round;stroke-miterlimit:4;stroke-opacity:1;stroke-dasharray:none;stroke-dashoffset:0"
         sodipodi:type="arc" />
      <path
         inkscape:connector-curvature="0"
         id="path4461-7"
         d="m 104.55456,215.24132 0,-145.275586"
         style="fill:none;stroke:#000000;stroke-width:1.06299210000000000;stroke-linecap:butt;stroke-linejoin:miter;stroke-miterlimit:4;stroke-opacity:1;marker-end:url(#Arrow1Lend);marker-start:none"
         sodipodi:nodetypes="cc" />
      <path
         inkscape:connector-curvature="0"
         id="flowRoot4652-9"
         d="m 116.22278,150.1156 -5.56641,-14.58007 2.06055,0 4.61914,12.27539 4.6289,-12.27539 2.05079,0 -5.55665,14.58007 -2.23632,0" />
      <path
         inkscape:connector-curvature="0"
         id="flowRoot4660-2"
         d="m 123.4444,147.37961 1.07812,0 0,6.5625 -1.07812,0 0,-6.5625 m 0,-2.55469 1.07812,0 0,1.36524 -1.07812,0 0,-1.36524 m 8.7832,5.15625 0,3.96094 -1.07812,0 0,-3.92578 c -1e-5,-0.62109 -0.1211,-1.08593 -0.36328,-1.39453 -0.2422,-0.30859 -0.60548,-0.46289 -1.08985,-0.46289 -0.58203,0 -1.04102,0.18555 -1.37695,0.55664 -0.33594,0.3711 -0.50391,0.87695 -0.50391,1.51758 l 0,3.70898 -1.08398,0 0,-6.5625 1.08398,0 0,1.01953 c 0.25781,-0.39452 0.56055,-0.68945 0.90821,-0.88476 0.35156,-0.19531 0.75585,-0.29297 1.21289,-0.29297 0.7539,0 1.32421,0.23438 1.71093,0.70312 0.38672,0.46485 0.58008,1.1504 0.58008,2.05664" />
      <path
         inkscape:connector-curvature="0"
         style="fill:none;stroke:#dd0000;stroke-width:1.77165353;stroke-linecap:butt;stroke-linejoin:round;stroke-miterlimit:4;stroke-opacity:1;stroke-dasharray:none"
         d="m 902.94709,53.149589 -6.4904,0 0,-34.836751 -212.12692,0"
         id="path4701"
         sodipodi:nodetypes="cccc" />
      <path
         inkscape:connector-curvature="0"
         sodipodi:nodetypes="cccccc"
         id="path4703"
         d="m 684.45459,142.32858 70.86614,0 m 70.86614,0 70.86614,0 0,-35.43307 L 900,53.149589"
         style="fill:none;stroke:#dd0000;stroke-width:1.77165353;stroke-linecap:butt;stroke-linejoin:round;stroke-miterlimit:4;stroke-opacity:1;stroke-dasharray:none" />
      <path
         inkscape:connector-curvature="0"
         style="fill:none;stroke:#dd0000;stroke-width:1.77165353;stroke-linecap:butt;stroke-linejoin:round;stroke-miterlimit:4;stroke-opacity:1;stroke-dasharray:none"
         d="m 684.43254,267.2373 0.0221,-36.32604 2.94699,-53.74592"
         id="path4705"
         sodipodi:nodetypes="ccc" />
      <path
         inkscape:connector-curvature="0"
         sodipodi:nodetypes="ccc"
         id="path4707"
         d="m 690.94488,177.16534 -7.08661,0 0,-35.43307"
         style="fill:none;stroke:#dd0000;stroke-width:1.77165353;stroke-linecap:butt;stroke-linejoin:round;stroke-miterlimit:4;stroke-opacity:1;stroke-dasharray:none" />
      <path
         inkscape:connector-curvature="0"
         sodipodi:nodetypes="cc"
         id="path4709"
         d="m 897.05301,142.32858 0,35.43307"
         style="fill:none;stroke:#000000;stroke-width:1.77165353;stroke-linecap:butt;stroke-linejoin:round;stroke-miterlimit:4;stroke-opacity:1;stroke-dasharray:none" />
      <path
         transform="matrix(0.801299,0,0,0.801299,429.5569,-140.5236)"
         d="m 141.73229,352.55902 c 0,24.46143 -19.82991,44.29134 -44.291342,44.29134 -24.461431,0 -44.291339,-19.82991 -44.291339,-44.29134 0,-24.46143 19.829908,-44.29134 44.291339,-44.29134 24.461432,0 44.291342,19.82991 44.291342,44.29134 z"
         sodipodi:ry="44.29134"
         sodipodi:rx="44.29134"
         sodipodi:cy="352.55902"
         sodipodi:cx="97.440948"
         id="path4711"
         style="fill:none;stroke:#000000;stroke-width:2.21097684;stroke-linecap:round;stroke-linejoin:round;stroke-miterlimit:4;stroke-opacity:1;stroke-dasharray:none;stroke-dashoffset:0"
         sodipodi:type="arc" />
      <path
         inkscape:connector-curvature="0"
         sodipodi:nodetypes="ccccccccc"
         id="path4713"
         d="m 684.45459,18.312838 -177.16535,0 0,248.031492 177.16535,0 0,0 0,0 0,0 0,0 0,0"
         style="fill:none;stroke:#dd0000;stroke-width:1.77165353;stroke-linecap:butt;stroke-linejoin:round;stroke-miterlimit:4;stroke-opacity:1;stroke-dasharray:none" />
      <path
         transform="matrix(0.801299,0,0,0.801299,713.0215,-139.8295)"
         d="m 141.73229,352.55902 c 0,24.46143 -19.82991,44.29134 -44.291342,44.29134 -24.461431,0 -44.291339,-19.82991 -44.291339,-44.29134 0,-24.46143 19.829908,-44.29134 44.291339,-44.29134 24.461432,0 44.291342,19.82991 44.291342,44.29134 z"
         sodipodi:ry="44.29134"
         sodipodi:rx="44.29134"
         sodipodi:cy="352.55902"
         sodipodi:cx="97.440948"
         id="path4715"
         style="fill:none;stroke:#000000;stroke-width:2.21097684;stroke-linecap:round;stroke-linejoin:round;stroke-miterlimit:4;stroke-opacity:1;stroke-dasharray:none;stroke-dashoffset:0"
         sodipodi:type="arc" />
      <path
         inkscape:connector-curvature="0"
         id="path4719"
         d="m 558.64072,214.95179 0,-145.275582"
         style="fill:none;stroke:#000000;stroke-width:1.06299210000000000;stroke-linecap:butt;stroke-linejoin:miter;stroke-miterlimit:4;stroke-opacity:1;marker-start:none;marker-end:url(#Arrow1Lend)"
         sodipodi:nodetypes="cc" />
      <path
         inkscape:connector-curvature="0"
         id="path4721"
         d="m 570.30894,149.82607 -5.56641,-14.58007 2.06055,0 4.61914,12.27539 4.6289,-12.27539 2.05079,0 -5.55665,14.58007 -2.23632,0" />
      <path
         inkscape:connector-curvature="0"
         id="path4723"
         d="m 577.53056,147.09008 1.07812,0 0,6.5625 -1.07812,0 0,-6.5625 m 0,-2.55469 1.07812,0 0,1.36524 -1.07812,0 0,-1.36524 m 8.7832,5.15625 0,3.96094 -1.07812,0 0,-3.92578 c -10e-6,-0.62109 -0.1211,-1.08593 -0.36328,-1.39453 -0.2422,-0.30859 -0.60548,-0.46289 -1.08985,-0.46289 -0.58203,0 -1.04102,0.18555 -1.37695,0.55664 -0.33594,0.3711 -0.50391,0.87695 -0.50391,1.51758 l 0,3.70898 -1.08398,0 0,-6.5625 1.08398,0 0,1.01953 c 0.25781,-0.39452 0.56055,-0.68945 0.90821,-0.88476 0.35156,-0.19531 0.75585,-0.29297 1.21289,-0.29297 0.7539,0 1.32421,0.23438 1.71093,0.70312 0.38672,0.46485 0.58008,1.1504 0.58008,2.05664" />
      <path
         inkscape:connector-curvature="0"
         sodipodi:nodetypes="cccc"
         id="path4727"
         d="m 230.31496,17.716538 212.59843,0 0,35.43307 0,0"
         style="fill:none;stroke:#000000;stroke-width:1.77165353;stroke-linecap:butt;stroke-linejoin:miter;stroke-miterlimit:4;stroke-opacity:1;stroke-dasharray:none" />
      <path
         inkscape:connector-curvature="0"
         id="path4729"
         d="m 442.91339,141.73229 0,-53.149611 17.71653,-35.433071"
         style="fill:none;stroke:#000000;stroke-width:1.77165353;stroke-linecap:butt;stroke-linejoin:miter;stroke-miterlimit:4;stroke-opacity:1;stroke-dasharray:none" />
      <path
         inkscape:connector-curvature="0"
         id="path4731"
         d="m 248.0315,177.16536 -17.71654,53.1496 0,35.43307"
         style="fill:none;stroke:#000000;stroke-width:1.77165353;stroke-linecap:butt;stroke-linejoin:miter;stroke-miterlimit:4;stroke-opacity:1;stroke-dasharray:none" />
      <path
         inkscape:connector-curvature="0"
         id="path4735"
         d="m 683.85827,53.149589 0,-35.43307"
         style="fill:none;stroke:#000000;stroke-width:1.77165353;stroke-linecap:butt;stroke-linejoin:miter;stroke-miterlimit:4;stroke-opacity:1;stroke-dasharray:none" />
      <path
         inkscape:connector-curvature="0"
         id="path4737"
         d="m 701.5748,53.149589 -17.71653,53.149601 0,35.43308"
         style="fill:none;stroke:#000000;stroke-width:1.77165353;stroke-linecap:butt;stroke-linejoin:miter;stroke-miterlimit:4;stroke-opacity:1;stroke-dasharray:none" />
      <path
         inkscape:connector-curvature="0"
         sodipodi:nodetypes="cc"
         id="path4739"
         d="m 737.00787,194.88187 106.29922,0"
         style="fill:none;stroke:#000000;stroke-width:1.06299210000000000;stroke-linecap:butt;stroke-linejoin:miter;stroke-miterlimit:4;stroke-opacity:1;marker-end:none;marker-start:url(#Arrow1Lstart)" />
      <path
         inkscape:connector-curvature="0"
         sodipodi:nodetypes="cc"
         id="path4741"
         d="m 283.99606,195.41339 106.29922,0"
         style="fill:none;stroke:#000000;stroke-width:1.06225735000000010;stroke-linecap:butt;stroke-linejoin:miter;stroke-miterlimit:4;stroke-opacity:1;marker-end:url(#Arrow1Lend);stroke-dasharray:none;marker-start:none" />
      <path
         inkscape:connector-curvature="0"
         id="path4747"
         d="m 329.39255,216.14173 -5.56641,-14.58007 2.06055,0 4.61914,12.27539 4.6289,-12.27539 2.05079,0 -5.55665,14.58007 -2.23632,0" />
      <path
         inkscape:connector-curvature="0"
         id="path4749"
         d="m 336.61417,213.40574 1.07812,0 0,6.5625 -1.07812,0 0,-6.5625 m 0,-2.55469 1.07812,0 0,1.36524 -1.07812,0 0,-1.36524 m 8.7832,5.15625 0,3.96094 -1.07812,0 0,-3.92578 c -1e-5,-0.62109 -0.1211,-1.08593 -0.36328,-1.39453 -0.2422,-0.30859 -0.60548,-0.46289 -1.08985,-0.46289 -0.58203,0 -1.04102,0.18555 -1.37695,0.55664 -0.33594,0.3711 -0.50391,0.87695 -0.50391,1.51758 l 0,3.70898 -1.08398,0 0,-6.5625 1.08398,0 0,1.01953 c 0.25781,-0.39452 0.56055,-0.68945 0.90821,-0.88476 0.35156,-0.19531 0.75585,-0.29297 1.21289,-0.29297 0.7539,0 1.32421,0.23438 1.71093,0.70312 0.38672,0.46485 0.58008,1.1504 0.58008,2.05664" />
      <path
         inkscape:connector-curvature="0"
         id="path4751"
         d="m 782.93586,214.34578 -5.56641,-14.58007 2.06055,0 4.61914,12.27539 4.6289,-12.27539 2.05079,0 -5.55665,14.58007 -2.23632,0" />
      <path
         inkscape:connector-curvature="0"
         id="path4753"
         d="m 790.15748,211.60979 1.07812,0 0,6.5625 -1.07812,0 0,-6.5625 m 0,-2.55469 1.07812,0 0,1.36524 -1.07812,0 0,-1.36524 m 8.7832,5.15625 0,3.96094 -1.07812,0 0,-3.92578 c -10e-6,-0.62109 -0.1211,-1.08593 -0.36328,-1.39453 -0.2422,-0.30859 -0.60548,-0.46289 -1.08985,-0.46289 -0.58203,0 -1.04102,0.18555 -1.37695,0.55664 -0.33594,0.3711 -0.50391,0.87695 -0.50391,1.51758 l 0,3.70898 -1.08398,0 0,-6.5625 1.08398,0 0,1.01953 c 0.25781,-0.39452 0.56055,-0.68945 0.90821,-0.88476 0.35156,-0.19531 0.75585,-0.29297 1.21289,-0.29297 0.7539,0 1.32421,0.23438 1.71093,0.70312 0.38672,0.46485 0.58008,1.1504 0.58008,2.05664" />
    </g>
    <text
       xml:space="preserve"
       style="font-size:40px;font-style:normal;font-weight:normal;text-align:center;line-height:125%;letter-spacing:0px;word-spacing:0px;text-anchor:middle;fill:#000000;fill-opacity:1;stroke:none;font-family:Sans"
       x="1454.2856"
       y="579.54901"
       id="text12638"
       sodipodi:linespacing="125%"
       transform="translate(-533.36765,-56.184611)"><tspan
         sodipodi:role="line"
         id="tspan12640"
         x="1454.2856"
         y="579.54901">A.</tspan></text>
    <text
       xml:space="preserve"
       style="font-size:40px;font-style:normal;font-weight:normal;text-align:center;line-height:125%;letter-spacing:0px;word-spacing:0px;text-anchor:middle;fill:#000000;fill-opacity:1;stroke:none;font-family:Sans"
       x="450.91806"
       y="1114.7928"
       id="text12642"
       sodipodi:linespacing="125%"><tspan
         sodipodi:role="line"
         id="tspan12644"
         x="450.91806"
         y="1114.7928">B.</tspan></text>
    <text
       xml:space="preserve"
       style="font-size:40px;font-style:normal;font-weight:normal;text-align:center;line-height:125%;letter-spacing:0px;word-spacing:0px;text-anchor:middle;fill:#000000;fill-opacity:1;stroke:none;font-family:Sans"
       x="1366.6323"
       y="1116.1417"
       id="text12646"
       sodipodi:linespacing="125%"><tspan
         sodipodi:role="line"
         id="tspan12648"
         x="1366.6323"
         y="1116.1417">C.</tspan></text>
  </g>
</svg>
