<?xml version="1.0" encoding="UTF-8" standalone="no"?>
<svg
   xmlns:dc="http://purl.org/dc/elements/1.1/"
   xmlns:cc="http://creativecommons.org/ns#"
   xmlns:rdf="http://www.w3.org/1999/02/22-rdf-syntax-ns#"
   xmlns:svg="http://www.w3.org/2000/svg"
   xmlns="http://www.w3.org/2000/svg"
   xmlns:sodipodi="http://sodipodi.sourceforge.net/DTD/sodipodi-0.dtd"
   xmlns:inkscape="http://www.inkscape.org/namespaces/inkscape"
   version="1.1"
   width="551.23822"
   height="617.09308"
   viewBox="0 0 155.57168 174.15738"
   id="svg3484"
   inkscape:version="0.48.5 r10040"
   sodipodi:docname="image_omni_whell.svg">
  <metadata
     id="metadata3930">
    <rdf:RDF>
      <cc:Work
         rdf:about="">
        <dc:format>image/svg+xml</dc:format>
        <dc:type
           rdf:resource="http://purl.org/dc/dcmitype/StillImage" />
        <dc:title></dc:title>
      </cc:Work>
    </rdf:RDF>
  </metadata>
  <sodipodi:namedview
     pagecolor="#ffffff"
     bordercolor="#666666"
     borderopacity="1"
     objecttolerance="10"
     gridtolerance="10"
     guidetolerance="10"
     inkscape:pageopacity="0"
     inkscape:pageshadow="2"
     inkscape:window-width="1366"
     inkscape:window-height="702"
     id="namedview3928"
     showgrid="false"
     fit-margin-top="20"
     fit-margin-left="20"
     fit-margin-right="20"
     fit-margin-bottom="20"
     inkscape:zoom="0.63432805"
     inkscape:cx="346.17737"
     inkscape:cy="293.27021"
     inkscape:window-x="0"
     inkscape:window-y="27"
     inkscape:window-maximized="1"
     inkscape:current-layer="svg3484" />
  <!-- Working space 0 0 297 210 -->
  <defs
     id="defs3486">
    <radialGradient
       id="radialGradient3661"
       gradientUnits="userSpaceOnUse"
       cy="29.149"
       cx="282.64999"
       gradientTransform="matrix(0.14777,0.23089,-0.2468,0.15795,-26.318,-62.617)"
       r="19.570999">
      <stop
         stop-color="#71b2f8"
         offset="0"
         id="stop3489" />
      <stop
         stop-color="#002795"
         offset="1"
         id="stop3491" />
    </radialGradient>
    <radialGradient
       id="radialGradient3817"
       gradientUnits="userSpaceOnUse"
       cy="33.900002"
       cx="270.57999"
       gradientTransform="matrix(0.26631,0.065024,-0.17931,0.73438,-60.668,-36.938)"
       r="19.570999">
      <stop
         stop-color="#ff6d0f"
         offset="0"
         id="stop3494" />
      <stop
         stop-color="#ff1000"
         offset="1"
         id="stop3496" />
    </radialGradient>
  </defs>
  <!-- Set display:none to hide FreeCAD Logo -->
  <g
     id="Ortho_-1_1"
     transform="matrix(1,1.7320508,-1.7320508,1,75.452542,87.229317)">
    <g
       transform="scale(1,-1)"
       id="g3504"
       style="fill:none;stroke:#000000;stroke-width:0.175;stroke-linecap:butt;stroke-linejoin:miter">
      <path
         id="1"
         d="m -18.4099,-1.02062 0,2.44949"
         inkscape:connector-curvature="0" />
      <path
         id="2"
         d="m -7.96751,-16.6579 -2.12129,1.2248"
         inkscape:connector-curvature="0" />
      <path
         id="3"
         d="M -3.36091,13.0707 -3.53553,12.9699"
         inkscape:connector-curvature="0" />
      <path
         id="4"
         d="M 9.6391,-9.44597 9.46447,-9.54679"
         inkscape:connector-curvature="0" />
      <path
         id="5"
         d="m -4.76041,37.8868 -2.12132,1.2247"
         inkscape:connector-curvature="0" />
      <path
         id="6"
         d="m 30.4307,-25.5155 0,2.4495"
         inkscape:connector-curvature="0" />
      <path
         id="7"
         d="m -32.529,1.42662 -1.5,2.59807"
         inkscape:connector-curvature="0" />
      <path
         id="8"
         d="m -15.029,-28.8843 1.5,-2.598"
         inkscape:connector-curvature="0" />
      <path
         d="m -34.7023,19.8639 c 0.1426,0.6943 0.3603,1.4348 0.6399,2.1618 0.2793,0.7283 0.6204,1.4432 1.0024,2.1209 0.8328,1.4759 1.8542,2.7755 2.9685,3.8932 1.254,1.2566 2.6318,2.2936 4.0811,3.1311"
         id="path3514"
         inkscape:connector-curvature="0" />
      <path
         d="m -11.8723,33.0448 -0.243,0.0779"
         id="path3516"
         inkscape:connector-curvature="0" />
      <path
         d="m -17.1976,33.7535 c -1.4128,-0.0514 -2.7748,-0.2714 -4.0607,-0.6139 -1.7151,-0.4576 -3.3022,-1.1323 -4.7521,-1.9687"
         id="path3518"
         inkscape:connector-curvature="0" />
      <path
         d="m 22.6814,-26.8041 -0.054,-0.2494"
         id="path3520"
         inkscape:connector-curvature="0" />
      <path
         d="m 20.6326,-31.7703 c -0.751,-1.1979 -1.6224,-2.2673 -2.562,-3.2097 -1.2539,-1.2566 -2.6317,-2.2937 -4.081,-3.1311"
         id="path3522"
         inkscape:connector-curvature="0" />
      <path
         d="m -0.14849,-39.985 c 0.672598,-0.2237 1.42274,-0.4054 2.19214,-0.5268 0.77038,-0.1222 1.56002,-0.1843 2.33792,-0.1923 1.69453,-0.0167 3.33075,0.218 4.85589,0.6242 1.71514,0.4577 3.30224,1.1324 4.75214,1.9688"
         id="path3524"
         inkscape:connector-curvature="0" />
      <path
         d="m -17.5665,-30.0606 c -1.4417,0.9917 -2.9539,2.1566 -4.5912,3.674 -1.2463,1.1611 -2.5705,2.5233 -4.0029,4.3075 -0.545,0.6772 -1.0999,1.4221 -1.665,2.2346 -0.5623,0.8122 -1.1291,1.6965 -1.6632,2.6132 -0.5286,0.9051 -1.0189,1.8313 -1.4502,2.7221 -0.4306,0.8942 -0.8077,1.7479 -1.1312,2.5612 -0.8483,2.12591 -1.3825,3.95063 -1.779,5.60478 -0.5506,2.32494 -0.8215,4.32365 -0.9673,6.160464"
         id="path3526"
         inkscape:connector-curvature="0" />
      <path
         d="m -7.45658,-24.2236 q -0.08707,1.1395 -0.25754,2.3823"
         id="path3528"
         inkscape:connector-curvature="0" />
      <path
         d="m -10.6066,-11.4874 c -0.5428,1.2606 -1.2188,2.63909 -1.9994,4.00339 -0.418,0.73229 -0.8607,1.45103 -1.3069,2.12969 -0.4484,0.68032 -0.8947,1.31783 -1.3389,1.91253"
         id="path3530"
         inkscape:connector-curvature="0" />
      <path
         d="m -22.7721,4.23994 q -0.9911,0.76914 -1.9345,1.41429"
         id="path3532"
         inkscape:connector-curvature="0" />
      <path
         d="m -4.42684,40.5403 c 1.51806,0.0485 3.21588,-0.0214 5.141725,-0.3209 C 2.27332,39.9751 3.99078,39.5778 5.86186,38.9216 7.43107,38.3724 9.12149,37.6208 10.75,36.6898 c 1.6198,-0.9218 3.1317,-1.9955 4.4093,-3.072 1.5148,-1.2743 2.7332,-2.5517 3.7384,-3.7698 1.3218,-1.6063 2.2887,-3.1224 3.0434,-4.5313"
         id="path3534"
         inkscape:connector-curvature="0" />
      <path
         d="m 16.4477,-33.6001 c -1.5181,-0.0485 -3.2159,0.0214 -5.1418,0.321 -1.55841,0.2443 -3.27586,0.6415 -5.14695,1.2977 -1.5692,0.5493 -3.25962,1.3008 -4.88818,2.2318 -1.619758,0.9219 -3.13162,1.9955 -4.40924,3.072 -1.51481,1.2743 -2.73322,2.5517 -3.73839,3.7698 -1.32178,1.6063 -2.2887,3.1224 -3.04347,4.5313"
         id="path3536"
         inkscape:connector-curvature="0" />
      <path
         d="m 21.9411,-24.0851 c -0.717,1.339 -1.6264,2.7744 -2.8488,4.2924 -0.9908,1.2275 -2.1935,2.5162 -3.6973,3.8085 -1.2603,1.0844 -2.7564,2.1726 -4.3769,3.1174 -1.60824,0.9419 -3.29398,1.7144 -4.86504,2.2826 -1.86103,0.67466 -3.57648,1.09115 -5.13398,1.35259 -1.973533,0.32867 -3.71048,0.41411 -5.26172,0.37552"
         id="path3538"
         inkscape:connector-curvature="0" />
      <path
         d="m 32.8955,6.34322 c 0.8011,-1.29042 1.5894,-2.79574 2.2929,-4.61333 0.5677,-1.471809 1.0824,-3.1578 1.4496,-5.1063 0.309,-1.63359 0.5033,-3.4733 0.5113,-5.3492 0.0116,-1.86369 -0.1623,-3.70979 -0.4557,-5.35449 -0.3463,-1.949 -0.8433,-3.6429 -1.3956,-5.1225 -0.7303,-1.9478 -1.5597,-3.5432 -2.4025,-4.9013"
         id="path3540"
         inkscape:connector-curvature="0" />
      <path
         d="m -20.8747,0.596999 c -0.8011,1.290421 -1.5894,2.795741 -2.2929,4.613331 -0.5677,1.47181 -1.0823,3.1578 -1.4496,5.10627 -0.309,1.6336 -0.5033,3.4733 -0.5113,5.3492 -0.0116,1.8637 0.1623,3.7098 0.4558,5.3545 0.3462,1.9491 0.8432,3.6429 1.3956,5.1225 0.7302,1.9478 1.5596,3.5432 2.4024,4.9013"
         id="path3542"
         inkscape:connector-curvature="0" />
      <path
         d="m -9.79092,0.753814 c 0.7674,1.255526 1.52105,2.711986 2.19613,4.456516 0.56763,1.47181 1.08232,3.1578 1.44959,5.10627 0.30895,1.6336 0.50331,3.4733 0.51128,5.3492 0.01156,1.8637 -0.16231,3.7098 -0.45576,5.3545 -0.34622,1.9491 -0.84326,3.6429 -1.39558,5.1225 -0.73022,1.9478 -1.5597,3.5432 -2.40246,4.9013"
         id="path3544"
         inkscape:connector-curvature="0" />
    </g>
    <g
       transform="scale(1,-1)"
       id="g3546"
       style="fill:none;stroke:#000000;stroke-width:0.175;stroke-linecap:butt;stroke-linejoin:miter">
      <path
         d="m -18.3322,32.8127 a 2.5,1.44338 0 0 0 0.6545,0.6637"
         id="path3548"
         inkscape:connector-curvature="0" />
      <path
         id="path3550"
         d="m -17.6777,33.4764 0.7071,0.4082"
         inkscape:connector-curvature="0" />
      <path
         id="path3552"
         d="M -9.19239,31.4351 -13.435,33.8846"
         inkscape:connector-curvature="0" />
      <path
         d="m -16.9706,33.8846 a 2.5,1.44338 0 0 0 3.5356,0"
         id="path3554"
         inkscape:connector-curvature="0" />
      <path
         id="path3556"
         d="m -10.6066,35.5176 0,-3.266"
         inkscape:connector-curvature="0" />
      <path
         id="path3558"
         d="m -13.435,-4.49073 -4.2427,2.44949"
         inkscape:connector-curvature="0" />
      <path
         d="m -13.435,-4.49073 a 4,2.3094 120 0 0 2.8284,-4.89898"
         id="path3560"
         inkscape:connector-curvature="0" />
      <path
         id="path3562"
         d="m -10.6066,-14.2887 0,4.89899"
         inkscape:connector-curvature="0" />
      <path
         id="9"
         d="m 22.6274,-25.3114 2.8284,-1.633"
         inkscape:connector-curvature="0" />
      <path
         id="10"
         d="m 15.5563,-6.43292 0,0.58284"
         inkscape:connector-curvature="0" />
      <path
         id="11"
         d="m 15.5563,6.66658 0,0.58284"
         inkscape:connector-curvature="0" />
      <path
         id="12"
         d="M 14.0564,9.84748 13.5516,10.1389"
         inkscape:connector-curvature="0" />
      <path
         id="13"
         d="M 2.71186,16.3972 2.20709,16.6887"
         inkscape:connector-curvature="0" />
      <path
         id="14"
         d="M -3.53553,13.3731 -3.3175,12.9955"
         inkscape:connector-curvature="0" />
      <path
         id="15"
         d="M 9.81373,-9.74844 9.59568,-9.37078"
         inkscape:connector-curvature="0" />
      <path
         d="m -9.19239,31.4351 a 4,2.3094 -60 0 1 2,-0.1981"
         id="path3571"
         inkscape:connector-curvature="0" />
      <path
         d="m -7.19239,31.237 a 4,2.3094 -60 0 1 0.82843,1.8311"
         id="path3573"
         inkscape:connector-curvature="0" />
      <path
         id="18"
         d="m -13.435,33.8846 0,-0.8023"
         inkscape:connector-curvature="0" />
      <path
         id="19"
         d="m -8.5446,28.6116 0.05932,-0.0342"
         inkscape:connector-curvature="0" />
      <path
         id="20"
         d="m -6.36396,37.9671 0,-4.899"
         inkscape:connector-curvature="0" />
      <path
         d="m -8.48528,28.5774 a 4,2.3094 120 0 0 2.82843,-4.899"
         id="path3578"
         inkscape:connector-curvature="0" />
      <path
         id="22"
         d="m -4.24264,36.7423 -2.12132,1.2248"
         inkscape:connector-curvature="0" />
      <path
         id="23"
         d="m -5.65685,23.6784 0,-6.6768"
         inkscape:connector-curvature="0" />
      <path
         id="24"
         d="m -5.65685,14.639 0,-13.00601"
         inkscape:connector-curvature="0" />
      <path
         id="25"
         d="m -4.24264,31.0269 0,5.7154"
         inkscape:connector-curvature="0" />
      <path
         d="m -8.48528,0 a 4,2.3094 -60 0 1 2,-0.198115"
         id="path3584"
         inkscape:connector-curvature="0" />
      <path
         d="M -6.48528,-0.198115 A 4,2.3094 -60 0 1 -5.65685,1.63299"
         id="path3586"
         inkscape:connector-curvature="0" />
      <path
         d="m -4.24264,31.0269 a 4,2.3094 -60 0 1 2.82843,-4.899"
         id="path3588"
         inkscape:connector-curvature="0" />
      <path
         id="29"
         d="M -13.435,2.85774 -8.48528,0"
         inkscape:connector-curvature="0" />
      <path
         id="30"
         d="M -1.41421,26.1279 17.6777,15.1052"
         inkscape:connector-curvature="0" />
      <path
         id="31"
         d="m -13.435,0.408248 0,2.449492"
         inkscape:connector-curvature="0" />
      <path
         d="M 20.5061,16.7382 A 4,2.3094 120 0 0 19.6777,14.9071"
         id="path3593"
         inkscape:connector-curvature="0" />
      <path
         d="m 19.6777,14.9071 a 4,2.3094 120 0 0 -2,0.1981"
         id="path3595"
         inkscape:connector-curvature="0" />
      <path
         id="34"
         d="M -9.19239,-2.04124 -13.435,0.408248"
         inkscape:connector-curvature="0" />
      <path
         id="35"
         d="m 20.5061,16.7382 0,1.7586"
         inkscape:connector-curvature="0" />
      <path
         d="m -9.19239,-2.04124 a 4,2.3094 120 0 0 2.82843,-4.89898"
         id="path3599"
         inkscape:connector-curvature="0" />
      <path
         id="37"
         d="m 22.0394,21.5684 0.588,-0.3395"
         inkscape:connector-curvature="0" />
      <path
         id="38"
         d="m -6.36396,-11.8392 0,4.89898"
         inkscape:connector-curvature="0" />
      <path
         id="39"
         d="m 22.6274,21.2289 0,-4.899"
         inkscape:connector-curvature="0" />
      <path
         id="40"
         d="m -4.24264,-13.0639 -2.12132,1.2247"
         inkscape:connector-curvature="0" />
      <path
         d="m 25.4558,11.431 a 4,2.3094 120 0 0 -2.8284,4.8989"
         id="path3605"
         inkscape:connector-curvature="0" />
      <path
         id="42"
         d="m -4.24264,-7.34847 0,-5.71543"
         inkscape:connector-curvature="0" />
      <path
         id="43"
         d="M 25.4558,11.431 29.6985,8.98146"
         inkscape:connector-curvature="0" />
      <path
         d="m -4.24264,-7.34847 a 4,2.3094 120 0 0 0.82843,1.83111"
         id="path3609"
         inkscape:connector-curvature="0" />
      <path
         d="m -3.41421,-5.51736 a 4,2.3094 120 0 0 2,-0.19812"
         id="path3611"
         inkscape:connector-curvature="0" />
      <path
         id="46"
         d="m 29.6985,8.98146 0,-0.67903"
         inkscape:connector-curvature="0" />
      <path
         id="47"
         d="M 17.6777,-16.7382 11.8958,-13.4"
         inkscape:connector-curvature="0" />
      <path
         id="48"
         d="M 9.84978,-12.2187 -1.41421,-5.71548"
         inkscape:connector-curvature="0" />
      <path
         id="49"
         d="m 26.2717,8.51042 -1.523,0.87929"
         inkscape:connector-curvature="0" />
      <path
         d="m 20.5061,-21.6372 a 4,2.3094 -60 0 1 -2.8284,4.899"
         id="path3617"
         inkscape:connector-curvature="0" />
      <path
         d="m 24.7487,9.38971 a 4,2.3094 -60 0 1 -2,0.19812"
         id="path3619"
         inkscape:connector-curvature="0" />
      <path
         d="M 22.7487,9.58783 A 4,2.3094 -60 0 1 21.9203,7.75672"
         id="path3621"
         inkscape:connector-curvature="0" />
      <path
         id="53"
         d="m 20.5061,-21.6372 0,-0.0685"
         inkscape:connector-curvature="0" />
      <path
         id="54"
         d="m 21.9203,7.75672 0,-22.04542"
         inkscape:connector-curvature="0" />
      <path
         id="55"
         d="m 21.9326,-28.1762 0.6948,-0.4012"
         inkscape:connector-curvature="0" />
      <path
         d="m 24.7487,-19.1877 a 4,2.3094 120 0 0 -2.8284,4.899"
         id="path3626"
         inkscape:connector-curvature="0" />
      <path
         id="57"
         d="m 22.6274,-28.5774 0,4.899"
         inkscape:connector-curvature="0" />
      <path
         id="58"
         d="m 29.6985,-22.0454 -4.9498,2.8577"
         inkscape:connector-curvature="0" />
      <path
         d="m 25.4558,-22.0454 a 4,2.3094 -60 0 1 -2,0.1981"
         id="path3630"
         inkscape:connector-curvature="0" />
      <path
         d="m 23.4558,-21.8473 a 4,2.3094 -60 0 1 -0.8284,-1.8311"
         id="path3632"
         inkscape:connector-curvature="0" />
      <path
         id="61"
         d="m 29.6985,-24.4949 0,2.4495"
         inkscape:connector-curvature="0" />
      <path
         id="62"
         d="m 25.4558,-22.0454 4.2427,-2.4495"
         inkscape:connector-curvature="0" />
      <path
         d="M 9.68464,6.24777 A 3,1.73205 -60 0 1 13.306,2.42495"
         id="path3636"
         inkscape:connector-curvature="0" />
      <path
         d="m 13.306,2.42495 a 3,1.73205 -60 0 1 -3,5.19615"
         id="path3638"
         inkscape:connector-curvature="0" />
      <path
         d="M 10.306,7.6211 A 3,1.73205 -60 0 1 9.68464,6.24777"
         id="path3640"
         inkscape:connector-curvature="0" />
      <path
         d="M 6.01041,1.02062 A 3,1.73205 -60 0 1 9.63173,-2.8022"
         id="path3642"
         inkscape:connector-curvature="0" />
      <path
         d="m 9.63173,-2.8022 a 3,1.73205 -60 0 1 -3,5.19615"
         id="path3644"
         inkscape:connector-curvature="0" />
      <path
         d="M 6.63173,2.39395 A 3,1.73205 -60 0 1 6.01041,1.02062"
         id="path3646"
         inkscape:connector-curvature="0" />
      <path
         d="M 2.33617,10.4904 A 3,1.73205 -60 0 1 5.95749,6.66759"
         id="path3648"
         inkscape:connector-curvature="0" />
      <path
         d="m 5.95749,6.66759 a 3,1.73205 -60 0 1 -3,5.19611"
         id="path3650"
         inkscape:connector-curvature="0" />
      <path
         d="M 2.95749,11.8637 A 3,1.73205 -60 0 1 2.33617,10.4904"
         id="path3652"
         inkscape:connector-curvature="0" />
      <path
         id="72"
         d="M -2.03555,24.0371 2.42513,16.311"
         inkscape:connector-curvature="0" />
      <path
         id="73"
         d="M -2.03555,24.0371 18.299,12.297"
         inkscape:connector-curvature="0" />
      <path
         d="m 2.42513,16.311 a 13,7.50555 120 0 0 5.7066,-1.0017"
         id="path3656"
         inkscape:connector-curvature="0" />
      <path
         id="75"
         d="M 18.299,12.297 13.8383,9.72159"
         inkscape:connector-curvature="0" />
      <path
         d="M 13.8383,9.72159 A 13,7.50555 -60 0 1 8.13173,15.3093"
         id="path3659"
         inkscape:connector-curvature="0" />
      <path
         d="M 17.3241,-0.612372 A 13,7.50555 -60 0 1 15.3383,7.12354"
         id="path3661"
         inkscape:connector-curvature="0" />
      <path
         d="M 17.3241,-0.612372 A 13,7.50555 120 0 0 15.3383,-6.05527"
         id="path3663"
         inkscape:connector-curvature="0" />
      <path
         id="79"
         d="M 19.799,9.69891 15.3383,7.12354"
         inkscape:connector-curvature="0" />
      <path
         id="80"
         d="m 19.799,-13.7814 -4.4607,7.72613"
         inkscape:connector-curvature="0" />
      <path
         id="81"
         d="m 19.799,9.69891 0,-23.48031"
         inkscape:connector-curvature="0" />
      <path
         id="82"
         d="m -2.03555,-2.90726 4.46068,2.57538"
         inkscape:connector-curvature="0" />
      <path
         id="83"
         d="M 18.299,-14.6474 -2.03555,-2.90726"
         inkscape:connector-curvature="0" />
      <path
         d="M 2.42513,-0.33188 A 13,7.50555 -60 0 1 8.13173,-5.9196"
         id="path3670"
         inkscape:connector-curvature="0" />
      <path
         id="85"
         d="m 18.299,-14.6474 -4.4607,7.72611"
         inkscape:connector-curvature="0" />
      <path
         d="M 13.8383,-6.92129 A 13,7.50555 120 0 0 8.13173,-5.9196"
         id="path3673"
         inkscape:connector-curvature="0" />
      <path
         id="87"
         d="m -3.53553,23.1711 0,-23.480299"
         inkscape:connector-curvature="0" />
      <path
         id="88"
         d="M -3.53553,23.1711 0.925145,15.445"
         inkscape:connector-curvature="0" />
      <path
         id="89"
         d="M -3.53553,-0.309199 0.925145,2.26618"
         inkscape:connector-curvature="0" />
      <path
         d="M -1.06066,10.0021 A 13,7.50555 120 0 0 0.925145,15.445"
         id="path3678"
         inkscape:connector-curvature="0" />
      <path
         d="M -1.06066,10.0021 A 13,7.50555 -60 0 1 0.925145,2.26618"
         id="path3680"
         inkscape:connector-curvature="0" />
      <path
         d="m -10.6066,35.5176 a 2.5,1.44338 -120 0 0 1.76777,3.0619"
         id="path3682"
         inkscape:connector-curvature="0" />
      <path
         id="93"
         d="m -8.83883,38.5795 0.7071,0.4082"
         inkscape:connector-curvature="0" />
      <path
         d="m -8.13173,38.9877 a 2.5,1.44338 -120 0 0 1.25,0.1238"
         id="path3685"
         inkscape:connector-curvature="0" />
      <path
         d="m -6.88173,39.1115 a 2.5,1.44338 -120 0 0 0.51777,-1.1444"
         id="path3687"
         inkscape:connector-curvature="0" />
      <path
         d="m -8.48528,37.3566 a 1,0.57735 -120 0 0 0.5,0.0495"
         id="path3689"
         inkscape:connector-curvature="0" />
      <path
         d="m -7.98528,37.4061 a 1,0.57735 -120 0 0 -1,-1.732"
         id="path3691"
         inkscape:connector-curvature="0" />
      <path
         d="m -8.98528,35.6741 a 1,0.57735 -120 0 0 0.5,1.6825"
         id="path3693"
         inkscape:connector-curvature="0" />
      <path
         id="99"
         d="m -6.55162,23.1618 0.89477,0.5166"
         inkscape:connector-curvature="0" />
      <path
         id="100"
         d="m -8.48528,0 2.82843,1.63299"
         inkscape:connector-curvature="0" />
      <path
         d="m -4.76041,37.8868 a 2.5,1.44338 -120 0 0 0.51777,-1.1445"
         id="path3697"
         inkscape:connector-curvature="0" />
      <path
         d="m -18.4099,1.42887 a 2.5,1.44338 0 0 0 0.7322,1.02062"
         id="path3699"
         inkscape:connector-curvature="0" />
      <path
         id="103"
         d="m -17.6777,2.44949 0.7071,0.40825"
         inkscape:connector-curvature="0" />
      <path
         d="m -16.9706,2.85774 a 2.5,1.44338 0 0 0 3.5356,0"
         id="path3702"
         inkscape:connector-curvature="0" />
      <path
         d="m -17.6777,-2.04124 a 2.5,1.44338 0 0 0 -0.7322,1.02062"
         id="path3704"
         inkscape:connector-curvature="0" />
      <path
         d="M -18.4099,-1.02062 A 2.5,1.44338 0 0 0 -17.6777,0"
         id="path3706"
         inkscape:connector-curvature="0" />
      <path
         id="107"
         d="m -17.6777,0 0.7071,0.408248"
         inkscape:connector-curvature="0" />
      <path
         d="m -16.9706,0.408248 a 2.5,1.44338 0 0 0 3.5356,0"
         id="path3709"
         inkscape:connector-curvature="0" />
      <path
         d="m -14.6741,-1.32587 a 1,0.57735 180 0 1 0.2929,0.40825"
         id="path3711"
         inkscape:connector-curvature="0" />
      <path
         d="m -14.3812,-0.91762 a 1,0.57735 180 0 1 -2,0"
         id="path3713"
         inkscape:connector-curvature="0" />
      <path
         d="m -16.3812,-0.91762 a 1,0.57735 180 0 1 1.7071,-0.40825"
         id="path3715"
         inkscape:connector-curvature="0" />
      <path
         d="m -10.6066,-14.2887 a 2.5,1.44338 60 0 1 0.5178,-1.1444"
         id="path3717"
         inkscape:connector-curvature="0" />
      <path
         d="m -10.0888,-15.4331 a 2.5,1.44338 60 0 1 1.24997,0.1238"
         id="path3719"
         inkscape:connector-curvature="0" />
      <path
         id="114"
         d="m -8.83883,-15.3093 0.7071,0.4082"
         inkscape:connector-curvature="0" />
      <path
         d="m -8.13173,-14.9011 a 2.5,1.44338 60 0 1 1.76777,3.0619"
         id="path3722"
         inkscape:connector-curvature="0" />
      <path
         d="m -8.48528,-12.0452 a 1,0.57735 -120 0 0 0.5,0.0495"
         id="path3724"
         inkscape:connector-curvature="0" />
      <path
         d="m -7.98528,-11.9957 a 1,0.57735 -120 0 0 -1,-1.732"
         id="path3726"
         inkscape:connector-curvature="0" />
      <path
         d="m -8.98528,-13.7277 a 1,0.57735 -120 0 0 0.5,1.6825"
         id="path3728"
         inkscape:connector-curvature="0" />
      <path
         d="m 22.2153,22.3011 a 2.5,1.44338 -120 0 0 0.4121,-1.0722"
         id="path3730"
         inkscape:connector-curvature="0" />
      <path
         d="m -7.96751,-16.6579 a 2.5,1.44338 60 0 1 1.25,0.1238"
         id="path3732"
         inkscape:connector-curvature="0" />
      <path
         id="121"
         d="m -6.71751,-16.5341 0.7071,0.4083"
         inkscape:connector-curvature="0" />
      <path
         d="m -6.01041,-16.1258 a 2.5,1.44338 60 0 1 1.76777,3.0619"
         id="path3735"
         inkscape:connector-curvature="0" />
      <path
         d="M 30.4209,8.08847 A 2.5,1.44338 180 0 1 29.6985,8.98146"
         id="path3737"
         inkscape:connector-curvature="0" />
      <path
         id="124"
         d="m -4.24264,-7.34847 2.82843,1.63299"
         inkscape:connector-curvature="0" />
      <path
         id="125"
         d="m 16.7829,-17.2548 0.8948,0.5166"
         inkscape:connector-curvature="0" />
      <path
         d="m 19.2505,-32.2825 a 2.5,1.44338 60 0 1 0.902,0.235"
         id="path3741"
         inkscape:connector-curvature="0" />
      <path
         id="127"
         d="m 20.1525,-32.0475 0.7072,0.4083"
         inkscape:connector-curvature="0" />
      <path
         d="m 20.8597,-31.6392 a 2.5,1.44338 60 0 1 1.7677,3.0618"
         id="path3744"
         inkscape:connector-curvature="0" />
      <path
         d="m 30.4307,-23.066 a 2.5,1.44338 180 0 1 -0.7322,1.0206"
         id="path3746"
         inkscape:connector-curvature="0" />
      <path
         d="m 25.4558,-26.9444 a 2.5,1.44338 180 0 1 3.5356,0"
         id="path3748"
         inkscape:connector-curvature="0" />
      <path
         id="131"
         d="m 28.9914,-26.9444 0.7071,0.4083"
         inkscape:connector-curvature="0" />
      <path
         d="m 29.6985,-26.5361 a 2.5,1.44338 180 0 1 0.7322,1.0206"
         id="path3751"
         inkscape:connector-curvature="0" />
      <path
         d="m 30.4307,-25.5155 a 2.5,1.44338 180 0 1 -0.7322,1.0206"
         id="path3753"
         inkscape:connector-curvature="0" />
      <path
         d="m 28.1091,-26.0268 a 1,0.57735 180 0 1 0.2929,0.4083"
         id="path3755"
         inkscape:connector-curvature="0" />
      <path
         d="m 28.402,-25.6185 a 1,0.57735 180 0 1 -2,0"
         id="path3757"
         inkscape:connector-curvature="0" />
      <path
         d="m 26.402,-25.6185 a 1,0.57735 180 0 1 1.7071,-0.4083"
         id="path3759"
         inkscape:connector-curvature="0" />
      <path
         d="m -3.53553,12.7903 a 13,7.50555 120 0 0 0.21803,0.2052"
         id="path3761"
         inkscape:connector-curvature="0" />
      <path
         d="M 9.59568,-9.37078 A 13,7.50555 120 0 0 9.30896,-9.45701"
         id="path3763"
         inkscape:connector-curvature="0" />
      <path
         d="m -1.81751,-2.78137 a 13,7.50555 -60 0 1 0.28673,-0.41731"
         id="path3765"
         inkscape:connector-curvature="0" />
      <path
         d="M -3.53553,0.273645 A 13,7.50555 -60 0 1 -3.3175,-0.183314"
         id="path3767"
         inkscape:connector-curvature="0" />
      <path
         id="141"
         d="M -3.3175,12.9955 0.925145,15.445"
         inkscape:connector-curvature="0" />
      <path
         id="142"
         d="m 9.59568,-9.37078 4.24262,2.44949"
         inkscape:connector-curvature="0" />
      <path
         d="M 12.134,2.41361 A 3,1.73205 -60 0 1 9.71016,6.61182"
         id="path3771"
         inkscape:connector-curvature="0" />
      <path
         d="M 8.45976,-2.81354 A 3,1.73205 -60 0 1 6.03592,1.38467"
         id="path3773"
         inkscape:connector-curvature="0" />
      <path
         d="M 4.78553,6.65625 A 3,1.73205 -60 0 1 2.36169,10.8545"
         id="path3775"
         inkscape:connector-curvature="0" />
      <path
         id="146"
         d="m -27.8891,19.1166 2.8007,-4.8509"
         inkscape:connector-curvature="0" />
      <path
         id="147"
         d="m -29.3891,18.2506 1.5,0.866"
         inkscape:connector-curvature="0" />
      <path
         id="148"
         d="m -26.3891,13.0544 -3,5.1962"
         inkscape:connector-curvature="0" />
      <path
         d="m -26.3891,13.0544 a 4,2.3094 120 0 0 0,-4.61879"
         id="path3780"
         inkscape:connector-curvature="0" />
      <path
         id="150"
         d="m -29.3891,6.70356 3,1.73205"
         inkscape:connector-curvature="0" />
      <path
         id="151"
         d="m -27.8891,4.10549 -1.5,2.59807"
         inkscape:connector-curvature="0" />
      <path
         id="152"
         d="m -24.3891,6.12621 -3.5,-2.02072"
         inkscape:connector-curvature="0" />
      <path
         d="m -24.3891,6.12621 a 4,2.3094 120 0 0 0.8219,0.18527"
         id="path3785"
         inkscape:connector-curvature="0" />
      <path
         d="m -6.88909,-24.1847 a 4,2.3094 -60 0 1 0.57138,0.6191"
         id="path3787"
         inkscape:connector-curvature="0" />
      <path
         id="155"
         d="m -6.88909,-24.1847 -3.50001,-2.0207"
         inkscape:connector-curvature="0" />
      <path
         id="156"
         d="m -10.3891,-26.2054 1.50001,-2.5981"
         inkscape:connector-curvature="0" />
      <path
         id="157"
         d="m -8.88909,-28.8035 3,1.7321"
         inkscape:connector-curvature="0" />
      <path
         id="158"
         d="m 2.61091,-33.711 -2.800655,4.8509"
         inkscape:connector-curvature="0" />
      <path
         d="m -1.88909,-29.3808 a 4,2.3094 -60 0 1 -4,2.3094"
         id="path3793"
         inkscape:connector-curvature="0" />
      <path
         id="160"
         d="m 1.11091,-34.577 1.5,0.866"
         inkscape:connector-curvature="0" />
      <path
         id="161"
         d="m -1.88909,-29.3808 3,-5.1962"
         inkscape:connector-curvature="0" />
      <path
         id="162"
         d="m -10.6066,-9.66285 -3.065,5.30869"
         inkscape:connector-curvature="0" />
      <path
         id="163"
         d="m -30.6317,10.6049 -3,5.1962"
         inkscape:connector-curvature="0" />
      <path
         d="m -30.6317,10.6049 a 4,2.3094 120 0 0 0,-4.61877"
         id="path3799"
         inkscape:connector-curvature="0" />
      <path
         d="m -28.6317,3.67672 a 4,2.3094 120 0 0 0.8209,0.18532"
         id="path3801"
         inkscape:connector-curvature="0" />
      <path
         d="m -11.1317,-26.6342 a 4,2.3094 -60 0 1 0.5709,0.6184"
         id="path3803"
         inkscape:connector-curvature="0" />
      <path
         d="m -6.13173,-31.8303 a 4,2.3094 -60 0 1 -3.99997,2.3094"
         id="path3805"
         inkscape:connector-curvature="0" />
      <path
         id="168"
         d="m -6.13173,-31.8303 3,-5.1962"
         inkscape:connector-curvature="0" />
      <path
         d="M 11.075,3.14556 A 1.5,0.866025 -60 0 1 9.81455,5.32873"
         id="path3808"
         inkscape:connector-curvature="0" />
      <path
         d="M 7.40078,-2.08159 A 1.5,0.866025 -60 0 1 6.14032,0.101585"
         id="path3810"
         inkscape:connector-curvature="0" />
      <path
         d="M 3.72654,7.3882 A 1.5,0.866025 -60 0 1 2.46608,9.57137"
         id="path3812"
         inkscape:connector-curvature="0" />
      <path
         d="m -30.9069,20.261 a 2.5,2.04124 -60 0 0 3.0178,-1.1444"
         id="path3814"
         inkscape:connector-curvature="0" />
      <path
         d="m -32.4069,19.395 a 2.5,2.04124 -60 0 0 3.0178,-1.1444"
         id="path3816"
         inkscape:connector-curvature="0" />
      <path
         id="174"
         d="m -32.4069,19.395 1.5,0.866"
         inkscape:connector-curvature="0" />
      <path
         d="m -33.6317,15.8011 a 2.5,2.04124 -60 0 0 0.5177,3.1857"
         id="path3819"
         inkscape:connector-curvature="0" />
      <path
         id="176"
         d="m -33.114,18.9868 0.7071,0.4082"
         inkscape:connector-curvature="0" />
      <path
         d="m -30.8866,15.9453 a 1,0.816497 120 0 1 -1,1.732"
         id="path3822"
         inkscape:connector-curvature="0" />
      <path
         d="m -31.8866,17.6773 a 1,0.816497 120 1 1 1,-1.732"
         id="path3824"
         inkscape:connector-curvature="0" />
      <path
         d="m -34.029,4.02469 0.005,0.00291 0.0151,0.00872 0.0251,0.01447 0.0349,0.02018 0.0447,0.02578 0.0541,0.03126 0.0634,0.03659 0.0723,0.04177 0.081,0.04673 0.0892,0.05149 0.097,0.05601 0.1044,0.06026 0.1112,0.06424 0.1176,0.06791"
         id="path3826"
         inkscape:connector-curvature="0" />
      <path
         id="180"
         d="m -33.114,4.55301 0.7071,0.40825"
         inkscape:connector-curvature="0" />
      <path
         d="m -32.4069,4.96126 0.2058,0.11881 0.219,0.12639 0.2292,0.13238 0.2368,0.13672 0.2413,0.13932 0.2428,0.14017 0.2413,0.13927 0.2366,0.13661 0.229,0.13224 0.2186,0.12619 0.2054,0.11857 0.1895,0.10945 0.1714,0.09896 0.1511,0.08722"
         id="path3829"
         inkscape:connector-curvature="0" />
      <path
         d="m -30.9069,2.36318 0.2058,0.11881 0.219,0.12639 0.2292,0.13239 0.2368,0.13671 0.2413,0.13932 0.2428,0.14017 0.2413,0.13927 0.2366,0.13662 0.229,0.13223 0.2186,0.1262 0.2054,0.11857 0.1895,0.10945 0.1714,0.09896 0.1511,0.08722"
         id="path3831"
         inkscape:connector-curvature="0" />
      <path
         d="m -32.529,1.42662 0.005,0.00291 0.0151,0.00871 0.0251,0.01448 0.0349,0.02017 0.0447,0.02578 0.0541,0.03126 0.0634,0.0366 0.0723,0.04176 0.081,0.04674 0.0892,0.05149 0.097,0.056 0.1044,0.06026 0.1112,0.06424 0.1176,0.06791"
         id="path3833"
         inkscape:connector-curvature="0" />
      <path
         id="184"
         d="m -28.6317,3.67672 0.7426,0.42877"
         inkscape:connector-curvature="0" />
      <path
         id="185"
         d="m -31.614,1.95493 0.7071,0.40825"
         inkscape:connector-curvature="0" />
      <path
         d="m -29.0205,3.45225 -0.0217,-0.01254 -0.0641,-0.03698 -0.1032,-0.05957 -0.1371,-0.07917 -0.1642,-0.0948 -0.183,-0.10568 -0.1928,-0.11126 -0.1927,-0.11126 -0.183,-0.10568 -0.1642,-0.09481 -0.1371,-0.07917 -0.1032,-0.05957 -0.0641,-0.03698 -0.0217,-0.01253"
         id="path3837"
         inkscape:connector-curvature="0" />
      <path
         d="m -15.029,-28.8843 0.005,0.0029 0.0151,0.0088 0.0251,0.0144 0.0349,0.0202 0.0447,0.0258 0.0541,0.0312 0.0634,0.0366 0.0723,0.0418 0.081,0.0467 0.0892,0.0515 0.097,0.056 0.1044,0.0603 0.1112,0.0642 0.1176,0.0679"
         id="path3839"
         inkscape:connector-curvature="0" />
      <path
         id="188"
         d="m -14.114,-28.356 0.7071,0.4083"
         inkscape:connector-curvature="0" />
      <path
         d="m -13.4069,-27.9477 0.2058,0.1188 0.219,0.1264 0.2292,0.1324 0.2368,0.1367 0.2413,0.1393 0.2428,0.1402 0.2413,0.1393 0.2366,0.1366 0.229,0.1322 0.2186,0.1262 0.2054,0.1186 0.1895,0.1094 0.1714,0.099 0.1511,0.0872"
         id="path3842"
         inkscape:connector-curvature="0" />
      <path
         d="m -11.9069,-30.5458 0.2058,0.1188 0.219,0.1264 0.2292,0.1324 0.2368,0.1367 0.2413,0.1393 0.2428,0.1402 0.2413,0.1393 0.2366,0.1366 0.22902,0.1322 0.21857,0.1262 0.20537,0.1186 0.18958,0.1094 0.1714,0.099 0.15107,0.0872"
         id="path3844"
         inkscape:connector-curvature="0" />
      <path
         d="m -13.529,-31.4823 0.005,0.0029 0.0151,0.0087 0.0251,0.0145 0.0349,0.0201 0.0447,0.0258 0.0541,0.0313 0.0634,0.0366 0.0723,0.0417 0.081,0.0468 0.0892,0.0515 0.097,0.056 0.1044,0.0602 0.1112,0.0643 0.1176,0.0679"
         id="path3846"
         inkscape:connector-curvature="0" />
      <path
         id="192"
         d="m -10.0205,-29.4567 1.13141,0.6532"
         inkscape:connector-curvature="0" />
      <path
         id="193"
         d="m -12.614,-30.954 0.7071,0.4082"
         inkscape:connector-curvature="0" />
      <path
         d="m -10.0205,-29.4567 -0.0217,-0.0126 -0.0641,-0.0369 -0.1032,-0.0596 -0.1371,-0.0792 -0.1642,-0.0948 -0.183,-0.1057 -0.1928,-0.1112 -0.1927,-0.1113 -0.183,-0.1057 -0.1642,-0.0948 -0.1371,-0.0791 -0.1032,-0.0596 -0.0641,-0.037 -0.0217,-0.0125"
         id="path3850"
         inkscape:connector-curvature="0" />
      <path
         d="m 2.09315,-36.8966 a 2.5,2.04124 120 0 1 0.51776,3.1856"
         id="path3852"
         inkscape:connector-curvature="0" />
      <path
         d="M 0.593146,-37.7627 A 2.5,2.04124 120 0 1 1.11091,-34.577"
         id="path3854"
         inkscape:connector-curvature="0" />
      <path
         id="197"
         d="m 0.593146,-37.7627 1.500004,0.8661"
         inkscape:connector-curvature="0" />
      <path
         d="m -3.13173,-37.0265 a 2.5,2.04124 120 0 1 3.017769,-1.1444"
         id="path3857"
         inkscape:connector-curvature="0" />
      <path
         id="199"
         d="m -0.113961,-38.1709 0.707107,0.4082"
         inkscape:connector-curvature="0" />
      <path
         d="m -0.634258,-36.4532 a 1,0.816497 120 0 1 -1.000002,1.732"
         id="path3860"
         inkscape:connector-curvature="0" />
      <path
         d="m -1.63426,-34.7212 a 1,0.816497 120 1 1 1.000002,-1.732"
         id="path3862"
         inkscape:connector-curvature="0" />
      <path
         d="m -32.6801,22.8045 a 5.83699,4.76588 120 0 1 -2.0222,-2.9406"
         id="path3864"
         inkscape:connector-curvature="0" />
      <path
         d="m -34.7023,19.8639 a 5.83699,4.76588 120 0 1 2.4192,-6.3987"
         id="path3866"
         inkscape:connector-curvature="0" />
      <path
         d="m -25.2108,14.4777 a 5.83699,4.76588 120 0 1 0.1027,0.2269"
         id="path3868"
         inkscape:connector-curvature="0" />
      <path
         d="m -24.9937,18.6604 a 5.83699,4.76588 120 0 1 -7.6864,4.1441"
         id="path3870"
         inkscape:connector-curvature="0" />
      <path
         d="m -10.6066,32.4396 a 5.83699,4.76588 120 0 1 -1.2657,0.6052"
         id="path3872"
         inkscape:connector-curvature="0" />
      <path
         d="m 22.7903,-25.4054 a 5.83699,4.76588 -60 0 0 -0.1089,-1.3987"
         id="path3874"
         inkscape:connector-curvature="0" />
      <path
         d="m 3.40924,-39.704 a 5.83699,4.76588 -60 0 0 -3.55773,-0.281"
         id="path3876"
         inkscape:connector-curvature="0" />
      <path
         d="m -0.14849,-39.985 a 5.83699,4.76588 -60 0 0 -4.33189,5.2945"
         id="path3878"
         inkscape:connector-curvature="0" />
      <path
         d="M -0.0673308,-29.0721 A 5.83699,4.76588 -60 0 0 0.180549,-29.0965"
         id="path3880"
         inkscape:connector-curvature="0" />
      <path
         d="M 3.66345,-30.9754 A 5.83699,4.76588 -60 0 0 3.40924,-39.704"
         id="path3882"
         inkscape:connector-curvature="0" />
      <path
         d="m -15.4301,-28.8271 -0.2746,-0.1586 -0.2598,-0.15 -0.2436,-0.1407 -0.2265,-0.1307 -0.2083,-0.1202 -0.189,-0.1092 -0.1689,-0.0975 -0.148,-0.0854 -0.1264,-0.073 -0.1042,-0.0602 -0.0816,-0.0471 -0.0585,-0.0338 -0.0353,-0.0203 -0.0117,-0.0068"
         id="path3884"
         inkscape:connector-curvature="0" />
      <path
         d="m -7.45658,-24.2236 -0.06152,-0.0356 -0.18304,-0.1056 -0.30011,-0.1733 -0.40988,-0.2367 -0.50967,-0.2942 -0.59706,-0.3447 -0.66994,-0.3868 -0.7265,-0.4194 -0.7653,-0.4419 -0.7856,-0.4536 -0.7867,-0.4542 -0.7687,-0.4438 -0.732,-0.4226 -0.6775,-0.3911"
         id="path3886"
         inkscape:connector-curvature="0" />
      <path
         d="m -32.6801,1.05074 -0.2746,-0.158552 -0.2598,-0.149977 -0.2436,-0.140697 -0.2265,-0.130764 -0.2083,-0.120221 -0.189,-0.109119 -0.1689,-0.09751 -0.148,-0.0854463 -0.1264,-0.0729848 -0.1042,-0.0601837 -0.0816,-0.0471022 -0.0585,-0.033803 -0.0353,-0.020344 -0.0117,-0.006792"
         id="path3888"
         inkscape:connector-curvature="0" />
      <path
         d="m -24.7066,5.65423 -0.0615,-0.03551 -0.183,-0.10568 -0.3001,-0.17327 -0.4099,-0.23664 -0.5097,-0.29427 -0.5971,-0.34471 -0.6699,-0.38678 -0.7265,-0.41943 -0.7653,-0.44187 -0.7856,-0.45357 -0.7867,-0.45421 -0.7687,-0.44382 -0.732,-0.42261 -0.6775,-0.39112"
         id="path3890"
         inkscape:connector-curvature="0" />
      <path
         d="M -6.18718,39.9792 A 5.83699,3.36999 60 0 1 -7.22969,39.2228"
         id="path3892"
         inkscape:connector-curvature="0" />
      <path
         d="m -4.24264,32.1322 a 5.83699,3.36999 60 0 1 -0.1842,8.4081"
         id="path3894"
         inkscape:connector-curvature="0" />
      <path
         d="M -4.42684,40.5403 A 5.83699,3.36999 60 0 1 -6.18718,39.9792"
         id="path3896"
         inkscape:connector-curvature="0" />
      <path
         d="m 16.4698,15.8026 a 5.83699,3.36999 60 0 1 5.4713,9.5141"
         id="path3898"
         inkscape:connector-curvature="0" />
      <path
         d="m 18.208,-33.039 a 5.83699,3.36999 -120 0 0 -1.7603,-0.5611"
         id="path3900"
         inkscape:connector-curvature="0" />
      <path
         d="M 21.9411,-24.0851 A 5.83699,3.36999 -120 0 0 18.208,-33.039"
         id="path3902"
         inkscape:connector-curvature="0" />
      <path
         d="m -6.18718,-18.9544 a 5.83699,3.36999 -120 0 0 -3.73315,0.5779"
         id="path3904"
         inkscape:connector-curvature="0" />
      <path
         d="m -9.92033,-18.3765 a 5.83699,3.36999 -120 0 0 -0.27417,3.0157"
         id="path3906"
         inkscape:connector-curvature="0" />
      <path
         d="M -4.24264,-8.86203 A 5.83699,3.36999 -120 0 0 -6.18718,-18.9544"
         id="path3908"
         inkscape:connector-curvature="0" />
      <path
         d="M 21.9203,6.36198 A 5.83699,3.36999 0 0 0 32.8955,6.34322"
         id="path3910"
         inkscape:connector-curvature="0" />
      <path
         d="m 31.5294,-25.3479 a 5.83699,3.36999 0 0 0 -1.1763,-0.5246"
         id="path3912"
         inkscape:connector-curvature="0" />
      <path
         d="m 25.706,-19.7403 a 5.83699,3.36999 0 0 0 7.1895,-4.3636"
         id="path3914"
         inkscape:connector-curvature="0" />
      <path
         d="m 32.8955,-24.1039 a 5.83699,3.36999 0 0 0 -1.3661,-1.244"
         id="path3916"
         inkscape:connector-curvature="0" />
      <path
         d="M -19.5086,4.11894 A 5.83699,3.36999 -180 0 1 -20.8747,0.596999"
         id="path3918"
         inkscape:connector-curvature="0" />
      <path
         d="m -20.8747,0.596999 a 5.83699,3.36999 -180 0 1 2.4746,-1.745249"
         id="path3920"
         inkscape:connector-curvature="0" />
      <path
         d="M -9.79607,0.756781 A 5.83699,3.36999 -180 0 1 -19.5086,4.11894"
         id="path3922"
         inkscape:connector-curvature="0" />
      <path
         d="m -19.5086,32.2881 a 5.83699,3.36999 -180 0 1 -1.3661,-1.244"
         id="path3924"
         inkscape:connector-curvature="0" />
      <path
         d="m -9.88772,31.0441 a 5.83699,3.36999 -180 0 1 -9.62088,1.244"
         id="path3926"
         inkscape:connector-curvature="0" />
    </g>
  </g>
</svg>
