<?xml version="1.0" encoding="UTF-8" standalone="no"?>
<svg
   xmlns:dc="http://purl.org/dc/elements/1.1/"
   xmlns:cc="http://creativecommons.org/ns#"
   xmlns:rdf="http://www.w3.org/1999/02/22-rdf-syntax-ns#"
   xmlns:svg="http://www.w3.org/2000/svg"
   xmlns="http://www.w3.org/2000/svg"
   xmlns:sodipodi="http://sodipodi.sourceforge.net/DTD/sodipodi-0.dtd"
   xmlns:inkscape="http://www.inkscape.org/namespaces/inkscape"
   version="1.1"
   width="252.70435"
   height="486.12653"
   viewBox="0 0 71.318784 137.19571"
   id="svg5190"
   inkscape:version="0.48.5 r10040"
   sodipodi:docname="motor.svg">
  <metadata
     id="metadata5610">
    <rdf:RDF>
      <cc:Work
         rdf:about="">
        <dc:format>image/svg+xml</dc:format>
        <dc:type
           rdf:resource="http://purl.org/dc/dcmitype/StillImage" />
        <dc:title></dc:title>
      </cc:Work>
    </rdf:RDF>
  </metadata>
  <sodipodi:namedview
     pagecolor="#ffffff"
     bordercolor="#666666"
     borderopacity="1"
     objecttolerance="10"
     gridtolerance="10"
     guidetolerance="10"
     inkscape:pageopacity="0"
     inkscape:pageshadow="2"
     inkscape:window-width="1366"
     inkscape:window-height="702"
     id="namedview5608"
     showgrid="false"
     fit-margin-top="20"
     fit-margin-left="20"
     fit-margin-right="20"
     fit-margin-bottom="20"
     inkscape:zoom="0.89707533"
     inkscape:cx="114.71971"
     inkscape:cy="183.21"
     inkscape:window-x="0"
     inkscape:window-y="27"
     inkscape:window-maximized="1"
     inkscape:current-layer="svg5190" />
  <!-- Working space 0 0 297 210 -->
  <defs
     id="defs5192">
    <radialGradient
       id="radialGradient3661"
       gradientUnits="userSpaceOnUse"
       cy="29.149"
       cx="282.64999"
       gradientTransform="matrix(0.14777,0.23089,-0.2468,0.15795,-26.318,-62.617)"
       r="19.570999">
      <stop
         stop-color="#71b2f8"
         offset="0"
         id="stop5195" />
      <stop
         stop-color="#002795"
         offset="1"
         id="stop5197" />
    </radialGradient>
    <radialGradient
       id="radialGradient3817"
       gradientUnits="userSpaceOnUse"
       cy="33.900002"
       cx="270.57999"
       gradientTransform="matrix(0.26631,0.065024,-0.17931,0.73438,-60.668,-36.938)"
       r="19.570999">
      <stop
         stop-color="#ff6d0f"
         offset="0"
         id="stop5200" />
      <stop
         stop-color="#ff1000"
         offset="1"
         id="stop5202" />
    </radialGradient>
  </defs>
  <!-- Set display:none to hide FreeCAD Logo -->
  <g
     id="Ortho_-1_1"
     transform="matrix(1,1.7320508,-1.7320508,1,80.702133,98.58388)">
    <g
       transform="scale(1,-1)"
       id="g5210"
       style="fill:none;stroke:#000000;stroke-width:0.175;stroke-linecap:butt;stroke-linejoin:miter">
      <path
         id="1"
         d="m -8.40158,-28.0875 0,0.4083"
         inkscape:connector-curvature="0" />
      <path
         id="2"
         d="m -13.8016,-28.0875 0,0.4083"
         inkscape:connector-curvature="0" />
      <path
         id="3"
         d="m -7.50158,-27.6792 0,0.4082"
         inkscape:connector-curvature="0" />
      <path
         id="4"
         d="m -14.7016,-27.6792 0,0.4082"
         inkscape:connector-curvature="0" />
      <path
         id="5"
         d="m 2.94437,-27.271 0,15.3501"
         inkscape:connector-curvature="0" />
      <path
         id="6"
         d="m -17.0565,-24.0662 0,1.388"
         inkscape:connector-curvature="0" />
      <path
         id="7"
         d="m -21.0565,-24.0662 0,1.388"
         inkscape:connector-curvature="0" />
      <path
         id="8"
         d="m -31.6774,5.89049 8.1317,-4.69485"
         inkscape:connector-curvature="0" />
      <path
         id="9"
         d="m -42.9223,-13.6064 8.1317,-4.6948"
         inkscape:connector-curvature="0" />
      <path
         d="m -17.7044,-25.0201 c -0.3197,-0.1867 -0.8354,-0.3472 -1.4668,-0.3256 -0.2483,0.0082 -0.517,0.0492 -0.7532,0.1205 -0.2372,0.0703 -0.4379,0.1694 -0.5796,0.2641 -0.1841,0.1231 -0.2907,0.2395 -0.367,0.3446 -0.1441,0.2062 -0.1828,0.379 -0.1855,0.5503"
         id="path5221"
         inkscape:connector-curvature="0" />
      <path
         d="m -17.0565,-24.0662 c 8e-4,-0.0888 -0.0143,-0.1815 -0.0453,-0.2781 -0.0294,-0.0948 -0.0828,-0.1945 -0.1601,-0.2991 -0.0937,-0.1239 -0.2401,-0.2602 -0.4425,-0.3767"
         id="path5223"
         inkscape:connector-curvature="0" />
      <path
         d="m -33.3723,-19.7796 0.0015,0.0543"
         id="path5225"
         inkscape:connector-curvature="0" />
      <path
         d="m -29.7738,-19.7253 0.0015,-0.0543"
         id="path5227"
         inkscape:connector-curvature="0" />
      <path
         d="m -24.887,-14.8807 0.0014,0.0544"
         id="path5229"
         inkscape:connector-curvature="0" />
      <path
         d="m -21.2885,-14.8263 0.0015,-0.0544"
         id="path5231"
         inkscape:connector-curvature="0" />
      <path
         id="16"
         d="m -38.3103,8.27242 6.0104,-3.47011"
         inkscape:connector-curvature="0" />
      <path
         id="17"
         d="m -48.3103,-9.04809 6.0104,-3.47011"
         inkscape:connector-curvature="0" />
      <path
         id="18"
         d="m -29.7723,-19.9429 0,0.1633"
         inkscape:connector-curvature="0" />
      <path
         id="19"
         d="m -33.3723,-19.9429 0,0.1633"
         inkscape:connector-curvature="0" />
      <path
         id="20"
         d="m -21.287,-15.0439 0,0.1632"
         inkscape:connector-curvature="0" />
      <path
         id="21"
         d="m -24.887,-15.0439 0,0.1632"
         inkscape:connector-curvature="0" />
      <path
         id="22"
         d="m -38.3103,8.27242 -2.1213,1.22474"
         inkscape:connector-curvature="0" />
      <path
         id="23"
         d="m -48.3103,-9.04809 -2.1213,1.22474"
         inkscape:connector-curvature="0" />
      <path
         d="m -33.3723,-19.9429 c -5e-4,-0.1014 0.0157,-0.2042 0.0484,-0.3084 0.0309,-0.1019 0.0846,-0.2066 0.161,-0.3143 0.0805,-0.1094 0.1906,-0.2247 0.3619,-0.3375 0.1303,-0.0859 0.3034,-0.1697 0.5011,-0.2287 0.1971,-0.0598 0.4164,-0.0941 0.6219,-0.1019 0.5274,-0.02 0.9661,0.1134 1.2542,0.2813"
         id="path5241"
         inkscape:connector-curvature="0" />
      <path
         d="m -29.7723,-19.9429 c 0.0012,-0.1001 -0.016,-0.2061 -0.0516,-0.3181 -0.0324,-0.1043 -0.09,-0.2125 -0.1728,-0.3247 -0.0971,-0.1295 -0.2485,-0.2649 -0.4271,-0.3667"
         id="path5243"
         inkscape:connector-curvature="0" />
      <path
         d="m -24.887,-15.0439 c -5e-4,-0.1014 0.0156,-0.2042 0.0484,-0.3084 0.0309,-0.1019 0.0845,-0.2067 0.161,-0.3143 0.0804,-0.1094 0.1905,-0.2247 0.3619,-0.3376 0.1302,-0.0858 0.3034,-0.1696 0.5011,-0.2287 0.1971,-0.0598 0.4164,-0.0941 0.6218,-0.1018 0.5275,-0.0201 0.9661,0.1134 1.2543,0.2812"
         id="path5245"
         inkscape:connector-curvature="0" />
      <path
         d="m -21.287,-15.0439 c 0.0012,-0.1001 -0.016,-0.2061 -0.0516,-0.3181 -0.0324,-0.1043 -0.09,-0.2125 -0.1729,-0.3247 -0.097,-0.1295 -0.2484,-0.2649 -0.427,-0.3668"
         id="path5247"
         inkscape:connector-curvature="0" />
      <path
         d="m -40.4316,9.49716 q -0.2219,0.12814 -0.4581,0.23189"
         id="path5249"
         inkscape:connector-curvature="0" />
      <path
         d="m -52.996,-3.71197 c 0.1755,-1.1666 0.5748,-2.05784 1.0473,-2.72132 0.4462,-0.62443 0.9638,-1.06929 1.5171,-1.39006"
         id="path5251"
         inkscape:connector-curvature="0" />
      <path
         d="M -50.3068,5.47256 C -50.5749,5.10055 -50.8581,4.67083 -51.1276,4.20848 -51.3342,3.85462 -51.53,3.48595 -51.7016,3.13121 -51.9424,2.63363 -52.135,2.16825 -52.2872,1.75444 -52.4853,1.2149 -52.6203,0.755522 -52.7226,0.352461 c -0.1429,-0.566956 -0.2222,-1.026667 -0.2752,-1.427781"
         id="path5253"
         inkscape:connector-curvature="0" />
      <path
         id="31"
         d="m -50.76,-1.86022 1.4142,-0.8165"
         inkscape:connector-curvature="0" />
      <path
         id="32"
         d="m -45.76,6.80003 1.4142,-0.8165"
         inkscape:connector-curvature="0" />
      <path
         d="m -45.76,6.80003 c -0.1533,0.08951 -0.3244,0.15726 -0.5134,0.20323 -0.189,0.04443 -0.4002,0.06829 -0.6594,0.05188 -0.2612,-0.01866 -0.5711,-0.07293 -0.9806,-0.24131 -0.2515,-0.10527 -0.5427,-0.25516 -0.874,-0.48776 -0.3298,-0.23168 -0.6998,-0.54608 -1.0704,-0.95539 -0.3485,-0.38304 -0.6946,-0.85 -0.9869,-1.35068 -0.2933,-0.49996 -0.5329,-1.03364 -0.6983,-1.53098 -0.1815,-0.54124 -0.2766,-1.03581 -0.3166,-1.4507 -0.0401,-0.416789 -0.025,-0.753887 0.0097,-1.0314387 0.0588,-0.4451323 0.1679,-0.7434743 0.2835,-0.9809613 0.1158,-0.23305 0.2426,-0.40419 0.3761,-0.54571 0.1336,-0.13952 0.277,-0.253 0.4303,-0.34043"
         id="path5257"
         inkscape:connector-curvature="0" />
      <path
         id="34"
         d="M -47.9722,3.4584 -48.75,3.90748"
         inkscape:connector-curvature="0" />
      <path
         id="35"
         d="M -48.9722,1.72635 -49.75,2.17542"
         inkscape:connector-curvature="0" />
      <path
         d="m -50.0157,2.71485 q 0.0029,-0.17344 0.0519,-0.2866 0.0405,-0.09553 0.0943,-0.1545 0.0561,-0.06254 0.1195,-0.09833"
         id="path5261"
         inkscape:connector-curvature="0" />
      <path
         d="m -48.75,3.90748 c -0.0835,0.04657 -0.1772,0.07366 -0.308,0.06097 -0.0673,-0.00758 -0.1469,-0.02614 -0.2467,-0.07608 -0.1532,-0.07129 -0.3602,-0.25898 -0.4861,-0.4664 -0.1662,-0.26393 -0.2258,-0.52502 -0.2249,-0.71112"
         id="path5263"
         inkscape:connector-curvature="0" />
    </g>
    <g
       transform="scale(1,-1)"
       id="g5265"
       style="fill:none;stroke:#000000;stroke-width:0.175;stroke-linecap:butt;stroke-linejoin:miter">
      <path
         d="m -8.40546,-28.1711 a 2.7,1.55885 180 0 1 0.00388,0.0836"
         id="path5267"
         inkscape:connector-curvature="0" />
      <path
         d="m -8.40158,-28.0875 a 2.7,1.55885 180 0 1 -0.00388,0.0836"
         id="path5269"
         inkscape:connector-curvature="0" />
      <path
         id="path5271"
         d="m -8.40546,-34.5358 0,6.5319"
         inkscape:connector-curvature="0" />
      <path
         id="path5273"
         d="m -8.40546,-34.5358 -2.84094,-1.6403"
         inkscape:connector-curvature="0" />
      <path
         d="m -13.8016,-27.6792 a 2.70001,1.5588558 0 0 0 5.40002,0"
         id="path5275"
         inkscape:connector-curvature="0" />
      <path
         d="m -10.9459,-33.0632 a 2.7,1.55885 0 0 0 2.54044,-1.4726"
         id="path5277"
         inkscape:connector-curvature="0" />
      <path
         id="path5279"
         d="m -10.9459,-33.0632 0,6.532"
         inkscape:connector-curvature="0" />
      <path
         d="m -10.9459,-26.5312 a 2.7,1.55885 180 0 1 -2.8557,-1.5563"
         id="path5281"
         inkscape:connector-curvature="0" />
      <path
         d="m -13.8016,-28.0875 a 2.7,1.55885 180 0 1 0.0045,-0.0898"
         id="path5283"
         inkscape:connector-curvature="0" />
      <path
         id="10"
         d="m -13.7971,-34.7093 0,6.532"
         inkscape:connector-curvature="0" />
      <path
         d="m -11.2464,-36.1761 a 2.7,1.55885 0 0 0 -2.5507,1.4668"
         id="path5286"
         inkscape:connector-curvature="0" />
      <path
         id="12"
         d="m -10.9459,-33.0632 -2.8512,-1.6461"
         inkscape:connector-curvature="0" />
      <path
         d="m -10.4652,-34.9869 a 0.9,0.519615 180 0 1 0.2636,0.3674"
         id="path5289"
         inkscape:connector-curvature="0" />
      <path
         d="m -10.2016,-34.6195 a 0.9,0.519615 180 0 1 -1.8,0"
         id="path5291"
         inkscape:connector-curvature="0" />
      <path
         d="m -12.0016,-34.6195 a 0.9,0.519615 180 0 1 1.5364,-0.3674"
         id="path5293"
         inkscape:connector-curvature="0" />
      <path
         d="m -13.7971,-29.0569 a 3.6,2.07846 0 0 0 -0.9045,1.3777"
         id="path5295"
         inkscape:connector-curvature="0" />
      <path
         d="m -14.7016,-27.6792 a 3.60001,2.0784658 0 0 0 7.20002,0"
         id="path5297"
         inkscape:connector-curvature="0" />
      <path
         d="m -7.50158,-27.6792 a 3.6,2.07846 0 0 0 -0.90388,-1.3773"
         id="path5299"
         inkscape:connector-curvature="0" />
      <path
         id="path5301"
         d="m -10.9459,-26.5312 -2.8512,-1.6461"
         inkscape:connector-curvature="0" />
      <path
         d="m -14.7016,-27.271 a 3.60001,2.0784658 0 0 0 7.20002,0"
         id="path5303"
         inkscape:connector-curvature="0" />
      <path
         id="path5305"
         d="m -37.1231,-21.433 22.8395,-13.1865"
         inkscape:connector-curvature="0" />
      <path
         d="m -7.9196,-34.6195 a 4.5,2.59808 0 0 0 -1.69644,-0.6153"
         id="path5307"
         inkscape:connector-curvature="0" />
      <path
         d="m -13.7646,-34.8767 a 4.5,2.59808 0 0 0 -0.519,0.2572"
         id="path5309"
         inkscape:connector-curvature="0" />
      <path
         id="24"
         d="M -21.2132,-12.2474 -37.1231,-21.433"
         inkscape:connector-curvature="0" />
      <path
         id="25"
         d="M 1.62635,-29.1081 -7.9196,-34.6195"
         inkscape:connector-curvature="0" />
      <path
         id="26"
         d="M -21.2132,-12.2474 1.62635,-25.4339"
         inkscape:connector-curvature="0" />
      <path
         d="m 1.62635,-29.1081 a 4.5,2.59808 180 0 1 1.31802,1.8371"
         id="path5314"
         inkscape:connector-curvature="0" />
      <path
         d="m 2.94437,-27.271 a 4.5,2.59808 180 0 1 -1.31802,1.8371"
         id="path5316"
         inkscape:connector-curvature="0" />
      <path
         d="m -33.0572,-21.2085 a 2.1,1.21244 -180 0 1 3.5849,0.8573"
         id="path5318"
         inkscape:connector-curvature="0" />
      <path
         d="m -29.4723,-20.3512 a 2.1,1.21244 -180 0 1 -4.2,0"
         id="path5320"
         inkscape:connector-curvature="0" />
      <path
         d="m -33.6723,-20.3512 a 2.1,1.21244 -180 0 1 0.6151,-0.8573"
         id="path5322"
         inkscape:connector-curvature="0" />
      <path
         d="m -32.8805,-23.066 a 1.5,0.866025 -180 0 1 2.5607,0.6123"
         id="path5324"
         inkscape:connector-curvature="0" />
      <path
         d="m -30.3198,-22.4537 a 1.5,0.866025 -180 0 1 -3,0"
         id="path5326"
         inkscape:connector-curvature="0" />
      <path
         d="m -33.3198,-22.4537 a 1.5,0.866025 -180 0 1 0.4393,-0.6123"
         id="path5328"
         inkscape:connector-curvature="0" />
      <path
         d="m -34.8957,-21.6167 a 0.9,0.519615 -180 0 1 1.5364,0.3674"
         id="path5330"
         inkscape:connector-curvature="0" />
      <path
         d="m -33.3593,-21.2493 a 0.9,0.519615 -180 0 1 -1.8,0"
         id="path5332"
         inkscape:connector-curvature="0" />
      <path
         d="m -35.1593,-21.2493 a 0.9,0.519615 -180 0 1 0.2636,-0.3674"
         id="path5334"
         inkscape:connector-curvature="0" />
      <path
         d="m -22.2739,-29.1898 a 0.65,0.375278 -180 0 1 1.1097,0.2654"
         id="path5336"
         inkscape:connector-curvature="0" />
      <path
         d="m -21.1642,-28.9244 a 0.65,0.375278 -180 0 1 -1.3,0"
         id="path5338"
         inkscape:connector-curvature="0" />
      <path
         d="m -22.4642,-28.9244 a 0.65,0.375278 -180 0 1 0.1903,-0.2654"
         id="path5340"
         inkscape:connector-curvature="0" />
      <path
         d="m -21.0565,-22.6782 a 2,1.1547 0 0 0 4,0"
         id="path5342"
         inkscape:connector-curvature="0" />
      <path
         d="m -8.69741,-21.3514 a 0.65,0.375278 -180 0 1 1.10962,0.2654"
         id="path5344"
         inkscape:connector-curvature="0" />
      <path
         d="m -7.58779,-21.086 a 0.65,0.375278 -180 0 1 -1.3,0"
         id="path5346"
         inkscape:connector-curvature="0" />
      <path
         d="m -8.88779,-21.086 a 0.65,0.375278 -180 0 1 0.19038,-0.2654"
         id="path5348"
         inkscape:connector-curvature="0" />
      <path
         d="m -20.5061,-15.9217 a 1.5,0.866025 -180 0 1 2.5607,0.6124"
         id="path5350"
         inkscape:connector-curvature="0" />
      <path
         d="m -17.9454,-15.3093 a 1.5,0.866025 -180 0 1 -3,0"
         id="path5352"
         inkscape:connector-curvature="0" />
      <path
         d="m -20.9454,-15.3093 a 1.5,0.866025 -180 0 1 0.4393,-0.6124"
         id="path5354"
         inkscape:connector-curvature="0" />
      <path
         d="m -24.572,-16.3095 a 2.1,1.21244 -180 0 1 3.585,0.8573"
         id="path5356"
         inkscape:connector-curvature="0" />
      <path
         d="m -20.987,-15.4522 a 2.1,1.21244 -180 0 1 -4.2,0"
         id="path5358"
         inkscape:connector-curvature="0" />
      <path
         d="m -25.187,-15.4522 a 2.1,1.21244 -180 0 1 0.615,-0.8573"
         id="path5360"
         inkscape:connector-curvature="0" />
      <path
         d="m -22.1678,-14.2683 a 0.9,0.519615 -180 0 1 1.5364,0.3674"
         id="path5362"
         inkscape:connector-curvature="0" />
      <path
         d="m -20.6314,-13.9009 a 0.9,0.519615 -180 0 1 -1.8,0"
         id="path5364"
         inkscape:connector-curvature="0" />
      <path
         d="m -22.4314,-13.9009 a 0.9,0.519615 -180 0 1 0.2636,-0.3674"
         id="path5366"
         inkscape:connector-curvature="0" />
      <path
         d="m 0.176777,-27.6588 a 1,0.57735 -180 0 1 1.707103,0.4082"
         id="path5368"
         inkscape:connector-curvature="0" />
      <path
         d="m 1.88388,-27.2506 a 1,0.57735 -180 0 1 -1.999997,0"
         id="path5370"
         inkscape:connector-curvature="0" />
      <path
         d="m -0.116117,-27.2506 a 1,0.57735 -180 0 1 0.292894,-0.4082"
         id="path5372"
         inkscape:connector-curvature="0" />
      <path
         id="57"
         d="m -37.1231,-21.433 0,4.4784"
         inkscape:connector-curvature="0" />
      <path
         id="58"
         d="m -21.2132,-12.2474 0,8.28739"
         inkscape:connector-curvature="0" />
      <path
         d="m -24.077,-12.6761 a 11.2623,6.50232 60 0 1 2.8638,8.71609"
         id="path5376"
         inkscape:connector-curvature="0" />
      <path
         id="60"
         d="m -24.077,-12.6761 -10.1823,-5.8788"
         inkscape:connector-curvature="0" />
      <path
         d="m -34.7906,-18.3012 a 11.2623,6.50232 60 0 1 0.5313,-0.2537"
         id="path5379"
         inkscape:connector-curvature="0" />
      <path
         id="62"
         d="M -21.2132,3.10269 1.62635,-10.0837"
         inkscape:connector-curvature="0" />
      <path
         id="63"
         d="m -21.2132,-3.96001 0,7.0627"
         inkscape:connector-curvature="0" />
      <path
         d="m 2.94437,-11.9209 a 4.5,2.59808 180 0 1 -1.31802,1.8372"
         id="path5383"
         inkscape:connector-curvature="0" />
      <path
         d="m -29.7723,-19.9142 a 2.1,1.21244 -180 0 1 0.0881,0.0937"
         id="path5385"
         inkscape:connector-curvature="0" />
      <path
         d="m -33.4604,-19.8205 a 2.1,1.21244 -180 0 1 0.0881,-0.0937"
         id="path5387"
         inkscape:connector-curvature="0" />
      <path
         d="m -21.287,-15.0153 a 2.1,1.21244 -180 0 1 0.0881,0.0938"
         id="path5389"
         inkscape:connector-curvature="0" />
      <path
         d="m -24.9752,-14.9215 a 2.1,1.21244 -180 0 1 0.0882,-0.0938"
         id="path5391"
         inkscape:connector-curvature="0" />
      <path
         id="69"
         d="M -21.2132,3.10269 -24.031,1.47582"
         inkscape:connector-curvature="0" />
      <path
         id="70"
         d="m -24.077,-12.6761 -8.1317,4.69485"
         inkscape:connector-curvature="0" />
      <path
         d="m -32.2087,-7.98125 a 11.2623,6.50232 60 0 1 0.5313,13.87174"
         id="path5395"
         inkscape:connector-curvature="0" />
      <path
         d="m -31.6774,5.89049 a 11.2623,6.50232 60 0 1 -0.5313,0.25365"
         id="path5397"
         inkscape:connector-curvature="0" />
      <path
         d="m -21.2132,-3.96001 a 11.2623,6.50232 60 0 1 -2.3325,5.15565"
         id="path5399"
         inkscape:connector-curvature="0" />
      <path
         id="74"
         d="M -32.2087,-7.98125 -42.3911,-13.86"
         inkscape:connector-curvature="0" />
      <path
         id="75"
         d="m -34.2593,-18.5549 -8.1318,4.6949"
         inkscape:connector-curvature="0" />
      <path
         d="m -44.8775,-11.03 a 11.2623,6.50232 60 0 1 1.9552,-2.5764"
         id="path5403"
         inkscape:connector-curvature="0" />
      <path
         d="m -42.9223,-13.6064 a 11.2623,6.50232 60 0 1 0.5312,-0.2536"
         id="path5405"
         inkscape:connector-curvature="0" />
      <path
         id="78"
         d="M -32.2087,6.14414 -33.4164,5.4469"
         inkscape:connector-curvature="0" />
      <path
         d="m -10.5659,-3.04452 a 2.7,1.55885 0 0 0 2.11066,-1.21861"
         id="path5408"
         inkscape:connector-curvature="0" />
      <path
         d="M -32.2999,4.80231 A 10,5.7735 -120 0 0 -32.6228,-7.28136"
         id="path5410"
         inkscape:connector-curvature="0" />
      <path
         id="81"
         d="M -32.6228,-7.28136 -41.977,-12.682"
         inkscape:connector-curvature="0" />
      <path
         d="m -41.977,-12.682 a 10,5.7735 -120 0 0 -0.3229,0.1638"
         id="path5413"
         inkscape:connector-curvature="0" />
      <path
         d="m -36.3192,4.8732 a 10,5.7735 60 0 1 -1.9911,3.39922"
         id="path5415"
         inkscape:connector-curvature="0" />
      <path
         d="m -36.3192,2.42371 a 10,5.7735 60 0 1 0,2.44949"
         id="path5417"
         inkscape:connector-curvature="0" />
      <path
         d="m -38.6332,-3.81125 a 10,5.7735 60 0 1 2.314,6.23496"
         id="path5419"
         inkscape:connector-curvature="0" />
      <path
         id="86"
         d="m -32.6228,-7.28136 -6.0104,3.47011"
         inkscape:connector-curvature="0" />
      <path
         id="87"
         d="m -41.977,-12.682 -6.0104,3.47013"
         inkscape:connector-curvature="0" />
      <path
         id="88"
         d="m -47.1994,-8.75693 -0.788,-0.45494"
         inkscape:connector-curvature="0" />
      <path
         id="89"
         d="m -38.6332,-3.81125 -1.8487,-1.06732"
         inkscape:connector-curvature="0" />
      <path
         d="m -48.3103,-9.04809 a 10,5.7735 60 0 1 0.3229,-0.16378"
         id="path5425"
         inkscape:connector-curvature="0" />
      <path
         id="91"
         d="m -36.3192,4.8732 -2.1213,1.22475"
         inkscape:connector-curvature="0" />
      <path
         d="M -37.2999,4.30702 A 1.5,0.866025 60 0 1 -38.0888,3.44539"
         id="path5428"
         inkscape:connector-curvature="0" />
      <path
         id="93"
         d="m -37.2999,4.30702 0.9807,0.56618"
         inkscape:connector-curvature="0" />
      <path
         id="94"
         d="m -38.6332,-3.81125 -2.1213,1.22474"
         inkscape:connector-curvature="0" />
      <path
         id="95"
         d="m -36.3192,2.42371 -2.1213,1.22475"
         inkscape:connector-curvature="0" />
      <path
         id="96"
         d="m -47.9874,-9.21187 -2.1213,1.22475"
         inkscape:connector-curvature="0" />
      <path
         d="m -50.1087,-7.98712 -0.0022,0.00128 -0.0017,9.7e-4 -0.0019,0.00113 -0.0022,0.0013 -0.0022,0.00129 -0.0022,0.0013 -0.0022,0.0013 -0.0022,0.00131 -0.0022,0.0013 -0.0021,0.00131 -0.0022,0.00132 -0.0022,0.00131 -0.0021,0.00132 -0.0022,0.00132 -0.0021,0.00133 -0.0022,0.00133 -0.0021,0.00133 -0.0021,0.00133 -0.0022,0.00134 -0.0021,0.00134 -0.0021,0.00134 -0.0021,0.00135 -0.0021,0.00135 -0.0021,0.00135 -0.0021,0.00136 -0.0021,0.00135 -0.0021,0.00137 -0.002,0.00136 -0.0021,0.00137 -0.0021,0.00137 -0.002,0.00137 -0.0021,0.00138 -0.002,0.00137 -0.0021,0.00139 -0.002,0.00138 -0.0021,0.00139 -0.002,0.00139 -0.002,0.00139 -0.002,0.0014 -0.002,0.0014 -0.002,0.0014 -0.002,0.00141 -0.002,0.0014 -0.002,0.00141 -0.002,0.00142 -0.002,0.00141 -0.0019,0.00142 -0.002,0.00143 -0.002,0.00142 -0.0019,0.00143 -0.002,0.00143 -0.0019,0.00144 -0.002,0.00143 -0.0019,0.00144 -0.0019,0.00145 -0.0019,0.00144 -0.002,0.00145 -0.0019,0.00145 -0.0019,0.00146 -0.0019,0.00145 -0.0019,0.00146 -0.0019,0.00147 -0.0018,0.00146 -0.0019,0.00147 -0.0019,0.00147 -0.0019,0.00147 -0.0018,0.00148 -0.0019,0.00148 -0.0018,0.00148 -0.0019,0.00149 -0.0018,0.00149 -0.0018,0.00149 -0.0019,0.00149 -0.0018,0.0015 -0.0018,0.0015 -0.0018,0.0015 -0.0018,0.00151 -0.0018,0.0015 -0.0018,0.00152 -0.0018,0.00151 -0.0018,0.00152 -0.0018,0.00151 -0.0017,0.00153 -0.0018,0.00152 -0.0018,0.00153 -0.0017,0.00153 -0.0018,0.00153 -0.0017,0.00154 -0.0017,0.00154 -0.0018,0.00154 -0.0017,0.00154 -0.0017,0.00155 -0.0017,0.00155 -0.0017,0.00155 -0.0017,0.00155 -0.0017,0.00156 -0.0017,0.00156 -0.0017,0.00157 -0.0017,0.00156 -0.0016,0.00157 -0.0017,0.00157 -0.0017,0.00158 -0.0016,0.00157 -0.0017,0.00158 -0.0016,0.00159 -0.0016,0.00158 -0.0017,0.00159 -0.0016,0.00159 -0.0016,0.00159 -0.0016,0.0016 -0.0016,0.0016 -0.0016,0.0016 -0.0016,0.0016 -0.0016,0.00161 -0.0016,0.00161 -0.0016,0.00161 -0.0016,0.00161 -0.0015,0.00162 -0.0016,0.00162 -0.0016,0.00162 -0.0015,0.00163 -0.0015,0.00163 -0.0016,0.00163 -0.0015,0.00163 -0.0015,0.00163 -0.0016,0.00164 -0.0015,0.00164 -0.0015,0.00165 -0.0015,0.00164 -0.0015,0.00165 -0.0015,0.00165 -0.0015,0.00166 -0.0014,0.00166 -0.0015,0.00166 -0.0015,0.00166 -0.0014,0.00166 -0.0015,0.00167 -0.0014,0.00167 -0.0015,0.00167 -0.0014,0.00168 -0.0014,0.00167 -0.0015,0.00168 -0.0014,0.00169 -0.0014,0.00168 -0.0014,0.00169 -0.0014,0.00169 -0.0014,0.00169 -0.0014,0.0017 -0.0014,0.0017 -0.0013,0.0017 -0.0014,0.0017 -0.0014,0.00171 -0.0013,0.00171 -0.0014,0.00171 -0.0013,0.00171 -0.0014,0.00172 -0.0013,0.00172 -0.0013,0.00172 -0.0013,0.00172 -0.0014,0.00173 -0.0013,0.00173 -0.0013,0.00173 -0.0013,0.00173 -0.0013,0.00174 -0.0012,0.00174 -0.0013,0.00174 -0.0013,0.00174 -0.0013,0.00175 -0.0012,0.00175 -0.0013,0.00175 -0.0012,0.00175 -0.0013,0.00176 -0.0012,0.00176 -0.0012,0.00176 -0.0012,0.00176 -0.0013,0.00177 -0.0012,0.00177 -0.0012,0.00177 -0.0012,0.00177 -0.0012,0.00178 -0.0011,0.00178 -0.0012,0.00178 -0.0012,0.00178 -0.0012,0.00179 -0.0011,0.00179 -0.0012,0.00179 -0.0011,0.00179 -0.0012,0.0018 -0.0011,0.00179 -0.0011,0.0018 -0.0012,0.00181 -0.0011,0.0018 -0.0011,0.00181 -0.0011,0.00181 -0.0011,0.00181 -0.0011,0.00182 -0.0011,0.00182 -0.001,0.00182 -0.0011,0.00182 -0.0011,0.00182 -0.001,0.00183 -0.0011,0.00183 -0.0011,0.00183 -0.001,0.00184 -10e-4,0.00183 -0.0011,0.00184 -10e-4,0.00184 -0.001,0.00185 -10e-4,0.00184 -10e-4,0.00185 -0.001,0.00185 -10e-4,0.00185 -10e-4,0.00186 -0.001,0.00186 -9e-4,0.00186 -0.001,0.00186 -10e-4,0.00187 -9e-4,0.00186 -10e-4,0.00187 -9e-4,0.00187 -9e-4,0.00188 -10e-4,0.00187 -9e-4,0.00188 -9e-4,0.00188 -9e-4,0.00189 -9e-4,0.00188 -9e-4,0.00189 -9e-4,0.00189 -9e-4,0.0019 -8e-4,0.00189 -9e-4,0.0019 -9e-4,0.0019 -8e-4,0.0019 -9e-4,0.0019 -8e-4,0.00191 -9e-4,0.00191 -8e-4,0.00191 -8e-4,0.00191 -8e-4,0.00192 -8e-4,0.00192 -9e-4,0.00192 -8e-4,0.00192 -7e-4,0.00192 -8e-4,0.00193 -8e-4,0.00193 -8e-4,0.00193 -7e-4,0.00193 -8e-4,0.00194 -8e-4,0.00194 -7e-4,0.00194 -7e-4,0.00194 -8e-4,0.00195 -7e-4,0.00194 -7e-4,0.00195 -7e-4,0.00195 -7e-4,0.00196 -7e-4,0.00195 -7e-4,0.00196 -7e-4,0.00196 -7e-4,0.00196 -7e-4,0.00197 -6e-4,0.00197 -7e-4,0.00196 -7e-4,0.00198 -6e-4,0.00197 -7e-4,0.00197 -6e-4,0.00198 -6e-4,0.00198 -6e-4,0.00198 -6e-4,0.00199 -7e-4,0.00199 -6e-4,0.00198 -6e-4,0.002 -5e-4,0.00199 -6e-4,0.00199 -6e-4,0.002 -6e-4,0.002 -5e-4,0.002 -6e-4,0.002 -5e-4,0.00201 -6e-4,0.00201 -5e-4,0.00201 -5e-4,0.00201 -6e-4,0.00202 -5e-4,0.00201 -5e-4,0.00202 -5e-4,0.00202 -5e-4,0.00202 -5e-4,0.00203 -4e-4,0.00203 -5e-4,0.00202 -5e-4,0.00204 -5e-4,0.00203 -4e-4,0.00203 -5e-4,0.00204 -4e-4,0.00204 -4e-4,0.00204 -5e-4,0.00205 -4e-4,0.00204 -4e-4,0.00205 -4e-4,0.00205 -4e-4,0.00205 -4e-4,0.00206 -4e-4,0.00205 -4e-4,0.00206 -3e-4,0.00206 -4e-4,0.00206 -4e-4,0.00207 -3e-4,0.00206 -4e-4,0.00207 -3e-4,0.00207 -3e-4,0.00208 -4e-4,0.00207 -3e-4,0.00208 -3e-4,0.00208 -3e-4,0.00208 -3e-4,0.00208 -3e-4,0.00208 -3e-4,0.00209 -3e-4,0.00209 -2e-4,0.00209 -3e-4,0.00209 -3e-4,0.0021 -2e-4,0.00209 -2e-4,0.0021 -3e-4,0.0021 -2e-4,0.00211 -2e-4,0.0021 -3e-4,0.00211 -2e-4,0.00211 -2e-4,0.00211 -2e-4,0.00211 -2e-4,0.00211 -10e-5,0.00212 -2e-4,0.00212 -2e-4,0.00212 -10e-5,0.00212 -2e-4,0.00213 -1e-4,0.00212 -2e-4,0.00213 -10e-5,0.00213 -1e-4,0.00213 -2e-4,0.00214 -10e-5,0.00213 -1e-4,0.00214 -10e-5,0.00214 -1e-4,0.00214 -1e-4,0.00215 0,0.00214 -10e-5,0.00215 -1e-4,0.00215 0,0.00215 -10e-5,0.00216 0,0.00215 -1e-4,0.00216 0,0.00216 0,0.00216 0,0.00216 0,0.00217 0,0.00216 0,0.00217 0,0.00217 0,0.00217 0,0.00218 1e-4,0.00218 0,0.00217 0,0.00218 10e-5,0.00219 1e-4,0.00218 0,0.00218 10e-5,0.00219 1e-4,0.00219 1e-4,0.00219 10e-5,0.00219 1e-4,0.0022 10e-5,0.0022 1e-4,0.00219 10e-5,0.00221 2e-4,0.0022 1e-4,0.0022 2e-4,0.00221 10e-5,0.0022 2e-4,0.00221 1e-4,0.00222 2e-4,0.00221 2e-4,0.00221 2e-4,0.00222 2e-4,0.00222 2e-4,0.00222 2e-4,0.00222 2e-4,0.00223 2e-4,0.00222 3e-4,0.00223 2e-4,0.00223 3e-4,0.00223 2e-4,0.00223 3e-4,0.00224 2e-4,0.00223 3e-4,0.00224 3e-4,0.00224 3e-4,0.00224 3e-4,0.00225 3e-4,0.00224 3e-4,0.00225 3e-4,0.00225 3e-4,0.00225 4e-4,0.00225 3e-4,0.00226 4e-4,0.00225 3e-4,0.00226 4e-4,0.00226 3e-4,0.00226 4e-4,0.00227 4e-4,0.00226 4e-4,0.00227 4e-4,0.00227 4e-4,0.00227 4e-4,0.00227 4e-4,0.00227 5e-4,0.00228 4e-4,0.00227 4e-4,0.00228 5e-4,0.00228 4e-4,0.00228 5e-4,0.00229 5e-4,0.00228 4e-4,0.00229 5e-4,0.00229 5e-4,0.00229 5e-4,0.00229 5e-4,0.0023 5e-4,0.00229 6e-4,0.0023 5e-4,0.0023 5e-4,0.0023 6e-4,0.0023 5e-4,0.00231 6e-4,0.0023 5e-4,0.00231 6e-4,0.00231 6e-4,0.00231 6e-4,0.00231 6e-4,0.00232 6e-4,0.00231 6e-4,0.00232 6e-4,0.00232 6e-4,0.00232 7e-4,0.00232 6e-4,0.00233 6e-4,0.00232 7e-4,0.00233 7e-4,0.00233 6e-4,0.00233 7e-4,0.00233 7e-4,0.00234 7e-4,0.00233 7e-4,0.00234 7e-4,0.00234 7e-4,0.00234 7e-4,0.00234 7e-4,0.00235 8e-4,0.00234 7e-4,0.00235 8e-4,0.00235 7e-4,0.00235 8e-4,0.00235 8e-4,0.00236 8e-4,0.00235 7e-4,0.00236 8e-4,0.00236 8e-4,0.00236 8e-4,0.00236 9e-4,0.00236 8e-4,0.00237 8e-4,0.00236 9e-4,0.00237 8e-4,0.00237 9e-4,0.00237 8e-4,0.00237 9e-4,0.00238 9e-4,0.00238 9e-4,0.00237 9e-4,0.00238 9e-4,0.00238 9e-4,0.00239 9e-4,0.00238 9e-4,0.00239 9e-4,0.00238 0.001,0.00239 9e-4,0.00239 0.001,0.00239 9e-4,0.0024 0.001,0.00239 10e-4,0.0024 10e-4,0.0024 9e-4,0.0024 0.001,0.0024 10e-4,0.0024 0.0011,0.0024 10e-4,0.00241 10e-4,0.00241 0.001,0.00241 0.0011,0.00241 10e-4,0.00241 0.0011,0.00241 0.0011,0.00242 10e-4,0.00242 0.0011,0.00241 0.0011,0.00242 0.0011,0.00242 0.0011,0.00243 0.0011,0.00242 0.0012,0.00243 0.0011,0.00242 0.0011,0.00243 0.0012,0.00243 0.0011,0.00244 0.0012,0.00243 0.0011,0.00243 0.0012,0.00244 0.0012,0.00244 0.0012,0.00244 0.0012,0.00244 0.0012,0.00244 0.0012,0.00245 0.0012,0.00244 0.0013,0.00245 0.0012,0.00245 0.0012,0.00245 0.0013,0.00245 0.0012,0.00245 0.0013,0.00246 0.0013,0.00245 0.0013,0.00246 0.0013,0.00246 0.0013,0.00246 0.0013,0.00246 0.0013,0.00247 0.0013,0.00246 0.0013,0.00247 0.0014,0.00246 0.0013,0.00247 0.0014,0.00247 0.0013,0.00248 0.0014,0.00247 0.0014,0.00248 0.0014,0.00247 0.0013,0.00248 0.0014,0.00248 0.0015,0.00248 0.0014,0.00249 0.0014,0.00248 0.0014,0.00248 0.0015,0.00249 0.0014,0.00249 0.0015,0.00249 0.0014,0.00249 0.0015,0.0025 0.0015,0.00249 0.0015,0.0025 0.0015,0.00249 0.0015,0.0025 0.0015,0.0025 0.0015,0.0025 0.0015,0.00251 0.0015,0.0025 0.0016,0.00251 0.0015,0.0025 0.0016,0.00251 0.0016,0.00251 0.0015,0.00252 0.0016,0.00251 0.0016,0.00251 0.0016,0.00252 0.0016,0.00252 0.0016,0.00252 0.0016,0.00252 0.0017,0.00252 0.0016,0.00252 0.0017,0.00253 0.0016,0.00252 0.0017,0.00253 0.0016,0.00253 0.0017,0.00253 0.0017,0.00253 0.0017,0.00254 0.0017,0.00253 0.0017,0.00254 0.0017,0.00254 0.0018,0.00254 0.0017,0.00254 0.0017,0.00254 0.0018,0.00254 0.0017,0.00255 0.0018,0.00254 0.0018,0.00255 0.0018,0.00255 0.0018,0.00255 0.0017,0.00255 0.0019,0.00256 0.0018,0.00255 0.0018,0.00256 0.0018,0.00256 0.0019,0.00256 0.0018,0.00256 0.0019,0.00256 0.0018,0.00256 0.0019,0.00257 0.0019,0.00256 0.0019,0.00257 0.0019,0.00257 0.0019,0.00257 0.0019,0.00257 0.0019,0.00258 0.0019,0.00257 0.002,0.00258 0.0019,0.00258 0.002,0.00258 0.0019,0.00258 0.002,0.00258 0.002,0.00258 0.002,0.00259 0.002,0.00258 0.002,0.00259 0.002,0.00259 0.002,0.00259 0.002,0.00259 0.0021,0.0026 0.002,0.00259 0.0021,0.0026 0.002,0.0026 0.0021,0.00259 0.0021,0.00261 0.0021,0.0026 0.002,0.0026 0.0021,0.00261 0.0022,0.0026 0.0021,0.00261 0.0021,0.00261 0.0021,0.00261 0.0022,0.00261 0.0021,0.00262 0.0022,0.00261 0.0022,0.00262 0.0021,0.00261 0.0022,0.00262 0.0022,0.00262 0.0022,0.00263 0.0022,0.00262 0.0023,0.00263 0.0022,0.00262 0.0022,0.00263 0.0023,0.00263 0.0022,0.00263 0.0023,0.00263 0.0023,0.00264 0.0022,0.00263 0.0023,0.00264 0.0023,0.00264 0.0023,0.00263 0.0023,0.00265 0.0024,0.00264 0.0023,0.00264 0.0023,0.00265 0.0024,0.00264 0.0023,0.00265 0.0024,0.00265 0.0024,0.00265 0.0024,0.00266 0.0024,0.00265 0.0024,0.00265 0.0024,0.00266 0.0024,0.00266 0.0024,0.00266 0.0024,0.00266 0.0025,0.00266 0.0024,0.00267 0.0025,0.00266 0.0025,0.00267 0.0024,0.00267 0.0025,0.00267 0.0025,0.00267 0.0025,0.00267 0.0025,0.00268 0.0025,0.00267 0.0026,0.00268 0.0025,0.00268 0.0026,0.00268 0.0025,0.00268 0.0026,0.00269 0.0025,0.00268 0.0026,0.00269 0.0026,0.00269 0.0026,0.00269 0.0026,0.00269 0.0026,0.00269 0.0027,0.00269 0.0026,0.0027 0.0026,0.0027 0.0027,0.0027 0.0027,0.0027 0.0026,0.0027 0.0027,0.0027 0.0027,0.0027 0.0027,0.00271 0.0027,0.00271 0.0027,0.00271 0.0027,0.00271 0.0028,0.00271 0.0027,0.00271 0.0028,0.00272 0.0027,0.00272 0.0028,0.00272 0.0028,0.00272 0.0027,0.00272 0.0028,0.00272 0.0028,0.00273 0.0028,0.00272 0.0029,0.00273 0.0028,0.00273 0.0028,0.00273 0.0029,0.00273 0.0028,0.00274 0.0029,0.00273 0.0029,0.00274 0.0029,0.00274 0.0029,0.00274 0.0029,0.00274 0.0029,0.00275 0.0029,0.00274 0.0029,0.00275 0.003,0.00275 0.0029,0.00275 0.003,0.00275 0.0029,0.00275 0.003,0.00276 0.003,0.00275 0.003,0.00276 0.003,0.00276 0.003,0.00276 0.003,0.00277 0.0031,0.00276 0.003,0.00277 0.0031,0.00277 0.003,0.00277 0.0031,0.00277 0.0031,0.00277 0.0031,0.00278 0.0031,0.00277 0.0031,0.00278 0.0031,0.00278 0.0031,0.00278 0.0031,0.00279 0.0032,0.00278 0.0031,0.00279 0.0032,0.00279 0.0032,0.00279 0.0032,0.00279 0.0031,0.00279 0.0032,0.0028 0.0033,0.0028 0.0032,0.0028 0.0032,0.0028 0.0032,0.0028 0.0033,0.0028 0.0033,0.00281 0.0032,0.00281 0.0033,0.00281 0.0033,0.00281 0.0033,0.00281 0.0033,0.00282 0.0033,0.00281 0.0033,0.00282 0.0034,0.00282 0.0033,0.00282 0.0034,0.00283 0.0033,0.00283 0.0034,0.00282 0.0034,0.00283 0.0034,0.00283 0.0034,0.00284 0.0034,0.00283 0.0034,0.00284 0.0035,0.00284 0.0034,0.00284 0.0035,0.00284 0.0034,0.00285 0.0035,0.00285 0.0035,0.00284 0.0035,0.00285 0.0035,0.00286 0.0035,0.00285 0.0035,0.00286 0.0035,0.00286 0.0036,0.00286 0.0035,0.00286 0.0036,0.00286 0.0036,0.00287 0.0035,0.00287 0.0036,0.00287 0.0036,0.00287 0.0037,0.00288 0.0036,0.00287 0.0036,0.00288 0.0037,0.00288 0.0036,0.00288 0.0037,0.00289 0.0036,0.00289 0.0037,0.00288 0.0037,0.0029 0.0037,0.00289 0.0037,0.00289 0.0038,0.0029 0.0037,0.0029 0.0038,0.0029 0.0037,0.00291 0.0038,0.0029 0.0038,0.00291 0.0038,0.00291 0.0038,0.00291 0.0038,0.00292 0.0038,0.00291 0.0038,0.00292 0.0039,0.00293 0.0038,0.00292 0.0039,0.00292 0.0038,0.00293 0.0039,0.00293 0.0039,0.00294 0.0039,0.00293 0.0039,0.00294 0.004,0.00294 0.0039,0.00294 0.004,0.00295 0.0039,0.00294 0.004,0.00295 0.004,0.00295 0.004,0.00296 0.004,0.00295 0.004,0.00296 0.004,0.00296 0.004,0.00297 0.0041,0.00296 0.004,0.00297 0.0041,0.00297 0.0041,0.00298 0.0041,0.00297 0.0041,0.00298 0.0041,0.00298 0.0041,0.00299 0.0042,0.00298 0.0041,0.00299 0.0042,0.00299 0.0041,0.003 0.0042,0.003 0.0042,0.003 0.0042,0.003 0.0042,0.003 0.0043,0.00301 0.0042,0.00301 0.0042,0.00301 0.0043,0.00302 0.0043,0.00302 0.0043,0.00302 0.0043,0.00302 0.0043,0.00303 0.0043,0.00303 0.0043,0.00303 0.0044,0.00304 0.0043,0.00304 0.0044,0.00304 0.0044,0.00304 0.0044,0.00305 0.0044,0.00305 0.0044,0.00305 0.0044,0.00306 0.0044,0.00306 0.0045,0.00306 0.003,0.00205"
         id="path5434"
         inkscape:connector-curvature="0" />
      <path
         id="98"
         d="M -40.4819,-6.10331 -46.1387,-9.3693"
         inkscape:connector-curvature="0" />
      <path
         id="99"
         d="m -40.4819,-4.87857 0,-1.22474"
         inkscape:connector-curvature="0" />
      <path
         id="100"
         d="m -40.4819,-4.87857 -3.4906,2.01532"
         inkscape:connector-curvature="0" />
      <path
         d="m -40.7545,-2.58651 -0.0023,0.00128 -0.0016,9.6e-4 -0.002,0.00113 -0.0022,0.00127 -0.0023,0.00127 -0.0022,0.00127 -0.0023,0.00126 -0.0023,0.00127 -0.0022,0.00125 -0.0023,0.00126 -0.0023,0.00125 -0.0022,0.00125 -0.0023,0.00124 -0.0023,0.00125 -0.0023,0.00123 -0.0023,0.00124 -0.0023,0.00123 -0.0023,0.00123 -0.0023,0.00123 -0.0024,0.00122 -0.0023,0.00122 -0.0023,0.00122 -0.0024,0.00122 -0.0023,0.00121 -0.0023,0.00121 -0.0024,0.0012 -0.0024,0.0012 -0.0023,0.0012 -0.0024,0.0012 -0.0024,0.00119 -0.0023,0.00119 -0.0024,0.00118 -0.0024,0.00119 -0.0024,0.00118 -0.0024,0.00117 -0.0024,0.00118 -0.0024,0.00117 -0.0024,0.00117 -0.0024,0.00116 -0.0025,0.00116 -0.0024,0.00116 -0.0024,0.00115 -0.0025,0.00115 -0.0024,0.00115 -0.0025,0.00115 -0.0024,0.00114 -0.0025,0.00114 -0.0024,0.00113 -0.0025,0.00114 -0.0025,0.00113 -0.0025,0.00112 -0.0024,0.00112 -0.0025,0.00112 -0.0025,0.00112 -0.0025,0.00111 -0.0025,0.00111 -0.0025,0.00111 -0.0026,0.0011 -0.0025,0.0011 -0.0025,0.0011 -0.0025,0.00109 -0.0026,0.00109 -0.0025,0.00109 -0.0025,0.00109 -0.0026,0.00108 -0.0025,0.00107 -0.0026,0.00108 -0.0026,0.00107 -0.0025,0.00107 -0.0026,0.00106 -0.0026,0.00106 -0.0026,0.00106 -0.0026,0.00106 -0.0025,0.00105 -0.0026,0.00104 -0.0026,0.00105 -0.0027,0.00104 -0.0026,0.00104 -0.0026,0.00103 -0.0026,0.00104 -0.0026,0.00103 -0.0027,0.00102 -0.0026,0.00102 -0.0026,0.00102 -0.0027,0.00102 -0.0026,0.00101 -0.0027,0.00101 -0.0026,10e-4 -0.0027,10e-4 -0.0027,10e-4 -0.0027,0.001 -0.0026,9.9e-4 -0.0027,9.9e-4 -0.0027,9.8e-4 -0.0027,9.9e-4 -0.0027,9.8e-4 -0.0027,9.7e-4 -0.0027,9.7e-4 -0.0027,9.7e-4 -0.0027,9.7e-4 -0.0028,9.6e-4 -0.0027,9.6e-4 -0.0027,9.5e-4 -0.0028,9.5e-4 -0.0027,9.5e-4 -0.0027,9.5e-4 -0.0028,9.4e-4 -0.0027,9.4e-4 -0.0028,9.3e-4 -0.0028,9.4e-4 -0.0027,9.2e-4 -0.0028,9.3e-4 -0.0028,9.2e-4 -0.0028,9.2e-4 -0.0028,9.1e-4 -0.0027,9.1e-4 -0.0028,9.1e-4 -0.0028,9.1e-4 -0.0029,9e-4 -0.0028,9e-4 -0.0028,8.9e-4 -0.0028,8.9e-4 -0.0028,8.9e-4 -0.0029,8.8e-4 -0.0028,8.8e-4 -0.0028,8.8e-4 -0.0029,8.7e-4 -0.0028,8.8e-4 -0.0029,8.6e-4 -0.0028,8.7e-4 -0.0029,8.6e-4 -0.0028,8.5e-4 -0.0029,8.6e-4 -0.0029,8.5e-4 -0.0029,8.4e-4 -0.0029,8.4e-4 -0.0028,8.4e-4 -0.0029,8.4e-4 -0.0029,8.3e-4 -0.0029,8.3e-4 -0.0029,8.3e-4 -0.0029,8.2e-4 -0.003,8.2e-4 -0.0029,8.1e-4 -0.0029,8.1e-4 -0.0029,8.1e-4 -0.003,8.1e-4 -0.0029,8e-4 -0.0029,8e-4 -0.003,7.9e-4 -0.0029,7.9e-4 -0.003,7.9e-4 -0.003,7.8e-4 -0.0029,7.8e-4 -0.003,7.8e-4 -0.003,7.7e-4 -0.0029,7.7e-4 -0.003,7.7e-4 -0.003,7.6e-4 -0.003,7.6e-4 -0.003,7.5e-4 -0.003,7.6e-4 -0.003,7.5e-4 -0.003,7.4e-4 -0.003,7.4e-4 -0.003,7.4e-4 -0.003,7.3e-4 -0.0031,7.4e-4 -0.003,7.2e-4 -0.003,7.3e-4 -0.0031,7.2e-4 -0.003,7.1e-4 -0.0031,7.2e-4 -0.003,7.1e-4 -0.0031,7e-4 -0.003,7e-4 -0.0031,7e-4 -0.0031,7e-4 -0.003,6.9e-4 -0.0031,6.9e-4 -0.0031,6.8e-4 -0.0031,6.8e-4 -0.0031,6.8e-4 -0.003,6.7e-4 -0.0031,6.7e-4 -0.0031,6.7e-4 -0.0032,6.6e-4 -0.0031,6.6e-4 -0.0031,6.6e-4 -0.0031,6.5e-4 -0.0031,6.5e-4 -0.0031,6.4e-4 -0.0032,6.5e-4 -0.0031,6.3e-4 -0.0032,6.4e-4 -0.0031,6.3e-4 -0.0031,6.2e-4 -0.0032,6.3e-4 -0.0032,6.2e-4 -0.0031,6.1e-4 -0.0032,6.2e-4 -0.0031,6e-4 -0.0032,6.1e-4 -0.0032,6e-4 -0.0032,6e-4 -0.0032,5.9e-4 -0.0032,5.9e-4 -0.0031,5.9e-4 -0.0032,5.8e-4 -0.0032,5.8e-4 -0.0032,5.8e-4 -0.0033,5.7e-4 -0.0032,5.7e-4 -0.0032,5.6e-4 -0.0032,5.6e-4 -0.0032,5.6e-4 -0.0033,5.6e-4 -0.0032,5.5e-4 -0.0032,5.4e-4 -0.0033,5.4e-4 -0.0032,5.4e-4 -0.0033,5.4e-4 -0.0032,5.3e-4 -0.0033,5.3e-4 -0.0033,5.2e-4 -0.0032,5.2e-4 -0.0033,5.2e-4 -0.0033,5.1e-4 -0.0032,5.1e-4 -0.0033,5.1e-4 -0.0033,5e-4 -0.0033,5e-4 -0.0033,4.9e-4 -0.0033,4.9e-4 -0.0033,4.9e-4 -0.0033,4.8e-4 -0.0033,4.8e-4 -0.0033,4.8e-4 -0.0033,4.7e-4 -0.0034,4.7e-4 -0.0033,4.6e-4 -0.0033,4.7e-4 -0.0034,4.5e-4 -0.0033,4.6e-4 -0.0033,4.5e-4 -0.0034,4.4e-4 -0.0033,4.4e-4 -0.0034,4.4e-4 -0.0033,4.4e-4 -0.0034,4.3e-4 -0.0034,4.2e-4 -0.0033,4.3e-4 -0.0034,4.2e-4 -0.0034,4.1e-4 -0.0034,4.1e-4 -0.0033,4.1e-4 -0.0034,4.1e-4 -0.0034,4e-4 -0.0034,3.9e-4 -0.0034,4e-4 -0.0034,3.9e-4 -0.0034,3.8e-4 -0.0034,3.8e-4 -0.0035,3.8e-4 -0.0034,3.8e-4 -0.0034,3.7e-4 -0.0034,3.6e-4 -0.0034,3.6e-4 -0.0035,3.6e-4 -0.0034,3.6e-4 -0.0035,3.5e-4 -0.0034,3.5e-4 -0.0035,3.4e-4 -0.0034,3.4e-4 -0.0035,3.4e-4 -0.0034,3.3e-4 -0.0035,3.3e-4 -0.0034,3.2e-4 -0.0035,3.2e-4 -0.0035,3.2e-4 -0.0035,3.1e-4 -0.0035,3.1e-4 -0.0034,3e-4 -0.0035,3.1e-4 -0.0035,2.9e-4 -0.0035,3e-4 -0.0035,2.9e-4 -0.0035,2.8e-4 -0.0035,2.8e-4 -0.0035,2.8e-4 -0.0036,2.8e-4 -0.0035,2.7e-4 -0.0035,2.6e-4 -0.0035,2.6e-4 -0.0035,2.6e-4 -0.0036,2.6e-4 -0.0035,2.5e-4 -0.0036,2.5e-4 -0.0035,2.4e-4 -0.0035,2.4e-4 -0.0036,2.3e-4 -0.0035,2.3e-4 -0.0036,2.3e-4 -0.0036,2.3e-4 -0.0035,2.2e-4 -0.0036,2.1e-4 -0.0036,2.1e-4 -0.0035,2.1e-4 -0.0036,2e-4 -0.0036,2.1e-4 -0.0036,1.9e-4 -0.0036,1.9e-4 -0.0036,1.9e-4 -0.0036,1.9e-4 -0.0036,1.8e-4 -0.0036,1.7e-4 -0.0036,1.8e-4 -0.0036,1.6e-4 -0.0036,1.7e-4 -0.0036,1.6e-4 -0.0037,1.6e-4 -0.0036,1.5e-4 -0.0036,1.5e-4 -0.0036,1.4e-4 -0.0037,1.4e-4 -0.0036,1.4e-4 -0.0037,1.3e-4 -0.0036,1.3e-4 -0.0036,1.3e-4 -0.0037,1.2e-4 -0.0037,1.2e-4 -0.0036,1.1e-4 -0.0037,1.1e-4 -0.0036,1e-4 -0.0037,1.1e-4 -0.0037,9e-5 -0.0037,10e-5 -0.0036,9e-5 -0.0037,8e-5 -0.0037,8e-5 -0.0037,8e-5 -0.0037,7e-5 -0.0037,7e-5 -0.0037,7e-5 -0.0037,6e-5 -0.0037,6e-5 -0.0037,5e-5 -0.0037,5e-5 -0.0037,4e-5 -0.0038,4e-5 -0.0037,4e-5 -0.0037,3e-5 -0.0037,3e-5 -0.0038,3e-5 -0.0037,2e-5 -0.0037,2e-5 -0.0038,1e-5 -0.0037,1e-5 -0.0038,0 -0.0037,0 -0.0038,0 -0.0038,-1e-5 -0.0037,-1e-5 -0.0038,-10e-6 -0.0038,-2e-5 -0.0037,-3e-5 -0.0038,-2e-5 -0.0038,-3e-5 -0.0038,-4e-5 -0.0037,-4e-5 -0.0038,-4e-5 -0.0038,-5e-5 -0.0038,-5e-5 -0.0038,-6e-5 -0.0038,-6e-5 -0.0038,-6e-5 -0.0038,-7e-5 -0.0038,-7e-5 -0.0039,-8e-5 -0.0038,-8e-5 -0.0038,-9e-5 -0.0038,-8e-5 -0.0039,-1e-4 -0.0038,-9e-5 -0.0038,-1.1e-4 -0.0039,-10e-5 -0.0038,-1.1e-4 -0.0038,-1.1e-4 -0.0039,-1.2e-4 -0.0038,-1.2e-4 -0.0039,-1.3e-4 -0.0038,-1.3e-4 -0.0039,-1.3e-4 -0.0039,-1.4e-4 -0.0038,-1.4e-4 -0.0039,-1.5e-4 -0.0039,-1.5e-4 -0.0038,-1.5e-4 -0.0039,-1.6e-4 -0.0039,-1.7e-4 -0.0039,-1.6e-4 -0.0039,-1.7e-4 -0.0038,-1.8e-4 -0.0039,-1.8e-4 -0.0039,-1.8e-4 -0.0039,-1.9e-4 -0.0039,-1.9e-4 -0.0039,-2e-4 -0.0039,-2e-4 -0.004,-2e-4 -0.0039,-2.1e-4 -0.0039,-2.2e-4 -0.0039,-2.1e-4 -0.0039,-2.2e-4 -0.004,-2.3e-4 -0.0039,-2.3e-4 -0.0039,-2.3e-4 -0.004,-2.4e-4 -0.0039,-2.4e-4 -0.0039,-2.5e-4 -0.004,-2.5e-4 -0.0039,-2.5e-4 -0.004,-2.6e-4 -0.0039,-2.7e-4 -0.004,-2.6e-4 -0.0039,-2.7e-4 -0.004,-2.8e-4 -0.004,-2.8e-4 -0.0039,-2.8e-4 -0.004,-2.9e-4 -0.004,-3e-4 -0.004,-2.9e-4 -0.0039,-3e-4 -0.004,-3.1e-4 -0.004,-3.1e-4 -0.004,-3.1e-4 -0.004,-3.2e-4 -0.004,-3.2e-4 -0.004,-3.3e-4 -0.004,-3.3e-4 -0.004,-3.3e-4 -0.004,-3.4e-4 -0.004,-3.5e-4 -0.004,-3.4e-4 -0.004,-3.6e-4 -0.004,-3.5e-4 -0.004,-3.6e-4 -0.0041,-3.7e-4 -0.004,-3.7e-4 -0.004,-3.7e-4 -0.0041,-3.8e-4 -0.004,-3.8e-4 -0.004,-3.8e-4 -0.0041,-3.9e-4 -0.004,-4e-4 -0.0041,-4e-4 -0.004,-4e-4 -0.0041,-4.1e-4 -0.004,-4.1e-4 -0.0041,-4.2e-4 -0.004,-4.2e-4 -0.0041,-4.2e-4 -0.0041,-4.3e-4 -0.004,-4.3e-4 -0.0041,-4.4e-4 -0.0041,-4.4e-4 -0.004,-4.5e-4 -0.0041,-4.5e-4 -0.0041,-4.5e-4 -0.0041,-4.6e-4 -0.0041,-4.7e-4 -0.0041,-4.6e-4 -0.0041,-4.8e-4 -0.0041,-4.7e-4 -0.0041,-4.8e-4 -0.0041,-4.9e-4 -0.0041,-4.9e-4 -0.0041,-4.9e-4 -0.0041,-5e-4 -0.0041,-5e-4 -0.0041,-5.1e-4 -0.0041,-5.1e-4 -0.0042,-5.1e-4 -0.0041,-5.2e-4 -0.0041,-5.3e-4 -0.0041,-5.3e-4 -0.0042,-5.3e-4 -0.0041,-5.4e-4 -0.0041,-5.4e-4 -0.0042,-5.4e-4 -0.0041,-5.5e-4 -0.0042,-5.6e-4 -0.0041,-5.6e-4 -0.0042,-5.6e-4 -0.0041,-5.7e-4 -0.0042,-5.7e-4 -0.0041,-5.8e-4 -0.0042,-5.8e-4 -0.0042,-5.8e-4 -0.0041,-5.9e-4 -0.0042,-6e-4 -0.0042,-5.9e-4 -0.0041,-6.1e-4 -0.0042,-6.1e-4 -0.0042,-6.1e-4 -0.0042,-6.1e-4 -0.0042,-6.2e-4 -0.0042,-6.3e-4 -0.0041,-6.3e-4 -0.0042,-6.3e-4 -0.0042,-6.4e-4 -0.0042,-6.4e-4 -0.0042,-6.5e-4 -0.0042,-6.5e-4 -0.0043,-6.6e-4 -0.0042,-6.6e-4 -0.0042,-6.6e-4 -0.0042,-6.7e-4 -0.0042,-6.7e-4 -0.0042,-6.8e-4 -0.0042,-6.8e-4 -0.0043,-6.9e-4 -0.0042,-6.9e-4 -0.0042,-7e-4 -0.0043,-7e-4 -0.0042,-7e-4 -0.0042,-7.1e-4 -0.0043,-7.2e-4 -0.0042,-7.2e-4 -0.0043,-7.2e-4 -0.0042,-7.3e-4 -0.0043,-7.3e-4 -0.0042,-7.3e-4 -0.0043,-7.4e-4 -0.0042,-7.5e-4 -0.0043,-7.5e-4 -0.0043,-7.5e-4 -0.0042,-7.6e-4 -0.0043,-7.6e-4 -0.0043,-7.7e-4 -0.0043,-7.7e-4 -0.0042,-7.8e-4 -0.0043,-7.8e-4 -0.0043,-7.9e-4 -0.0043,-7.9e-4 -0.0043,-7.9e-4 -0.0043,-8e-4 -0.0042,-8e-4 -0.0043,-8.1e-4 -0.0043,-8.2e-4 -0.0043,-8.1e-4 -0.0043,-8.2e-4 -0.0043,-8.3e-4 -0.0044,-8.3e-4 -0.0043,-8.4e-4 -0.0043,-8.4e-4 -0.0043,-8.4e-4 -0.0043,-8.5e-4 -0.0043,-8.5e-4 -0.0044,-8.6e-4 -0.0043,-8.7e-4 -0.0043,-8.6e-4 -0.0043,-8.7e-4 -0.0044,-8.8e-4 -0.0043,-8.8e-4 -0.0043,-8.9e-4 -0.0044,-8.9e-4 -0.0043,-8.9e-4 -0.0044,-9e-4 -0.0043,-9.1e-4 -0.0044,-9e-4 -0.0043,-9.2e-4 -0.0044,-9.2e-4 -0.0043,-9.2e-4 -0.0044,-9.2e-4 -0.0044,-9.4e-4 -0.0043,-9.3e-4 -0.0044,-9.4e-4 -0.0044,-9.5e-4 -0.0043,-9.5e-4 -0.0044,-9.5e-4 -0.0044,-9.6e-4 -0.0044,-9.7e-4 -0.0044,-9.6e-4 -0.0043,-9.8e-4 -0.0044,-9.8e-4 -0.0044,-9.8e-4 -0.0044,-9.9e-4 -0.0044,-9.9e-4 -0.0044,-9.9e-4 -0.0044,-10e-4 -0.0044,-0.00101 -0.0044,-0.00101 -0.0044,-0.00102 -0.0044,-0.00101 -0.0045,-0.00103 -0.0044,-0.00103 -0.0044,-0.00103 -0.0044,-0.00104 -0.0044,-0.00104 -0.0045,-0.00105 -0.0044,-0.00105 -0.0044,-0.00106 -0.0044,-0.00106 -0.0045,-0.00107 -0.0044,-0.00107 -0.0045,-0.00108 -0.0044,-0.00108 -0.0044,-0.00108 -0.0045,-0.00109 -0.0044,-0.0011 -0.0045,-0.0011 -0.0044,-0.0011 -0.0045,-0.00111 -0.0045,-0.00111 -0.0044,-0.00112 -0.0045,-0.00113 -0.0045,-0.00112 -0.0044,-0.00114 -0.0045,-0.00113 -0.0045,-0.00115 -0.0045,-0.00114 -0.0044,-0.00115 -0.0045,-0.00116 -0.0045,-0.00116 -0.0045,-0.00117 -0.0045,-0.00117 -0.0045,-0.00117 -0.0045,-0.00119 -0.0045,-0.00118 -0.0045,-0.00119 -0.0045,-0.0012 -0.0045,-0.00119 -0.0045,-0.00121 -0.0045,-0.00121 -0.0045,-0.00121 -0.0045,-0.00122 -0.0045,-0.00123 -0.0045,-0.00122 -0.0046,-0.00124 -0.0045,-0.00123 -0.0045,-0.00125 -0.0046,-0.00125 -0.0045,-0.00125 -0.0045,-0.00126 -0.0046,-0.00126 -0.0045,-0.00127 -0.0045,-0.00127 -0.0046,-0.00127 -0.0045,-0.00129 -0.0046,-0.00128 -0.0045,-0.00129 -0.0046,-0.0013 -0.0045,-0.0013 -0.0046,-0.00131 -0.0046,-0.00131 -0.0045,-0.00132 -0.0046,-0.00132 -0.0046,-0.00132 -0.0045,-0.00133 -0.0046,-0.00134 -0.0046,-0.00134 -0.0046,-0.00135 -0.0045,-0.00135 -0.0046,-0.00135 -0.0046,-0.00136 -0.0046,-0.00137 -0.0046,-0.00137 -0.0046,-0.00137 -0.0046,-0.00138 -0.0046,-0.00139 -0.0046,-0.00139 -0.0046,-0.00139 -0.0046,-0.0014 -0.0046,-0.00141 -0.0046,-0.00141 -0.0046,-0.00141 -0.0046,-0.00142 -0.0047,-0.00143 -0.0046,-0.00143 -0.0046,-0.00143 -0.0046,-0.00144 -0.0047,-0.00145 -0.0046,-0.00145 -0.0046,-0.00145 -0.0047,-0.00146 -0.0046,-0.00147 -0.0047,-0.00147 -0.0046,-0.00147 -0.0047,-0.00148 -0.0046,-0.00149 -0.0047,-0.00149 -0.0046,-0.00149 -0.0047,-0.0015 -0.0046,-0.00151 -0.0047,-0.00151 -0.0047,-0.00151 -0.0046,-0.00153 -0.0047,-0.00152 -0.0047,-0.00153 -0.0047,-0.00154 -0.0046,-0.00154 -0.0047,-0.00155 -0.0047,-0.00155 -0.0047,-0.00155 -0.0047,-0.00157 -0.0047,-0.00156 -0.0047,-0.00157 -0.0047,-0.00158 -0.0047,-0.00158 -0.0047,-0.00159 -0.0047,-0.00159 -0.0047,-0.0016 -0.0047,-0.0016 -0.0047,-0.00161 -0.0047,-0.00162 -0.0047,-0.00161 -0.0048,-0.00163 -0.0047,-0.00163 -0.0047,-0.00163 -0.0047,-0.00164 -0.0048,-0.00165 -0.0047,-0.00164 -0.0048,-0.00166 -0.0047,-0.00166 -0.0047,-0.00167 -0.0048,-0.00167 -0.0047,-0.00167 -0.0048,-0.00168 -0.0047,-0.00169 -0.0048,-0.00169 -0.0048,-0.0017 -0.0047,-0.0017 -0.0048,-0.00171 -0.0048,-0.00171 -0.0047,-0.00172 -0.0048,-0.00173 -0.0048,-0.00172 -0.0048,-0.00174 -0.0047,-0.00174 -0.0048,-0.00174 -0.0048,-0.00175 -0.0048,-0.00176 -0.0048,-0.00176 -0.0048,-0.00177 -0.0048,-0.00177 -0.0048,-0.00178 -0.0048,-0.00178 -0.0048,-0.00179 -0.0048,-0.00179 -0.0049,-0.0018 -0.0048,-0.0018 -0.0048,-0.00181 -0.0048,-0.00182 -0.0048,-0.00182 -0.0049,-0.00183 -0.0048,-0.00183 -0.0048,-0.00183 -0.0049,-0.00185 -0.0048,-0.00185 -0.0049,-0.00185 -0.0048,-0.00186 -0.0049,-0.00186 -0.0048,-0.00187 -0.0049,-0.00188 -0.0048,-0.00188 -0.0049,-0.00189 -0.0049,-0.00189 -0.0048,-0.0019 -0.0049,-0.0019 -0.0049,-0.00191 -0.0049,-0.00191 -0.0049,-0.00192 -0.0048,-0.00193 -0.0049,-0.00193 -0.0049,-0.00194 -0.0049,-0.00194 -0.0049,-0.00195 -0.0049,-0.00195 -0.0049,-0.00196 -0.0049,-0.00196 -0.0049,-0.00198 -0.0049,-0.00197 -0.005,-0.00198 -0.0049,-0.00199 -0.0049,-0.002 -0.0049,-0.00199 -0.005,-0.00201 -0.0049,-0.00201 -0.0049,-0.00202 -0.005,-0.00202 -0.0049,-0.00203 -0.005,-0.00203 -0.0049,-0.00204 -0.005,-0.00205 -0.0049,-0.00205 -0.005,-0.00205 -0.005,-0.00207 -0.0049,-0.00206 -0.005,-0.00208 -0.005,-0.00208 -0.005,-0.00209 -0.0049,-0.00209 -0.005,-0.0021 -0.005,-0.0021 -0.005,-0.00211 -0.005,-0.00211 -0.005,-0.00213 -0.005,-0.00212 -0.005,-0.00214 -0.005,-0.00214 -0.005,-0.00214 -0.0051,-0.00215 -0.005,-0.00216 -0.005,-0.00216 -0.005,-0.00217 -0.0051,-0.00218 -0.005,-0.00218 -0.005,-0.00219 -0.0051,-0.00219 -0.005,-0.0022 -0.0051,-0.00221 -0.005,-0.00221 -0.0051,-0.00222 -0.0051,-0.00222 -0.005,-0.00223 -0.0051,-0.00224 -0.0051,-0.00224 -0.0051,-0.00225 -0.0051,-0.00225 -0.005,-0.00226 -0.0051,-0.00227 -0.0051,-0.00227 -0.0051,-0.00228 -0.0051,-0.00229 -0.0051,-0.00229 -0.0052,-0.0023 -0.0051,-0.00231 -0.0051,-0.00231 -0.0051,-0.00231 -0.0051,-0.00233 -0.0052,-0.00233 -0.0051,-0.00233 -0.0052,-0.00235 -0.0051,-0.00235 -0.0052,-0.00235 -0.0051,-0.00236 -0.0052,-0.00237 -0.0051,-0.00238 -0.0052,-0.00238 -0.0052,-0.00239 -0.0051,-0.00239 -0.0052,-0.0024 -0.0052,-0.00241 -0.0052,-0.00242 -0.0052,-0.00242 -0.0052,-0.00242 -0.0052,-0.00244 -0.0052,-0.00244 -0.0052,-0.00245 -0.0052,-0.00245 -0.0053,-0.00246 -0.0052,-0.00247 -0.0052,-0.00247 -0.0053,-0.00248 -0.0052,-0.00249 -0.0053,-0.00249 -0.0052,-0.00251 -0.0053,-0.0025 -0.0052,-0.00252 -0.0053,-0.00252 -0.0053,-0.00253 -0.0053,-0.00253 -0.0052,-0.00255 -0.0053,-0.00254 -0.0053,-0.00256 -0.0053,-0.00256 -0.0053,-0.00257 -0.0036,-0.00173"
         id="path5439"
         inkscape:connector-curvature="0" />
      <path
         id="102"
         d="m -52.0673,-2.17982 -0.3554,0.20518"
         inkscape:connector-curvature="0" />
      <path
         d="m -40.8897,9.72905 c -0.3059,0.13428 -0.6904,0.18394 -1.0753,0.17122 -0.3883,-0.01239 -0.7804,-0.08658 -1.1412,-0.19199 -0.6969,-0.20552 -1.268,-0.50591 -1.7711,-0.79463"
         id="path5442"
         inkscape:connector-curvature="0" />
      <path
         d="m -50.3068,5.47256 c 0.1696,0.23519 0.4145,0.45189 0.6793,0.64699 0.2576,0.18948 0.5352,0.36041 0.8132,0.52106"
         id="path5444"
         inkscape:connector-curvature="0" />
      <path
         id="105"
         d="m -44.8773,8.91365 -3.937,-2.27304"
         inkscape:connector-curvature="0" />
      <path
         d="m -31.0015,-21.0423 q -0.0227,-0.013 -0.0406,-0.023"
         id="path5447"
         inkscape:connector-curvature="0" />
      <path
         d="m -31.0421,-21.0653 q -0.0042,0.0022 -0.0131,0.0073"
         id="path5449"
         inkscape:connector-curvature="0" />
      <path
         d="m -32.0895,-21.058 q -0.0088,-0.0051 -0.0131,-0.0073"
         id="path5451"
         inkscape:connector-curvature="0" />
      <path
         d="m -32.1026,-21.0653 q -0.0178,0.01 -0.0405,0.023"
         id="path5453"
         inkscape:connector-curvature="0" />
      <path
         d="m -32.6279,-20.7624 q -0.0227,0.0131 -0.0403,0.0236"
         id="path5455"
         inkscape:connector-curvature="0" />
      <path
         d="m -32.6682,-20.7388 q 0.0042,0.0023 0.013,0.0074"
         id="path5457"
         inkscape:connector-curvature="0" />
      <path
         d="m -32.6552,-20.1342 q -0.0088,0.0051 -0.013,0.0077"
         id="path5459"
         inkscape:connector-curvature="0" />
      <path
         d="m -32.6682,-20.1265 q 0.0176,0.0101 0.0403,0.0232"
         id="path5461"
         inkscape:connector-curvature="0" />
      <path
         d="m -32.1431,-19.8234 q 0.0227,0.0131 0.0405,0.0235"
         id="path5463"
         inkscape:connector-curvature="0" />
      <path
         d="m -32.1026,-19.7999 q 0.0043,-0.0026 0.0131,-0.0077"
         id="path5465"
         inkscape:connector-curvature="0" />
      <path
         d="m -31.0552,-19.8076 q 0.0089,0.0051 0.0131,0.0077"
         id="path5467"
         inkscape:connector-curvature="0" />
      <path
         d="m -31.0421,-19.7999 q 0.0179,-0.0104 0.0406,-0.0235"
         id="path5469"
         inkscape:connector-curvature="0" />
      <path
         d="m -30.5168,-20.1033 q 0.0227,-0.0131 0.0403,-0.0232"
         id="path5471"
         inkscape:connector-curvature="0" />
      <path
         d="m -30.4765,-20.1265 q -0.0041,-0.0026 -0.013,-0.0077"
         id="path5473"
         inkscape:connector-curvature="0" />
      <path
         d="m -30.4895,-20.7314 q 0.0089,-0.0051 0.013,-0.0074"
         id="path5475"
         inkscape:connector-curvature="0" />
      <path
         d="m -30.4765,-20.7388 q -0.0176,-0.0105 -0.0403,-0.0236"
         id="path5477"
         inkscape:connector-curvature="0" />
      <path
         d="m -22.5162,-16.1433 q -0.0227,-0.0131 -0.0406,-0.023"
         id="path5479"
         inkscape:connector-curvature="0" />
      <path
         d="m -22.5568,-16.1663 q -0.0042,0.0022 -0.0131,0.0073"
         id="path5481"
         inkscape:connector-curvature="0" />
      <path
         d="m -23.6042,-16.159 q -0.0088,-0.0051 -0.0131,-0.0073"
         id="path5483"
         inkscape:connector-curvature="0" />
      <path
         d="m -23.6173,-16.1663 q -0.0178,0.0099 -0.0405,0.023"
         id="path5485"
         inkscape:connector-curvature="0" />
      <path
         d="m -24.1426,-15.8634 q -0.0227,0.0131 -0.0403,0.0236"
         id="path5487"
         inkscape:connector-curvature="0" />
      <path
         d="m -24.1829,-15.8398 q 0.0042,0.0023 0.013,0.0074"
         id="path5489"
         inkscape:connector-curvature="0" />
      <path
         d="m -24.1699,-15.2353 q -0.0088,0.0052 -0.013,0.0078"
         id="path5491"
         inkscape:connector-curvature="0" />
      <path
         d="m -24.1829,-15.2275 q 0.0176,0.0101 0.0403,0.0232"
         id="path5493"
         inkscape:connector-curvature="0" />
      <path
         d="m -23.6578,-14.9244 q 0.0227,0.0131 0.0405,0.0235"
         id="path5495"
         inkscape:connector-curvature="0" />
      <path
         d="m -23.6173,-14.9009 q 0.0043,-0.0026 0.0131,-0.0078"
         id="path5497"
         inkscape:connector-curvature="0" />
      <path
         d="m -22.5699,-14.9087 q 0.0089,0.0052 0.0131,0.0078"
         id="path5499"
         inkscape:connector-curvature="0" />
      <path
         d="m -22.5568,-14.9009 q 0.0179,-0.0104 0.0406,-0.0235"
         id="path5501"
         inkscape:connector-curvature="0" />
      <path
         d="m -22.0315,-15.2043 q 0.0227,-0.0131 0.0403,-0.0232"
         id="path5503"
         inkscape:connector-curvature="0" />
      <path
         d="m -21.9912,-15.2275 q -0.0042,-0.0026 -0.013,-0.0078"
         id="path5505"
         inkscape:connector-curvature="0" />
      <path
         d="m -22.0042,-15.8324 q 0.0088,-0.0051 0.013,-0.0074"
         id="path5507"
         inkscape:connector-curvature="0" />
      <path
         d="m -21.9912,-15.8398 q -0.0176,-0.0105 -0.0403,-0.0236"
         id="path5509"
         inkscape:connector-curvature="0" />
      <path
         d="m -38.4405,6.09795 c -0.1843,0.10683 -0.4036,0.18912 -0.6201,0.24231 -0.2211,0.05275 -0.4345,0.08273 -0.6402,0.08993 -0.4106,0.01654 -0.767,-0.03781 -1.0623,-0.12368"
         id="path5511"
         inkscape:connector-curvature="0" />
      <path
         d="m -41.2722,5.98746 c 0.0578,0.06389 0.1377,0.1362 0.2347,0.19656 0.1077,0.06655 0.1989,0.10008 0.2744,0.12249"
         id="path5513"
         inkscape:connector-curvature="0" />
      <path
         d="m -38.4405,3.64846 c -0.1843,0.10683 -0.4036,0.18912 -0.6201,0.24231 -0.2211,0.05275 -0.4345,0.08273 -0.6402,0.08993 -0.4106,0.01654 -0.767,-0.03781 -1.0623,-0.12368"
         id="path5515"
         inkscape:connector-curvature="0" />
      <path
         d="m -41.2722,3.75526 q 0.0879,0.00375 0.2347,0.03262 0.1613,0.03466 0.2744,0.06914"
         id="path5517"
         inkscape:connector-curvature="0" />
      <path
         d="m -41.2722,3.75526 a 1.5,0.866025 -120 0 0 -0.3132,0.06922"
         id="path5519"
         inkscape:connector-curvature="0" />
      <path
         d="m -41.5854,3.82448 a 1.5,0.866025 -120 0 0 0.3132,2.16298"
         id="path5521"
         inkscape:connector-curvature="0" />
      <path
         d="m -52.996,-3.71197 c -0.035,0.24352 0.0602,0.45459 0.2121,0.62877"
         id="path5523"
         inkscape:connector-curvature="0" />
      <path
         d="m -52.4195,-2.68065 c -0.058,-0.06378 -0.129,-0.14116 -0.1985,-0.21748 -0.0767,-0.08436 -0.1275,-0.14125 -0.1659,-0.18507"
         id="path5525"
         inkscape:connector-curvature="0" />
      <path
         d="m -43.1425,-4.56719 c -0.2577,0.28471 -0.4363,0.58629 -0.5653,0.86586 -0.1387,0.30314 -0.2196,0.58489 -0.2647,0.83808"
         id="path5527"
         inkscape:connector-curvature="0" />
      <path
         d="m -48.7994,-7.83318 c 0.0025,0.21673 0.1375,0.48923 0.4523,0.81029 0.293,0.30133 0.7511,0.64204 1.269,0.96514 0.6476,0.40394 1.3937,0.79684 2.0894,1.06999 0.3756,0.14668 0.7207,0.25409 1.0351,0.32224 0.3062,0.06573 0.5766,0.09851 0.8111,0.09833"
         id="path5529"
         inkscape:connector-curvature="0" />
      <path
         d="m -48.7994,-7.83318 c -0.2577,0.28472 -0.4362,0.58629 -0.5652,0.86587 -0.1387,0.30314 -0.2196,0.58489 -0.2647,0.83807"
         id="path5531"
         inkscape:connector-curvature="0" />
      <path
         id="149"
         d="m -46.1387,-9.3693 -2.6607,1.53612"
         inkscape:connector-curvature="0" />
      <path
         id="150"
         d="m -40.4819,-6.10331 -2.6606,1.53612"
         inkscape:connector-curvature="0" />
      <path
         d="m -52.4227,-1.97464 c -0.2365,0.13578 -0.3996,0.30252 -0.4857,0.46008 -0.0857,0.15494 -0.1069,0.30373 -0.0894,0.43924"
         id="path5535"
         inkscape:connector-curvature="0" />
      <path
         d="m -52.9978,-1.07532 c 0.0221,0.166137 0.1018,0.313535 0.2139,0.441612"
         id="path5537"
         inkscape:connector-curvature="0" />
      <path
         d="m -52.4195,-0.448454 c -0.058,-0.002968 -0.129,-0.017743 -0.1985,-0.053529 -0.0767,-0.0399 -0.1275,-0.088348 -0.1659,-0.131725"
         id="path5539"
         inkscape:connector-curvature="0" />
      <path
         d="m -52.4195,-0.448454 a 1.5,0.866025 -120 0 0 0.3133,-0.069213"
         id="path5541"
         inkscape:connector-curvature="0" />
      <path
         d="M -52.1062,-0.517667 A 1.5,0.866025 -120 0 0 -52.4195,-2.68065"
         id="path5543"
         inkscape:connector-curvature="0" />
      <path
         id="156"
         d="M -44.7245,-0.387836 -48.9671,-2.83733"
         inkscape:connector-curvature="0" />
      <path
         d="m -44.7245,-0.387836 a 5,2.88675 60 0 1 0.3787,6.371366"
         id="path5546"
         inkscape:connector-curvature="0" />
      <path
         d="m -49.3458,-2.67672 a 5,2.88675 60 0 1 0.3787,-0.16061"
         id="path5548"
         inkscape:connector-curvature="0" />
      <path
         id="159"
         d="m -30.5168,-20.7624 -0.4847,-0.2799"
         inkscape:connector-curvature="0" />
      <path
         d="m -31.042,-21.0656 -0.3182,1.1635"
         id="path5551"
         inkscape:connector-curvature="0" />
      <path
         d="m -31.5723,-20.7594 0,0.9798"
         id="path5553"
         inkscape:connector-curvature="0" />
      <path
         id="162"
         d="m -31.0552,-21.058 -0.5171,0.2986"
         inkscape:connector-curvature="0" />
      <path
         id="163"
         d="m -31.5723,-20.7594 -0.5172,-0.2986"
         inkscape:connector-curvature="0" />
      <path
         d="m -32.1026,-21.0656 0.3182,1.1635"
         id="path5557"
         inkscape:connector-curvature="0" />
      <path
         id="165"
         d="m -32.1431,-21.0423 -0.4848,0.2799"
         inkscape:connector-curvature="0" />
      <path
         d="m -32.138,-20.4328 0.2828,0.8165"
         id="path5560"
         inkscape:connector-curvature="0" />
      <path
         id="167"
         d="m -32.6552,-20.7314 0.5172,0.2986"
         inkscape:connector-curvature="0" />
      <path
         id="168"
         d="m -32.138,-20.4328 -0.5172,0.2986"
         inkscape:connector-curvature="0" />
      <path
         id="169"
         d="m -32.6279,-20.1033 0.4848,0.2799"
         inkscape:connector-curvature="0" />
      <path
         id="170"
         d="m -32.0895,-19.8076 0.5172,-0.2986"
         inkscape:connector-curvature="0" />
      <path
         id="171"
         d="m -31.5723,-20.1062 0.5171,0.2986"
         inkscape:connector-curvature="0" />
      <path
         id="172"
         d="m -31.0015,-19.8234 0.4847,-0.2799"
         inkscape:connector-curvature="0" />
      <path
         d="m -31.0066,-20.4328 -0.2829,0.8165"
         id="path5568"
         inkscape:connector-curvature="0" />
      <path
         id="174"
         d="m -30.4895,-20.1342 -0.5171,-0.2986"
         inkscape:connector-curvature="0" />
      <path
         id="175"
         d="m -31.0066,-20.4328 0.5171,-0.2986"
         inkscape:connector-curvature="0" />
      <path
         id="176"
         d="m -22.0315,-15.8634 -0.4847,-0.2799"
         inkscape:connector-curvature="0" />
      <path
         d="m -22.5567,-16.1666 -0.3182,1.1635"
         id="path5573"
         inkscape:connector-curvature="0" />
      <path
         d="m -23.087,-15.8604 0,0.9797"
         id="path5575"
         inkscape:connector-curvature="0" />
      <path
         id="179"
         d="m -22.5699,-16.159 -0.5171,0.2986"
         inkscape:connector-curvature="0" />
      <path
         id="180"
         d="m -23.087,-15.8604 -0.5172,-0.2986"
         inkscape:connector-curvature="0" />
      <path
         d="m -23.6174,-16.1666 0.3182,1.1635"
         id="path5579"
         inkscape:connector-curvature="0" />
      <path
         id="182"
         d="m -23.6578,-16.1433 -0.4848,0.2799"
         inkscape:connector-curvature="0" />
      <path
         d="m -23.6527,-15.5338 0.2828,0.8164"
         id="path5582"
         inkscape:connector-curvature="0" />
      <path
         id="184"
         d="m -24.1699,-15.8324 0.5172,0.2986"
         inkscape:connector-curvature="0" />
      <path
         id="185"
         d="m -23.6527,-15.5338 -0.5172,0.2985"
         inkscape:connector-curvature="0" />
      <path
         id="186"
         d="m -24.1426,-15.2043 0.4848,0.2799"
         inkscape:connector-curvature="0" />
      <path
         id="187"
         d="m -23.6042,-14.9087 0.5172,-0.2985"
         inkscape:connector-curvature="0" />
      <path
         id="188"
         d="m -23.087,-15.2072 0.5171,0.2985"
         inkscape:connector-curvature="0" />
      <path
         id="189"
         d="m -22.5162,-14.9244 0.4847,-0.2799"
         inkscape:connector-curvature="0" />
      <path
         d="m -22.5214,-15.5338 -0.2828,0.8164"
         id="path5590"
         inkscape:connector-curvature="0" />
      <path
         id="191"
         d="m -22.0042,-15.2353 -0.5172,-0.2985"
         inkscape:connector-curvature="0" />
      <path
         id="192"
         d="m -22.5214,-15.5338 0.5172,-0.2986"
         inkscape:connector-curvature="0" />
      <path
         id="193"
         d="m -44.7245,-0.387836 -1.4142,0.816497"
         inkscape:connector-curvature="0" />
      <path
         id="194"
         d="m -48.9671,-2.83733 -1.4143,0.8165"
         inkscape:connector-curvature="0" />
      <path
         d="m -46.1387,0.428661 c -0.0761,0.044127 -0.1473,0.115382 -0.1921,0.171847 -0.0219,0.027482 -0.0401,0.053458 -0.0547,0.077928 -0.0166,0.027384 -0.0297,0.054818 -0.0373,0.076119"
         id="path5596"
         inkscape:connector-curvature="0" />
      <path
         d="m -50.3814,-2.02083 c -0.0758,0.04424 -0.121,0.13054 -0.1388,0.2026 -0.0087,0.03506 -0.0132,0.06897 -0.0135,0.10173 -2e-4,0.01993 9e-4,0.03927 0.0033,0.05803 0.0016,0.00938 0.0031,0.01877 0.0046,0.02815 0.0015,0.00721 0.0029,0.01336 0.0042,0.01844"
         id="path5598"
         inkscape:connector-curvature="0" />
      <path
         d="m -48.9722,1.72635 a 1,0.57735 60 0 1 1,1.73205"
         id="path5600"
         inkscape:connector-curvature="0" />
      <path
         id="198"
         d="m -46.5276,6.16455 0,-0.8165"
         inkscape:connector-curvature="0" />
      <path
         id="199"
         d="m -50.4167,3.91918 3.8891,2.24537"
         inkscape:connector-curvature="0" />
      <path
         id="200"
         d="M -46.5276,5.34805 -48.9209,3.9663"
         inkscape:connector-curvature="0" />
      <path
         id="201"
         d="m -49.7497,3.48777 -0.667,-0.38508"
         inkscape:connector-curvature="0" />
      <path
         id="202"
         d="m -50.4167,3.10269 0,0.81649"
         inkscape:connector-curvature="0" />
      <path
         id="203"
         d="m -50.4167,3.91918 0.6905,-0.39867"
         inkscape:connector-curvature="0" />
    </g>
  </g>
</svg>
