<?xml version="1.0" encoding="UTF-8" standalone="no"?>
<svg
   xmlns:dc="http://purl.org/dc/elements/1.1/"
   xmlns:cc="http://creativecommons.org/ns#"
   xmlns:rdf="http://www.w3.org/1999/02/22-rdf-syntax-ns#"
   xmlns:svg="http://www.w3.org/2000/svg"
   xmlns="http://www.w3.org/2000/svg"
   xmlns:sodipodi="http://sodipodi.sourceforge.net/DTD/sodipodi-0.dtd"
   xmlns:inkscape="http://www.inkscape.org/namespaces/inkscape"
   version="1.1"
   width="545.63098"
   height="390.3125"
   viewBox="0 0 153.98919 110.15486"
   id="svg3289"
   inkscape:version="0.48.5 r10040"
   sodipodi:docname="mouse_holder.svg">
  <metadata
     id="metadata3436">
    <rdf:RDF>
      <cc:Work
         rdf:about="">
        <dc:format>image/svg+xml</dc:format>
        <dc:type
           rdf:resource="http://purl.org/dc/dcmitype/StillImage" />
        <dc:title></dc:title>
      </cc:Work>
    </rdf:RDF>
  </metadata>
  <sodipodi:namedview
     pagecolor="#ffffff"
     bordercolor="#666666"
     borderopacity="1"
     objecttolerance="10"
     gridtolerance="10"
     guidetolerance="10"
     inkscape:pageopacity="0"
     inkscape:pageshadow="2"
     inkscape:window-width="1366"
     inkscape:window-height="702"
     id="namedview3434"
     showgrid="false"
     fit-margin-top="20"
     fit-margin-left="20"
     fit-margin-right="20"
     fit-margin-bottom="20"
     inkscape:zoom="0.67733334"
     inkscape:cx="327.11615"
     inkscape:cy="111.1327"
     inkscape:window-x="0"
     inkscape:window-y="27"
     inkscape:window-maximized="1"
     inkscape:current-layer="svg3289" />
  <!-- Working space 0 0 297 210 -->
  <defs
     id="defs3291">
    <radialGradient
       id="radialGradient3661"
       gradientUnits="userSpaceOnUse"
       cy="29.149"
       cx="282.64999"
       gradientTransform="matrix(0.14777,0.23089,-0.2468,0.15795,-26.318,-62.617)"
       r="19.570999">
      <stop
         stop-color="#71b2f8"
         offset="0"
         id="stop3294" />
      <stop
         stop-color="#002795"
         offset="1"
         id="stop3296" />
    </radialGradient>
    <radialGradient
       id="radialGradient3817"
       gradientUnits="userSpaceOnUse"
       cy="33.900002"
       cx="270.57999"
       gradientTransform="matrix(0.26631,0.065024,-0.17931,0.73438,-60.668,-36.938)"
       r="19.570999">
      <stop
         stop-color="#ff6d0f"
         offset="0"
         id="stop3299" />
      <stop
         stop-color="#ff1000"
         offset="1"
         id="stop3301" />
    </radialGradient>
  </defs>
  <!-- Set display:none to hide FreeCAD Logo -->
  <g
     id="Ortho_-1_1"
     transform="matrix(1,1.7320508,-1.7320508,1,13.81945,63.790745)">
    <g
       transform="scale(1,-1)"
       id="g3309"
       style="fill:none;stroke:#000000;stroke-width:0.175;stroke-linecap:butt;stroke-linejoin:miter">
      <path
         d="M 11.2397,23.423 C 11.0843,23.3862 10.8277,23.2977 10.4708,23.034 10.2695,22.8842 10.0411,22.6778 9.81361,22.4131 9.58639,22.1494 9.36016,21.8274 9.1692,21.4734 8.98202,21.1297 8.83011,20.7507 8.73695,20.4104 8.64201,20.069 8.60582,19.7661 8.6019,19.5445 8.59733,19.2133 8.64683,19.0363 8.68549,18.9227"
         id="path3311"
         inkscape:connector-curvature="0" />
      <path
         id="2"
         d="M 17.0919,10.0081 24.163,5.92561"
         inkscape:connector-curvature="0" />
      <path
         id="3"
         d="M -4.12132,-2.23936 2.94975,-6.32184"
         inkscape:connector-curvature="0" />
    </g>
    <g
       transform="scale(1,-1)"
       id="g3315"
       style="fill:none;stroke:#000000;stroke-width:0.175;stroke-linecap:butt;stroke-linejoin:miter">
      <path
         id="1"
         d="M 17.2534,26.899 12.6557,23.9496"
         inkscape:connector-curvature="0" />
      <path
         id="path3318"
         d="m 15.9099,27.7609 1.3435,0.8618"
         inkscape:connector-curvature="0" />
      <path
         d="M 12.6557,23.9496 C 12.4185,23.7986 12.1603,23.6944 11.9221,23.6131 11.686,23.5353 11.4585,23.4719 11.2397,23.423"
         id="path3320"
         inkscape:connector-curvature="0" />
      <path
         d="M 11.2397,23.423 C 11.0628,23.3824 10.8893,23.3466 10.7191,23.3157 10.6353,23.3001 10.552,23.2862 10.4692,23.2739 10.4431,23.2706 10.417,23.2673 10.3909,23.2639 10.3432,23.2602 10.2908,23.2521 10.253,23.2702"
         id="path3322"
         inkscape:connector-curvature="0" />
      <path
         id="5"
         d="m 9.54594,23.6784 6.36396,4.0825"
         inkscape:connector-curvature="0" />
      <path
         id="6"
         d="M 9.54594,23.6784 10.253,23.2702"
         inkscape:connector-curvature="0" />
      <path
         id="7"
         d="m 17.2534,28.6227 0,-5.4796"
         inkscape:connector-curvature="0" />
      <path
         d="m 24.163,5.92561 a 4,2.3094 60 0 1 4.8284,5.09709"
         id="path3327"
         inkscape:connector-curvature="0" />
      <path
         id="9"
         d="m 28.9914,11.0227 0,4.0825"
         inkscape:connector-curvature="0" />
      <path
         id="10"
         d="M 7.77817,2.85774 18.6274,9.12155"
         inkscape:connector-curvature="0" />
      <path
         id="11"
         d="m 28.9914,15.1052 3.5355,2.0412"
         inkscape:connector-curvature="0" />
      <path
         id="12"
         d="m 7.77817,-1.22474 0,4.08248"
         inkscape:connector-curvature="0" />
      <path
         id="13"
         d="m 32.5269,17.1464 0,27.7609"
         inkscape:connector-curvature="0" />
      <path
         d="m 2.94975,-6.32184 a 4,2.3094 60 0 1 4.82842,5.0971"
         id="path3334"
         inkscape:connector-curvature="0" />
      <path
         id="15"
         d="M 32.5269,44.9073 30.4056,60.0125"
         inkscape:connector-curvature="0" />
      <path
         d="m 9.54594,23.6784 a 2.75,1.58771 60 0 1 -1.375,-4.6269"
         id="path3337"
         inkscape:connector-curvature="0" />
      <path
         d="m 8.17094,19.0515 a 2.75,1.58771 60 0 1 1.375,0.1362"
         id="path3339"
         inkscape:connector-curvature="0" />
      <path
         id="18"
         d="m 15.9099,22.4537 1.3435,0.6894"
         inkscape:connector-curvature="0" />
      <path
         id="19"
         d="M 15.9099,22.4537 9.54594,19.1877"
         inkscape:connector-curvature="0" />
      <path
         id="20"
         d="M 0.353553,22.6578 21.2132,34.7011"
         inkscape:connector-curvature="0" />
      <path
         id="21"
         d="m 0.353553,10.4103 0,12.2475"
         inkscape:connector-curvature="0" />
      <path
         d="m 16.2635,11.8392 a 4,2.3094 60 0 1 0.8284,-1.8311"
         id="path3345"
         inkscape:connector-curvature="0" />
      <path
         d="m 17.0919,10.0081 a 4,2.3094 60 0 1 4.8284,5.0971"
         id="path3347"
         inkscape:connector-curvature="0" />
      <path
         id="24"
         d="m 16.2635,11.8392 0,4.0825"
         inkscape:connector-curvature="0" />
      <path
         id="25"
         d="m 28.9914,15.1052 -7.0711,4.0825"
         inkscape:connector-curvature="0" />
      <path
         id="26"
         d="m 21.9203,15.1052 0,4.0825"
         inkscape:connector-curvature="0" />
      <path
         id="27"
         d="M 7.77817,2.85774 0.707107,6.94022"
         inkscape:connector-curvature="0" />
      <path
         id="28"
         d="M 0.707107,6.94022 16.2635,15.9217"
         inkscape:connector-curvature="0" />
      <path
         id="29"
         d="m 32.5269,17.1464 -7.0711,4.0825"
         inkscape:connector-curvature="0" />
      <path
         id="30"
         d="m 21.9203,19.1877 3.5355,2.0412"
         inkscape:connector-curvature="0" />
      <path
         id="31"
         d="m 0.707107,2.85774 0,4.08248"
         inkscape:connector-curvature="0" />
      <path
         id="32"
         d="m 32.5269,44.9073 -7.0711,4.0825"
         inkscape:connector-curvature="0" />
      <path
         id="33"
         d="m 25.4558,21.2289 0,27.7609"
         inkscape:connector-curvature="0" />
      <path
         d="M -4.94975,-0.408248 A 4,2.3094 60 0 1 -4.12132,-2.23936"
         id="path3359"
         inkscape:connector-curvature="0" />
      <path
         d="m -4.12132,-2.23936 a 4,2.3094 60 0 1 4.828427,5.0971"
         id="path3361"
         inkscape:connector-curvature="0" />
      <path
         id="36"
         d="M 30.4056,60.0125 23.3345,64.095"
         inkscape:connector-curvature="0" />
      <path
         id="37"
         d="M 25.4558,48.9898 23.3345,64.095"
         inkscape:connector-curvature="0" />
      <path
         id="38"
         d="m -4.94975,-0.408248 0,4.082478"
         inkscape:connector-curvature="0" />
      <path
         id="39"
         d="M 23.3345,64.095 -6.36396,46.9486"
         inkscape:connector-curvature="0" />
      <path
         id="40"
         d="M -4.94975,-0.408248 -8.48528,1.63299"
         inkscape:connector-curvature="0" />
      <path
         id="41"
         d="m -8.48528,1.63299 3.53553,2.04124"
         inkscape:connector-curvature="0" />
      <path
         id="42"
         d="M -6.36396,46.9486 -8.48528,29.3939"
         inkscape:connector-curvature="0" />
      <path
         id="43"
         d="m -8.48528,29.3939 0,-27.76091"
         inkscape:connector-curvature="0" />
      <path
         id="44"
         d="m 21.2132,35.5176 0,-13.0639"
         inkscape:connector-curvature="0" />
      <path
         id="45"
         d="M 0.353553,22.6578 -0.353553,23.066"
         inkscape:connector-curvature="0" />
      <path
         id="46"
         d="M -0.353553,23.066 21.2132,35.5176"
         inkscape:connector-curvature="0" />
      <path
         id="47"
         d="M 21.2132,22.4537 -0.353553,10.0021"
         inkscape:connector-curvature="0" />
      <path
         id="48"
         d="m -0.353553,10.0021 0,13.0639"
         inkscape:connector-curvature="0" />
      <path
         d="M -1.06066,1.83712 A 1.5,0.866025 60 0 1 -1.37132,2.52378"
         id="path3376"
         inkscape:connector-curvature="0" />
      <path
         d="m -1.37132,2.52378 a 1.5,0.866025 60 0 1 -1.5,-2.5980732"
         id="path3378"
         inkscape:connector-curvature="0" />
      <path
         d="M -2.87132,-0.0742932 A 1.5,0.866025 60 0 1 -1.06066,1.83712"
         id="path3380"
         inkscape:connector-curvature="0" />
      <path
         d="m 20.1525,14.0846 a 1.5,0.866025 60 0 1 -0.3106,0.6866"
         id="path3382"
         inkscape:connector-curvature="0" />
      <path
         d="m 19.8419,14.7712 a 1.5,0.866025 60 0 1 -1.5,-2.598"
         id="path3384"
         inkscape:connector-curvature="0" />
      <path
         d="m 18.3419,12.1732 a 1.5,0.866025 60 0 1 1.8106,1.9114"
         id="path3386"
         inkscape:connector-curvature="0" />
      <path
         id="55"
         d="M 21.9203,61.6455 -4.94975,46.1321"
         inkscape:connector-curvature="0" />
      <path
         id="56"
         d="M 24.0416,48.1733 21.9203,61.6455"
         inkscape:connector-curvature="0" />
      <path
         id="57"
         d="m 24.0416,22.0454 0,26.1279"
         inkscape:connector-curvature="0" />
      <path
         id="58"
         d="M -7.07107,4.08248 24.0416,22.0454"
         inkscape:connector-curvature="0" />
      <path
         id="59"
         d="m -7.07107,30.2104 0,-26.12792"
         inkscape:connector-curvature="0" />
      <path
         id="60"
         d="M -4.94975,46.1321 -7.07107,30.2104"
         inkscape:connector-curvature="0" />
      <path
         id="61"
         d="M 21.9203,22.0454 -1.06066,8.77734"
         inkscape:connector-curvature="0" />
      <path
         id="62"
         d="m -1.06066,8.77734 0,14.28866"
         inkscape:connector-curvature="0" />
      <path
         id="63"
         d="M 0.707107,24.0866 -1.06066,23.066"
         inkscape:connector-curvature="0" />
      <path
         id="64"
         d="m 0.707107,24.4949 0,-0.4083"
         inkscape:connector-curvature="0" />
      <path
         id="65"
         d="M 0.707107,24.4949 21.9203,36.7423"
         inkscape:connector-curvature="0" />
      <path
         id="66"
         d="m 21.9203,36.7423 0,-14.6969"
         inkscape:connector-curvature="0" />
      <path
         id="67"
         d="m -4.94975,46.1321 2.82843,-1.633"
         inkscape:connector-curvature="0" />
      <path
         id="68"
         d="m -2.12132,44.4991 2.828427,1.633"
         inkscape:connector-curvature="0" />
      <path
         id="69"
         d="m 3.53553,44.4991 -2.828423,1.633"
         inkscape:connector-curvature="0" />
      <path
         id="70"
         d="M 22.8631,55.6579 3.53553,44.4991"
         inkscape:connector-curvature="0" />
      <path
         id="71"
         d="M 22.3917,58.6517 21.9203,58.3795"
         inkscape:connector-curvature="0" />
      <path
         id="72"
         d="m -1.41421,22.0454 0,-14.69693"
         inkscape:connector-curvature="0" />
      <path
         id="73"
         d="m -1.41421,22.0454 -2.82843,1.633"
         inkscape:connector-curvature="0" />
      <path
         id="74"
         d="m -4.24264,23.6784 0,3.266"
         inkscape:connector-curvature="0" />
      <path
         id="75"
         d="m -7.07107,30.2104 4.24264,-2.4495"
         inkscape:connector-curvature="0" />
      <path
         id="76"
         d="M 0.471405,41.097 -1.21218,28.4607"
         inkscape:connector-curvature="0" />
      <path
         id="77"
         d="M 0.471405,41.097 -2.35702,42.73"
         inkscape:connector-curvature="0" />
      <path
         id="78"
         d="m -2.35702,42.73 0.2357,1.7691"
         inkscape:connector-curvature="0" />
      <path
         id="79"
         d="m 22.6274,21.6372 -0.7071,0.4082"
         inkscape:connector-curvature="0" />
      <path
         id="80"
         d="M 22.6274,21.6372 -0.353553,8.36909"
         inkscape:connector-curvature="0" />
      <path
         id="81"
         d="M -0.353553,8.36909 -1.06066,8.77734"
         inkscape:connector-curvature="0" />
      <path
         id="82"
         d="m -0.353553,10.0021 0,12.6557"
         inkscape:connector-curvature="0" />
      <path
         id="83"
         d="M -1.06066,22.2495 -1.41421,22.0454"
         inkscape:connector-curvature="0" />
      <path
         id="84"
         d="m -1.41421,25.3114 -2.82843,-1.633"
         inkscape:connector-curvature="0" />
      <path
         id="85"
         d="M 0.707107,24.0866 -1.41421,25.3114"
         inkscape:connector-curvature="0" />
      <path
         id="86"
         d="m 1.41421,26.9444 0,-2.0413"
         inkscape:connector-curvature="0" />
      <path
         id="87"
         d="m -1.41421,28.5774 0,-3.266"
         inkscape:connector-curvature="0" />
      <path
         id="88"
         d="m 1.41421,26.9444 -2.82842,1.633"
         inkscape:connector-curvature="0" />
      <path
         id="89"
         d="m 22.6274,36.3341 -0.7071,0.4082"
         inkscape:connector-curvature="0" />
      <path
         id="90"
         d="m 22.6274,36.3341 0,-14.6969"
         inkscape:connector-curvature="0" />
      <path
         id="91"
         d="m 0.707107,46.1321 0,-1.633"
         inkscape:connector-curvature="0" />
      <path
         id="92"
         d="M 0.707107,44.4991 -2.35702,42.73"
         inkscape:connector-curvature="0" />
      <path
         id="93"
         d="m 3.53553,44.4991 0,-1.633"
         inkscape:connector-curvature="0" />
      <path
         id="94"
         d="m 3.53553,42.8661 -2.828423,1.633"
         inkscape:connector-curvature="0" />
      <path
         id="95"
         d="M 3.53553,42.8661 0.471405,41.097"
         inkscape:connector-curvature="0" />
      <path
         id="96"
         d="m 21.9203,58.3795 0,-1.633"
         inkscape:connector-curvature="0" />
      <path
         id="97"
         d="m 22.7688,56.2566 -0.8485,0.4899"
         inkscape:connector-curvature="0" />
      <path
         id="98"
         d="m 21.9203,56.7465 0.7071,0.4083"
         inkscape:connector-curvature="0" />
      <path
         id="99"
         d="m 24.0416,43.2743 0,-3.266"
         inkscape:connector-curvature="0" />
      <path
         id="100"
         d="m -4.24264,26.9444 2.82843,1.633"
         inkscape:connector-curvature="0" />
    </g>
  </g>
</svg>
